STARTFONT 2.1
COMMENT This font was automatically resized by bdfresize-1.5
COMMENT   mag_x = 3/2, mag_y = 3/2, blackness = 4
FONT -Misc-Lode1.5-Medium-R-Normal--23-225-75-75-C-120-ISO10646-1
SIZE 23 75 75
FONTBOUNDINGBOX 12 24 0 -6
STARTPROPERTIES 24
FONTNAME_REGISTRY ""
FOUNDRY "Misc"
FAMILY_NAME "Lode"
WEIGHT_NAME "Medium"
SLANT "R"
SETWIDTH_NAME "Normal"
ADD_STYLE_NAME ""
PIXEL_SIZE 23
POINT_SIZE 225
RESOLUTION_X 75
RESOLUTION_Y 75
SPACING "C"
AVERAGE_WIDTH 120
CHARSET_REGISTRY "ISO10646"
CHARSET_ENCODING "1"
COPYRIGHT "(C)2007 Hisham Muhammad. GNU GPL with font exception."
CAP_HEIGHT 10
X_HEIGHT 7
WEIGHT 10
QUAD_WIDTH 7
_GBDFED_INFO "Edited with gbdfed 1.6."
DEFAULT_CHAR 0
FONT_DESCENT 6
FONT_ASCENT 18
ENDPROPERTIES
CHARS 4355
STARTCHAR char0
ENCODING 0
SWIDTH 500 0
DWIDTH 12 0
BBX 12 24 0 -6
BITMAP
0000
0000
0000
EF60
EF60
0060
C000
C060
C060
0060
C060
C000
C060
C060
0060
C000
DDE0
DDE0
0000
0000
0000
0000
0000
0000
ENDCHAR
STARTCHAR char32
ENCODING 32
SWIDTH 500 0
DWIDTH 12 0
BBX 12 24 0 -6
BITMAP
0000
0000
0000
0000
0000
0000
0000
0000
0000
0000
0000
0000
0000
0000
0000
0000
0000
0000
0000
0000
0000
0000
0000
0000
ENDCHAR
STARTCHAR char33
ENCODING 33
SWIDTH 500 0
DWIDTH 12 0
BBX 12 24 0 -6
BITMAP
0000
0000
0000
0000
0E00
0E00
0E00
0E00
0E00
0E00
0E00
0E00
0E00
0E00
0E00
0000
0000
0E00
0E00
0E00
0000
0000
0000
0000
ENDCHAR
STARTCHAR char34
ENCODING 34
SWIDTH 500 0
DWIDTH 12 0
BBX 12 24 0 -6
BITMAP
0000
0000
0000
71C0
71C0
71C0
71C0
71C0
71C0
0000
0000
0000
0000
0000
0000
0000
0000
0000
0000
0000
0000
0000
0000
0000
ENDCHAR
STARTCHAR char35
ENCODING 35
SWIDTH 500 0
DWIDTH 12 0
BBX 12 24 0 -6
BITMAP
0000
0000
0000
0000
0660
0660
0EE0
0CC0
0CC0
7FF0
7FF0
1980
1980
FFE0
FFE0
3300
3300
7700
6600
6600
0000
0000
0000
0000
ENDCHAR
STARTCHAR char36
ENCODING 36
SWIDTH 500 0
DWIDTH 12 0
BBX 12 24 0 -6
BITMAP
0000
0000
0700
0700
3FE0
7FE0
7000
7000
7000
7C00
3F00
0F80
03C0
01E0
00E0
00E0
00E0
00E0
7FE0
7FC0
0700
0700
0700
0000
ENDCHAR
STARTCHAR char37
ENCODING 37
SWIDTH 500 0
DWIDTH 12 0
BBX 12 24 0 -6
BITMAP
0000
0000
0000
0000
0000
0000
0000
F820
F860
D8E0
F9C0
FB80
0700
0E00
1DF0
39F0
71B0
E1F0
C1F0
0000
0000
0000
0000
0000
ENDCHAR
STARTCHAR char38
ENCODING 38
SWIDTH 500 0
DWIDTH 12 0
BBX 12 24 0 -6
BITMAP
0000
0000
0000
0000
1F00
3F80
7380
7380
7380
3F00
3E60
7C60
EFE0
E7E0
E380
E380
E3E0
E7E0
7E60
7C60
0000
0000
0000
0000
ENDCHAR
STARTCHAR char39
ENCODING 39
SWIDTH 500 0
DWIDTH 12 0
BBX 12 24 0 -6
BITMAP
0000
0000
0000
0E00
0E00
0E00
0E00
0E00
0E00
0000
0000
0000
0000
0000
0000
0000
0000
0000
0000
0000
0000
0000
0000
0000
ENDCHAR
STARTCHAR char40
ENCODING 40
SWIDTH 500 0
DWIDTH 12 0
BBX 12 24 0 -6
BITMAP
0000
0000
0000
0000
0380
0780
0F00
1E00
1C00
1C00
1C00
1C00
1C00
1C00
1C00
1C00
1E00
0F00
0780
0380
0000
0000
0000
0000
ENDCHAR
STARTCHAR char41
ENCODING 41
SWIDTH 500 0
DWIDTH 12 0
BBX 12 24 0 -6
BITMAP
0000
0000
0000
0000
1C00
1E00
0F00
0780
0380
0380
0380
0380
0380
0380
0380
0380
0780
0F00
1E00
1C00
0000
0000
0000
0000
ENDCHAR
STARTCHAR char42
ENCODING 42
SWIDTH 500 0
DWIDTH 12 0
BBX 12 24 0 -6
BITMAP
0000
0000
0000
0000
0000
0000
0000
0000
0C00
CCC0
EDC0
7F80
3F00
3F00
7F80
EDC0
CCC0
0C00
0000
0000
0000
0000
0000
0000
ENDCHAR
STARTCHAR char43
ENCODING 43
SWIDTH 500 0
DWIDTH 12 0
BBX 12 24 0 -6
BITMAP
0000
0000
0000
0000
0000
0000
0000
0000
0000
0E00
0E00
0E00
7FC0
7FC0
0E00
0E00
0E00
0000
0000
0000
0000
0000
0000
0000
ENDCHAR
STARTCHAR char44
ENCODING 44
SWIDTH 500 0
DWIDTH 12 0
BBX 12 24 0 -6
BITMAP
0000
0000
0000
0000
0000
0000
0000
0000
0000
0000
0000
0000
0000
0000
0000
0E00
0E00
0E00
0E00
1E00
1C00
0000
0000
0000
ENDCHAR
STARTCHAR char45
ENCODING 45
SWIDTH 500 0
DWIDTH 12 0
BBX 12 24 0 -6
BITMAP
0000
0000
0000
0000
0000
0000
0000
0000
0000
0000
0000
0000
7FE0
7FE0
0000
0000
0000
0000
0000
0000
0000
0000
0000
0000
ENDCHAR
STARTCHAR char46
ENCODING 46
SWIDTH 500 0
DWIDTH 12 0
BBX 12 24 0 -6
BITMAP
0000
0000
0000
0000
0000
0000
0000
0000
0000
0000
0000
0000
0000
0000
0000
0000
0000
0E00
0E00
0E00
0000
0000
0000
0000
ENDCHAR
STARTCHAR char47
ENCODING 47
SWIDTH 500 0
DWIDTH 12 0
BBX 12 24 0 -6
BITMAP
0000
0000
0000
0000
0000
0000
0000
0060
00E0
01E0
03C0
0780
0F00
1E00
3C00
7800
7000
6000
4000
0000
0000
0000
0000
0000
ENDCHAR
STARTCHAR char48
ENCODING 48
SWIDTH 500 0
DWIDTH 12 0
BBX 12 24 0 -6
BITMAP
0000
0000
0000
0000
3FC0
7FE0
70E0
70E0
70E0
71E0
73E0
77E0
7EE0
7CE0
78E0
70E0
70E0
70E0
7FE0
3FC0
0000
0000
0000
0000
ENDCHAR
STARTCHAR char49
ENCODING 49
SWIDTH 500 0
DWIDTH 12 0
BBX 12 24 0 -6
BITMAP
0000
0000
0000
0000
0300
0700
0F00
1F00
1F00
0700
0700
0700
0700
0700
0700
0700
0700
0700
1FC0
1FC0
0000
0000
0000
0000
ENDCHAR
STARTCHAR char50
ENCODING 50
SWIDTH 500 0
DWIDTH 12 0
BBX 12 24 0 -6
BITMAP
0000
0000
0000
0000
3FC0
3FE0
00E0
00E0
00E0
00E0
0FE0
1FC0
3800
7000
7000
7000
7000
7000
7FE0
7FE0
0000
0000
0000
0000
ENDCHAR
STARTCHAR char51
ENCODING 51
SWIDTH 500 0
DWIDTH 12 0
BBX 12 24 0 -6
BITMAP
0000
0000
0000
0000
7FC0
7FE0
00E0
00E0
00E0
00E0
0FE0
0FC0
00E0
00E0
00E0
00E0
00E0
00E0
7FE0
7FC0
0000
0000
0000
0000
ENDCHAR
STARTCHAR char52
ENCODING 52
SWIDTH 500 0
DWIDTH 12 0
BBX 12 24 0 -6
BITMAP
0000
0000
0000
0000
0020
0060
00E0
30E0
70E0
70E0
70E0
70E0
7FE0
7FE0
00E0
00E0
00E0
00E0
00E0
00E0
0000
0000
0000
0000
ENDCHAR
STARTCHAR char53
ENCODING 53
SWIDTH 500 0
DWIDTH 12 0
BBX 12 24 0 -6
BITMAP
0000
0000
0000
0000
7FE0
7FE0
7000
7000
7000
7000
7FC0
7FE0
00E0
00E0
00E0
00E0
00E0
00E0
7FE0
7FC0
0000
0000
0000
0000
ENDCHAR
STARTCHAR char54
ENCODING 54
SWIDTH 500 0
DWIDTH 12 0
BBX 12 24 0 -6
BITMAP
0000
0000
0000
0000
0FE0
1FE0
3C00
7800
7000
7000
7FC0
7FE0
70E0
70E0
70E0
70E0
70E0
70E0
7FE0
3FC0
0000
0000
0000
0000
ENDCHAR
STARTCHAR char55
ENCODING 55
SWIDTH 500 0
DWIDTH 12 0
BBX 12 24 0 -6
BITMAP
0000
0000
0000
0000
7FE0
7FE0
00E0
00E0
00E0
00E0
01E0
03C0
0780
0F00
0E00
0E00
0E00
0E00
0E00
0E00
0000
0000
0000
0000
ENDCHAR
STARTCHAR char56
ENCODING 56
SWIDTH 500 0
DWIDTH 12 0
BBX 12 24 0 -6
BITMAP
0000
0000
0000
0000
3FC0
7FE0
70E0
70E0
70E0
70E0
7FE0
3FC0
70E0
70E0
70E0
70E0
70E0
70E0
7FE0
3FC0
0000
0000
0000
0000
ENDCHAR
STARTCHAR char57
ENCODING 57
SWIDTH 500 0
DWIDTH 12 0
BBX 12 24 0 -6
BITMAP
0000
0000
0000
0000
3FC0
7FE0
70E0
70E0
70E0
70E0
7FE0
3FE0
00E0
00E0
00E0
00E0
00E0
01E0
7FC0
7F80
0000
0000
0000
0000
ENDCHAR
STARTCHAR char58
ENCODING 58
SWIDTH 500 0
DWIDTH 12 0
BBX 12 24 0 -6
BITMAP
0000
0000
0000
0000
0000
0000
0000
0000
0700
0700
0700
0000
0000
0000
0000
0700
0700
0700
0000
0000
0000
0000
0000
0000
ENDCHAR
STARTCHAR char59
ENCODING 59
SWIDTH 500 0
DWIDTH 12 0
BBX 12 24 0 -6
BITMAP
0000
0000
0000
0000
0000
0000
0000
0000
0700
0700
0700
0000
0000
0000
0000
0700
0700
0700
0E00
0C00
0000
0000
0000
0000
ENDCHAR
STARTCHAR char60
ENCODING 60
SWIDTH 500 0
DWIDTH 12 0
BBX 12 24 0 -6
BITMAP
0000
0000
0000
0000
0000
0000
01E0
03C0
0780
0F00
1E00
3C00
7800
7800
3C00
1E00
0F00
0780
03C0
01E0
0000
0000
0000
0000
ENDCHAR
STARTCHAR char61
ENCODING 61
SWIDTH 500 0
DWIDTH 12 0
BBX 12 24 0 -6
BITMAP
0000
0000
0000
0000
0000
0000
0000
0000
0000
7FE0
7FE0
0000
0000
7FE0
7FE0
0000
0000
0000
0000
0000
0000
0000
0000
0000
ENDCHAR
STARTCHAR char62
ENCODING 62
SWIDTH 500 0
DWIDTH 12 0
BBX 12 24 0 -6
BITMAP
0000
0000
0000
0000
0000
0000
7800
3C00
1E00
0F00
0780
03C0
01E0
01E0
03C0
0780
0F00
1E00
3C00
7800
0000
0000
0000
0000
ENDCHAR
STARTCHAR char63
ENCODING 63
SWIDTH 500 0
DWIDTH 12 0
BBX 12 24 0 -6
BITMAP
0000
0000
0000
0000
7F80
7FC0
01E0
01E0
01E0
03C0
0780
0700
0700
0700
0700
0000
0000
0700
0700
0700
0000
0000
0000
0000
ENDCHAR
STARTCHAR char64
ENCODING 64
SWIDTH 500 0
DWIDTH 12 0
BBX 12 24 0 -6
BITMAP
0000
0000
0000
0000
1F00
3F80
71C0
E0E0
C060
CF60
DF60
DB60
DB60
DB60
DB60
DFC0
CD80
6000
3FE0
1FE0
0000
0000
0000
0000
ENDCHAR
STARTCHAR char65
ENCODING 65
SWIDTH 500 0
DWIDTH 12 0
BBX 12 24 0 -6
BITMAP
0000
0000
0000
0000
0FE0
1FE0
3CE0
78E0
70E0
70E0
70E0
70E0
7FE0
7FE0
70E0
70E0
70E0
70E0
70E0
70E0
0000
0000
0000
0000
ENDCHAR
STARTCHAR char66
ENCODING 66
SWIDTH 500 0
DWIDTH 12 0
BBX 12 24 0 -6
BITMAP
0000
0000
0000
0000
7F80
7FC0
70E0
70E0
70E0
70E0
7FE0
7FC0
70E0
70E0
70E0
70E0
70E0
70E0
7FC0
7F80
0000
0000
0000
0000
ENDCHAR
STARTCHAR char67
ENCODING 67
SWIDTH 500 0
DWIDTH 12 0
BBX 12 24 0 -6
BITMAP
0000
0000
0000
0000
0FE0
1FE0
3C00
7800
7000
7000
7000
7000
7000
7000
7000
7000
7800
3C00
1FE0
0FE0
0000
0000
0000
0000
ENDCHAR
STARTCHAR char68
ENCODING 68
SWIDTH 500 0
DWIDTH 12 0
BBX 12 24 0 -6
BITMAP
0000
0000
0000
0000
7F80
7FC0
70E0
70E0
70E0
70E0
70E0
70E0
70E0
70E0
70E0
70E0
70E0
70E0
7FC0
7F80
0000
0000
0000
0000
ENDCHAR
STARTCHAR char69
ENCODING 69
SWIDTH 500 0
DWIDTH 12 0
BBX 12 24 0 -6
BITMAP
0000
0000
0000
0000
7FE0
7FE0
7000
7000
7000
7000
7F80
7F80
7000
7000
7000
7000
7000
7000
7FE0
7FE0
0000
0000
0000
0000
ENDCHAR
STARTCHAR char70
ENCODING 70
SWIDTH 500 0
DWIDTH 12 0
BBX 12 24 0 -6
BITMAP
0000
0000
0000
0000
7FE0
7FE0
7000
7000
7000
7000
7F80
7F80
7000
7000
7000
7000
7000
7000
7000
7000
0000
0000
0000
0000
ENDCHAR
STARTCHAR char71
ENCODING 71
SWIDTH 500 0
DWIDTH 12 0
BBX 12 24 0 -6
BITMAP
0000
0000
0000
0000
3FE0
7FE0
7000
7000
7000
7000
77E0
77E0
70E0
70E0
70E0
70E0
70E0
70E0
7FE0
3FE0
0000
0000
0000
0000
ENDCHAR
STARTCHAR char72
ENCODING 72
SWIDTH 500 0
DWIDTH 12 0
BBX 12 24 0 -6
BITMAP
0000
0000
0000
0000
70E0
70E0
70E0
70E0
70E0
70E0
7FE0
7FE0
70E0
70E0
70E0
70E0
70E0
70E0
70E0
70E0
0000
0000
0000
0000
ENDCHAR
STARTCHAR char73
ENCODING 73
SWIDTH 500 0
DWIDTH 12 0
BBX 12 24 0 -6
BITMAP
0000
0000
0000
0000
1FC0
1FC0
0700
0700
0700
0700
0700
0700
0700
0700
0700
0700
0700
0700
1FC0
1FC0
0000
0000
0000
0000
ENDCHAR
STARTCHAR char74
ENCODING 74
SWIDTH 500 0
DWIDTH 12 0
BBX 12 24 0 -6
BITMAP
0000
0000
0000
0000
00E0
00E0
00E0
00E0
00E0
00E0
00E0
00E0
00E0
00E0
00E0
00E0
01E0
03C0
7F80
7F00
0000
0000
0000
0000
ENDCHAR
STARTCHAR char75
ENCODING 75
SWIDTH 500 0
DWIDTH 12 0
BBX 12 24 0 -6
BITMAP
0000
0000
0000
0000
70E0
70E0
70E0
70E0
70E0
71C0
7F80
7F80
71C0
70E0
70E0
70E0
70E0
70E0
70E0
70E0
0000
0000
0000
0000
ENDCHAR
STARTCHAR char76
ENCODING 76
SWIDTH 500 0
DWIDTH 12 0
BBX 12 24 0 -6
BITMAP
0000
0000
0000
0000
7000
7000
7000
7000
7000
7000
7000
7000
7000
7000
7000
7000
7000
7000
7FE0
7FE0
0000
0000
0000
0000
ENDCHAR
STARTCHAR char77
ENCODING 77
SWIDTH 500 0
DWIDTH 12 0
BBX 12 24 0 -6
BITMAP
0000
0000
0000
0000
70E0
70E0
70E0
79E0
7FE0
7FE0
7FE0
76E0
76E0
70E0
70E0
70E0
70E0
70E0
70E0
70E0
0000
0000
0000
0000
ENDCHAR
STARTCHAR char78
ENCODING 78
SWIDTH 500 0
DWIDTH 12 0
BBX 12 24 0 -6
BITMAP
0000
0000
0000
0000
7F80
7FC0
71E0
70E0
70E0
70E0
70E0
70E0
70E0
70E0
70E0
70E0
70E0
70E0
70E0
70E0
0000
0000
0000
0000
ENDCHAR
STARTCHAR char79
ENCODING 79
SWIDTH 500 0
DWIDTH 12 0
BBX 12 24 0 -6
BITMAP
0000
0000
0000
0000
3FC0
7FE0
70E0
70E0
70E0
70E0
70E0
70E0
70E0
70E0
70E0
70E0
70E0
70E0
7FE0
3FC0
0000
0000
0000
0000
ENDCHAR
STARTCHAR char80
ENCODING 80
SWIDTH 500 0
DWIDTH 12 0
BBX 12 24 0 -6
BITMAP
0000
0000
0000
0000
7F80
7FC0
70E0
70E0
70E0
71E0
7FC0
7F80
7000
7000
7000
7000
7000
7000
7000
7000
0000
0000
0000
0000
ENDCHAR
STARTCHAR char81
ENCODING 81
SWIDTH 500 0
DWIDTH 12 0
BBX 12 24 0 -6
BITMAP
0000
0000
0000
0000
3FC0
7FE0
70E0
70E0
70E0
70E0
70E0
70E0
70E0
70E0
70E0
70E0
76E0
77E0
7FC0
3FC0
00E0
0060
0000
0000
ENDCHAR
STARTCHAR char82
ENCODING 82
SWIDTH 500 0
DWIDTH 12 0
BBX 12 24 0 -6
BITMAP
0000
0000
0000
0000
7F80
7FC0
70E0
70E0
70E0
71E0
7FC0
7F80
7380
71C0
70E0
70E0
70E0
70E0
70E0
70E0
0000
0000
0000
0000
ENDCHAR
STARTCHAR char83
ENCODING 83
SWIDTH 500 0
DWIDTH 12 0
BBX 12 24 0 -6
BITMAP
0000
0000
0000
0000
1FE0
3FE0
7000
7000
7000
7C00
3F00
0F80
03C0
01E0
00E0
00E0
00E0
00E0
7FC0
7F80
0000
0000
0000
0000
ENDCHAR
STARTCHAR char84
ENCODING 84
SWIDTH 500 0
DWIDTH 12 0
BBX 12 24 0 -6
BITMAP
0000
0000
0000
0000
7FC0
7FC0
0E00
0E00
0E00
0E00
0E00
0E00
0E00
0E00
0E00
0E00
0E00
0E00
0E00
0E00
0000
0000
0000
0000
ENDCHAR
STARTCHAR char85
ENCODING 85
SWIDTH 500 0
DWIDTH 12 0
BBX 12 24 0 -6
BITMAP
0000
0000
0000
0000
70E0
70E0
70E0
70E0
70E0
70E0
70E0
70E0
70E0
70E0
70E0
70E0
70E0
70E0
7FE0
3FC0
0000
0000
0000
0000
ENDCHAR
STARTCHAR char86
ENCODING 86
SWIDTH 500 0
DWIDTH 12 0
BBX 12 24 0 -6
BITMAP
0000
0000
0000
0000
70E0
70E0
70E0
70E0
70E0
70E0
70E0
70E0
70E0
70E0
70E0
79E0
3FC0
1F80
0F00
0600
0000
0000
0000
0000
ENDCHAR
STARTCHAR char87
ENCODING 87
SWIDTH 500 0
DWIDTH 12 0
BBX 12 24 0 -6
BITMAP
0000
0000
0000
0000
70E0
70E0
70E0
70E0
70E0
70E0
76E0
76E0
76E0
76E0
76E0
7FE0
7FE0
79E0
39C0
1980
0000
0000
0000
0000
ENDCHAR
STARTCHAR char88
ENCODING 88
SWIDTH 500 0
DWIDTH 12 0
BBX 12 24 0 -6
BITMAP
0000
0000
0000
0000
70E0
70E0
70E0
70E0
70E0
39C0
1F80
1F80
39C0
79E0
70E0
70E0
70E0
70E0
70E0
70E0
0000
0000
0000
0000
ENDCHAR
STARTCHAR char89
ENCODING 89
SWIDTH 500 0
DWIDTH 12 0
BBX 12 24 0 -6
BITMAP
0000
0000
0000
0000
70E0
70E0
70E0
70E0
78E0
3FE0
1FE0
0FE0
00E0
00E0
00E0
00E0
00E0
00E0
7FE0
7FC0
0000
0000
0000
0000
ENDCHAR
STARTCHAR char90
ENCODING 90
SWIDTH 500 0
DWIDTH 12 0
BBX 12 24 0 -6
BITMAP
0000
0000
0000
0000
7FE0
7FE0
00E0
00E0
00E0
01E0
03C0
0780
0F00
1E00
3C00
7800
7000
7000
7FE0
7FE0
0000
0000
0000
0000
ENDCHAR
STARTCHAR char91
ENCODING 91
SWIDTH 500 0
DWIDTH 12 0
BBX 12 24 0 -6
BITMAP
0000
0000
0000
0000
1F80
1F80
1C00
1C00
1C00
1C00
1C00
1C00
1C00
1C00
1C00
1C00
1C00
1C00
1F80
1F80
0000
0000
0000
0000
ENDCHAR
STARTCHAR char92
ENCODING 92
SWIDTH 500 0
DWIDTH 12 0
BBX 12 24 0 -6
BITMAP
0000
0000
0000
0000
0000
0000
0000
4000
6000
7000
7800
7C00
3E00
1F00
0F80
07C0
03E0
01E0
00E0
0060
0000
0000
0000
0000
ENDCHAR
STARTCHAR char93
ENCODING 93
SWIDTH 500 0
DWIDTH 12 0
BBX 12 24 0 -6
BITMAP
0000
0000
0000
0000
1F80
1F80
0380
0380
0380
0380
0380
0380
0380
0380
0380
0380
0380
0380
1F80
1F80
0000
0000
0000
0000
ENDCHAR
STARTCHAR char94
ENCODING 94
SWIDTH 500 0
DWIDTH 12 0
BBX 12 24 0 -6
BITMAP
0000
0600
0F00
1F80
3FC0
79E0
70E0
6060
0000
0000
0000
0000
0000
0000
0000
0000
0000
0000
0000
0000
0000
0000
0000
0000
ENDCHAR
STARTCHAR char95
ENCODING 95
SWIDTH 500 0
DWIDTH 12 0
BBX 12 24 0 -6
BITMAP
0000
0000
0000
0000
0000
0000
0000
0000
0000
0000
0000
0000
0000
0000
0000
0000
0000
0000
0000
0000
0000
7FE0
7FE0
0000
ENDCHAR
STARTCHAR char96
ENCODING 96
SWIDTH 500 0
DWIDTH 12 0
BBX 12 24 0 -6
BITMAP
0000
0000
0000
1C00
1E00
0F00
0780
0380
0000
0000
0000
0000
0000
0000
0000
0000
0000
0000
0000
0000
0000
0000
0000
0000
ENDCHAR
STARTCHAR char97
ENCODING 97
SWIDTH 500 0
DWIDTH 12 0
BBX 12 24 0 -6
BITMAP
0000
0000
0000
0000
0000
0000
0000
0000
0000
3FC0
3FE0
00E0
3FE0
7FE0
70E0
70E0
70E0
70E0
7FE0
3FE0
0000
0000
0000
0000
ENDCHAR
STARTCHAR char98
ENCODING 98
SWIDTH 500 0
DWIDTH 12 0
BBX 12 24 0 -6
BITMAP
0000
0000
0000
0000
7000
7000
7000
7000
7000
7F80
7FC0
70E0
70E0
70E0
70E0
70E0
70E0
70E0
7FC0
7F80
0000
0000
0000
0000
ENDCHAR
STARTCHAR char99
ENCODING 99
SWIDTH 500 0
DWIDTH 12 0
BBX 12 24 0 -6
BITMAP
0000
0000
0000
0000
0000
0000
0000
0000
0000
3FE0
7FE0
7000
7000
7000
7000
7000
7000
7000
7FE0
3FE0
0000
0000
0000
0000
ENDCHAR
STARTCHAR char100
ENCODING 100
SWIDTH 500 0
DWIDTH 12 0
BBX 12 24 0 -6
BITMAP
0000
0000
0000
0000
00E0
00E0
00E0
00E0
00E0
1FE0
3FE0
70E0
70E0
70E0
70E0
70E0
70E0
70E0
3FE0
1FE0
0000
0000
0000
0000
ENDCHAR
STARTCHAR char101
ENCODING 101
SWIDTH 500 0
DWIDTH 12 0
BBX 12 24 0 -6
BITMAP
0000
0000
0000
0000
0000
0000
0000
0000
0000
3FC0
7FE0
70E0
70E0
7FE0
7FE0
7000
7000
7000
7FE0
3FE0
0000
0000
0000
0000
ENDCHAR
STARTCHAR char102
ENCODING 102
SWIDTH 500 0
DWIDTH 12 0
BBX 12 24 0 -6
BITMAP
0000
0000
0000
0000
0FE0
1FE0
1C00
1C00
1C00
1C00
7FC0
7FC0
1C00
1C00
1C00
1C00
1C00
1C00
1C00
1C00
0000
0000
0000
0000
ENDCHAR
STARTCHAR char103
ENCODING 103
SWIDTH 500 0
DWIDTH 12 0
BBX 12 24 0 -6
BITMAP
0000
0000
0000
0000
0000
0000
0000
0000
0000
3FE0
7FE0
70E0
70E0
70E0
70E0
70E0
70E0
70E0
7FE0
3FE0
00E0
00E0
7FE0
7FC0
ENDCHAR
STARTCHAR char104
ENCODING 104
SWIDTH 500 0
DWIDTH 12 0
BBX 12 24 0 -6
BITMAP
0000
0000
0000
0000
7000
7000
7000
7000
7000
7FC0
7FE0
70E0
70E0
70E0
70E0
70E0
70E0
70E0
70E0
70E0
0000
0000
0000
0000
ENDCHAR
STARTCHAR char105
ENCODING 105
SWIDTH 500 0
DWIDTH 12 0
BBX 12 24 0 -6
BITMAP
0000
0000
0000
0000
0000
0E00
0E00
0E00
0000
0000
0E00
0E00
0E00
0E00
0E00
0E00
0E00
0E00
0F80
0780
0000
0000
0000
0000
ENDCHAR
STARTCHAR char106
ENCODING 106
SWIDTH 500 0
DWIDTH 12 0
BBX 12 24 0 -6
BITMAP
0000
0000
0000
0000
01C0
01C0
01C0
0000
0000
01C0
01C0
01C0
01C0
01C0
01C0
01C0
01C0
01C0
01C0
01C0
01C0
03C0
7F80
7F00
ENDCHAR
STARTCHAR char107
ENCODING 107
SWIDTH 500 0
DWIDTH 12 0
BBX 12 24 0 -6
BITMAP
0000
0000
0000
0000
7000
7000
7000
7000
7000
70E0
71E0
73C0
7F80
7FC0
71C0
70E0
70E0
70E0
70E0
70E0
0000
0000
0000
0000
ENDCHAR
STARTCHAR char108
ENCODING 108
SWIDTH 500 0
DWIDTH 12 0
BBX 12 24 0 -6
BITMAP
0000
0000
0000
0000
0F00
0F00
0700
0700
0700
0700
0700
0700
0700
0700
0700
0700
0700
0700
0700
0700
0000
0000
0000
0000
ENDCHAR
STARTCHAR char109
ENCODING 109
SWIDTH 500 0
DWIDTH 12 0
BBX 12 24 0 -6
BITMAP
0000
0000
0000
0000
0000
0000
0000
0000
0000
7FC0
7FE0
76E0
76E0
76E0
76E0
76E0
76E0
76E0
70E0
70E0
0000
0000
0000
0000
ENDCHAR
STARTCHAR char110
ENCODING 110
SWIDTH 500 0
DWIDTH 12 0
BBX 12 24 0 -6
BITMAP
0000
0000
0000
0000
0000
0000
0000
0000
0000
7FC0
7FE0
70E0
70E0
70E0
70E0
70E0
70E0
70E0
70E0
70E0
0000
0000
0000
0000
ENDCHAR
STARTCHAR char111
ENCODING 111
SWIDTH 500 0
DWIDTH 12 0
BBX 12 24 0 -6
BITMAP
0000
0000
0000
0000
0000
0000
0000
0000
0000
3FC0
7FE0
70E0
70E0
70E0
70E0
70E0
70E0
70E0
7FE0
3FC0
0000
0000
0000
0000
ENDCHAR
STARTCHAR char112
ENCODING 112
SWIDTH 500 0
DWIDTH 12 0
BBX 12 24 0 -6
BITMAP
0000
0000
0000
0000
0000
0000
0000
0000
0000
7FC0
7FE0
70E0
70E0
70E0
70E0
70E0
70E0
70E0
7FE0
7FC0
7000
7000
7000
7000
ENDCHAR
STARTCHAR char113
ENCODING 113
SWIDTH 500 0
DWIDTH 12 0
BBX 12 24 0 -6
BITMAP
0000
0000
0000
0000
0000
0000
0000
0000
0000
3FE0
7FE0
70E0
70E0
70E0
70E0
70E0
70E0
70E0
7FE0
3FE0
00E0
00E0
00E0
00E0
ENDCHAR
STARTCHAR char114
ENCODING 114
SWIDTH 500 0
DWIDTH 12 0
BBX 12 24 0 -6
BITMAP
0000
0000
0000
0000
0000
0000
0000
0000
0000
77E0
7FE0
7C00
7000
7000
7000
7000
7000
7000
7000
7000
0000
0000
0000
0000
ENDCHAR
STARTCHAR char115
ENCODING 115
SWIDTH 500 0
DWIDTH 12 0
BBX 12 24 0 -6
BITMAP
0000
0000
0000
0000
0000
0000
0000
0000
0000
3FE0
7FE0
7000
7000
7FC0
3FE0
00E0
00E0
00E0
7FE0
7FC0
0000
0000
0000
0000
ENDCHAR
STARTCHAR char116
ENCODING 116
SWIDTH 500 0
DWIDTH 12 0
BBX 12 24 0 -6
BITMAP
0000
0000
0000
0000
0400
0C00
1C00
1C00
1C00
7FE0
7FE0
1C00
1C00
1C00
1C00
1C00
1C00
1C00
0FE0
07E0
0000
0000
0000
0000
ENDCHAR
STARTCHAR char117
ENCODING 117
SWIDTH 500 0
DWIDTH 12 0
BBX 12 24 0 -6
BITMAP
0000
0000
0000
0000
0000
0000
0000
0000
0000
70E0
70E0
70E0
70E0
70E0
70E0
70E0
70E0
70E0
7FE0
3FE0
0000
0000
0000
0000
ENDCHAR
STARTCHAR char118
ENCODING 118
SWIDTH 500 0
DWIDTH 12 0
BBX 12 24 0 -6
BITMAP
0000
0000
0000
0000
0000
0000
0000
0000
0000
70E0
70E0
70E0
70E0
70E0
70E0
70E0
70E0
39C0
1F80
0F00
0000
0000
0000
0000
ENDCHAR
STARTCHAR char119
ENCODING 119
SWIDTH 500 0
DWIDTH 12 0
BBX 12 24 0 -6
BITMAP
0000
0000
0000
0000
0000
0000
0000
0000
0000
70E0
70E0
70E0
70E0
76E0
76E0
76E0
76E0
7FE0
7FE0
39C0
0000
0000
0000
0000
ENDCHAR
STARTCHAR char120
ENCODING 120
SWIDTH 500 0
DWIDTH 12 0
BBX 12 24 0 -6
BITMAP
0000
0000
0000
0000
0000
0000
0000
0000
0000
70E0
70E0
39C0
1F80
0F00
0F00
0F00
1F80
39C0
70E0
70E0
0000
0000
0000
0000
ENDCHAR
STARTCHAR char121
ENCODING 121
SWIDTH 500 0
DWIDTH 12 0
BBX 12 24 0 -6
BITMAP
0000
0000
0000
0000
0000
0000
0000
0000
0000
70E0
70E0
70E0
70E0
70E0
70E0
70E0
70E0
70E0
7FE0
3FE0
00E0
01E0
7FC0
7F80
ENDCHAR
STARTCHAR char122
ENCODING 122
SWIDTH 500 0
DWIDTH 12 0
BBX 12 24 0 -6
BITMAP
0000
0000
0000
0000
0000
0000
0000
0000
0000
7FE0
7FE0
01C0
0380
0700
0E00
1C00
3800
7000
7FE0
7FE0
0000
0000
0000
0000
ENDCHAR
STARTCHAR char123
ENCODING 123
SWIDTH 500 0
DWIDTH 12 0
BBX 12 24 0 -6
BITMAP
0000
0000
0000
0000
03E0
07E0
0F00
0E00
0E00
0E00
0E00
7C00
7C00
0E00
0E00
0E00
0E00
0F00
07E0
03E0
0000
0000
0000
0000
ENDCHAR
STARTCHAR char124
ENCODING 124
SWIDTH 500 0
DWIDTH 12 0
BBX 12 24 0 -6
BITMAP
0000
0000
0000
0E00
0E00
0E00
0E00
0E00
0E00
0E00
0E00
0E00
0E00
0E00
0E00
0E00
0E00
0E00
0E00
0E00
0E00
0000
0000
0000
ENDCHAR
STARTCHAR char125
ENCODING 125
SWIDTH 500 0
DWIDTH 12 0
BBX 12 24 0 -6
BITMAP
0000
0000
0000
0000
7C00
7E00
0F00
0700
0700
0700
0700
03E0
03E0
0700
0700
0700
0700
0F00
7E00
7C00
0000
0000
0000
0000
ENDCHAR
STARTCHAR char126
ENCODING 126
SWIDTH 500 0
DWIDTH 12 0
BBX 12 24 0 -6
BITMAP
0000
0000
0000
3C60
7EE0
67C0
6380
0000
0000
0000
0000
0000
0000
0000
0000
0000
0000
0000
0000
0000
0000
0000
0000
0000
ENDCHAR
STARTCHAR char160
ENCODING 160
SWIDTH 500 0
DWIDTH 12 0
BBX 12 24 0 -6
BITMAP
0000
0000
0000
0000
0000
0000
0000
0000
0000
0000
0000
0000
0000
0000
0000
C060
FFE0
FFE0
0000
0000
0000
0000
0000
0000
ENDCHAR
STARTCHAR char161
ENCODING 161
SWIDTH 500 0
DWIDTH 12 0
BBX 12 24 0 -6
BITMAP
0000
0000
0000
0000
0F00
0F00
0F00
0F00
0000
0F00
0F00
0F00
0F00
0F00
0F00
0F00
0F00
0F00
0F00
0F00
0000
0000
0000
0000
ENDCHAR
STARTCHAR char162
ENCODING 162
SWIDTH 500 0
DWIDTH 12 0
BBX 12 24 0 -6
BITMAP
0000
0000
0000
0000
0F00
0F00
0F00
7FE0
7FE0
E000
E000
E000
E000
E000
E000
7FE0
7FE0
0F00
0F00
0F00
0000
0000
0000
0000
ENDCHAR
STARTCHAR char163
ENCODING 163
SWIDTH 500 0
DWIDTH 12 0
BBX 12 24 0 -6
BITMAP
0000
0000
0000
1F00
7F80
7B80
7980
7980
7800
FC00
FC00
7800
7800
7800
7800
7800
F9E0
F9E0
FF80
FF80
0000
0000
0000
0000
ENDCHAR
STARTCHAR char164
ENCODING 164
SWIDTH 500 0
DWIDTH 12 0
BBX 12 24 0 -6
BITMAP
0000
0000
0000
0000
0000
0000
0000
C060
C060
7F80
7F80
6180
C060
C060
C060
6180
7F80
7F80
C060
C060
0000
0000
0000
0000
ENDCHAR
STARTCHAR char165
ENCODING 165
SWIDTH 500 0
DWIDTH 12 0
BBX 12 24 0 -6
BITMAP
0000
0000
0000
0000
0000
0000
79E0
79E0
79E0
1F80
1F80
0F00
7FE0
7FE0
0F00
7FE0
7FE0
0F00
0F00
0F00
0000
0000
0000
0000
ENDCHAR
STARTCHAR char166
ENCODING 166
SWIDTH 500 0
DWIDTH 12 0
BBX 12 24 0 -6
BITMAP
0000
0000
0000
0F00
0F00
0F00
0F00
0F00
0F00
0F00
0F00
0000
0000
0F00
0F00
0F00
0F00
0F00
0F00
0F00
0F00
0000
0000
0000
ENDCHAR
STARTCHAR char167
ENCODING 167
SWIDTH 500 0
DWIDTH 12 0
BBX 12 24 0 -6
BITMAP
0000
0000
0000
7F80
FFE0
E1E0
7800
7F00
1F00
7B80
FBE0
E1E0
E1E0
FBE0
7B80
1F00
1F80
0380
E1E0
FFE0
7F80
0000
0000
0000
ENDCHAR
STARTCHAR char168
ENCODING 168
SWIDTH 500 0
DWIDTH 12 0
BBX 12 24 0 -6
BITMAP
0000
0000
0000
E1E0
E1E0
0000
0000
0000
0000
0000
0000
0000
0000
0000
0000
0000
0000
0000
0000
0000
0000
0000
0000
0000
ENDCHAR
STARTCHAR char169
ENCODING 169
SWIDTH 500 0
DWIDTH 12 0
BBX 12 24 0 -6
BITMAP
0000
0000
0000
0000
1F80
1F80
6060
EF70
CF30
D9B0
D9B0
D830
D9B0
DFB0
CF30
6060
7FE0
1F80
0000
0000
0000
0000
0000
0000
ENDCHAR
STARTCHAR char170
ENCODING 170
SWIDTH 500 0
DWIDTH 12 0
BBX 12 24 0 -6
BITMAP
0000
0000
0000
0000
1F80
1F80
7B80
7B80
7B80
1FE0
1FE0
0000
7FE0
7FE0
0000
0000
0000
0000
0000
0000
0000
0000
0000
0000
ENDCHAR
STARTCHAR char171
ENCODING 171
SWIDTH 500 0
DWIDTH 12 0
BBX 12 24 0 -6
BITMAP
0000
0000
0000
0000
0000
0000
0000
0000
0000
1DE0
7FE0
7B80
EF00
FF80
7B80
1DE0
1DE0
0000
0000
0000
0000
0000
0000
0000
ENDCHAR
STARTCHAR char172
ENCODING 172
SWIDTH 500 0
DWIDTH 12 0
BBX 12 24 0 -6
BITMAP
0000
0000
0000
0000
0000
0000
0000
0000
0000
0000
FFE0
FFE0
01E0
01E0
01E0
01E0
01E0
01E0
0000
0000
0000
0000
0000
0000
ENDCHAR
STARTCHAR char173
ENCODING 173
SWIDTH 500 0
DWIDTH 12 0
BBX 12 24 0 -6
BITMAP
0000
0000
0000
0000
0000
0000
0000
0000
0000
0000
0000
0000
7FE0
7FE0
0000
0000
0000
0000
0000
0000
0000
0000
0000
0000
ENDCHAR
STARTCHAR char174
ENCODING 174
SWIDTH 500 0
DWIDTH 12 0
BBX 12 24 0 -6
BITMAP
0000
0000
0000
0000
1F80
1F80
6060
FF70
DF30
D9B0
DFB0
DF30
D9B0
D9B0
D9B0
6060
7FE0
1F80
0000
0000
0000
0000
0000
0000
ENDCHAR
STARTCHAR char175
ENCODING 175
SWIDTH 500 0
DWIDTH 12 0
BBX 12 24 0 -6
BITMAP
0000
FFF0
FFF0
0000
0000
0000
0000
0000
0000
0000
0000
0000
0000
0000
0000
0000
0000
0000
0000
0000
0000
0000
0000
0000
ENDCHAR
STARTCHAR char176
ENCODING 176
SWIDTH 500 0
DWIDTH 12 0
BBX 12 24 0 -6
BITMAP
0000
0000
0000
1F00
3F80
3B80
3B80
3F80
1F00
0000
0000
0000
0000
0000
0000
0000
0000
0000
0000
0000
0000
0000
0000
0000
ENDCHAR
STARTCHAR char177
ENCODING 177
SWIDTH 500 0
DWIDTH 12 0
BBX 12 24 0 -6
BITMAP
0000
0000
0000
0000
0000
0000
0000
0000
0000
0F00
0F00
0F00
7FE0
7FE0
0F00
0F00
0F00
0000
7FE0
7FE0
0000
0000
0000
0000
ENDCHAR
STARTCHAR char178
ENCODING 178
SWIDTH 500 0
DWIDTH 12 0
BBX 12 24 0 -6
BITMAP
0000
0000
0000
7F80
7FE0
01E0
0F80
1F80
1C00
7800
7FE0
7FE0
0000
0000
0000
0000
0000
0000
0000
0000
0000
0000
0000
0000
ENDCHAR
STARTCHAR char179
ENCODING 179
SWIDTH 500 0
DWIDTH 12 0
BBX 12 24 0 -6
BITMAP
0000
0000
0000
7F80
7FE0
01E0
1F80
1FE0
01E0
01E0
7FE0
7F80
0000
0000
0000
0000
0000
0000
0000
0000
0000
0000
0000
0000
ENDCHAR
STARTCHAR char180
ENCODING 180
SWIDTH 500 0
DWIDTH 12 0
BBX 12 24 0 -6
BITMAP
0000
0000
0000
0F00
1F00
1C00
7800
7800
0000
0000
0000
0000
0000
0000
0000
0000
0000
0000
0000
0000
0000
0000
0000
0000
ENDCHAR
STARTCHAR char181
ENCODING 181
SWIDTH 500 0
DWIDTH 12 0
BBX 12 24 0 -6
BITMAP
0000
0000
0000
0000
0000
0000
0000
0000
0000
E380
E380
E380
E380
E380
E380
E380
E380
E380
FDE0
FDE0
E000
E000
E000
E000
ENDCHAR
STARTCHAR char182
ENCODING 182
SWIDTH 500 0
DWIDTH 12 0
BBX 12 24 0 -6
BITMAP
0000
0000
0000
0000
7FF0
7FF0
EDE0
EDE0
EDE0
7DE0
7DE0
1DE0
1DE0
1DE0
1DE0
1DE0
1DE0
1DE0
1DE0
1DE0
0000
0000
0000
0000
ENDCHAR
STARTCHAR char183
ENCODING 183
SWIDTH 500 0
DWIDTH 12 0
BBX 12 24 0 -6
BITMAP
0000
0000
0000
0000
0000
0000
0000
0000
0000
0000
0F00
0F00
0F00
0F00
0000
0000
0000
0000
0000
0000
0000
0000
0000
0000
ENDCHAR
STARTCHAR char184
ENCODING 184
SWIDTH 500 0
DWIDTH 12 0
BBX 12 24 0 -6
BITMAP
0000
0000
0000
0000
0000
0000
0000
0000
0000
0000
0000
0000
0000
0000
0000
0000
0000
0000
0000
0F00
0F00
7B80
7F80
1F00
ENDCHAR
STARTCHAR char185
ENCODING 185
SWIDTH 500 0
DWIDTH 12 0
BBX 12 24 0 -6
BITMAP
0000
0000
0000
0F00
1F00
1F00
0F00
0F00
0F00
0F00
1F80
1F80
0000
0000
0000
0000
0000
0000
0000
0000
0000
0000
0000
0000
ENDCHAR
STARTCHAR char186
ENCODING 186
SWIDTH 500 0
DWIDTH 12 0
BBX 12 24 0 -6
BITMAP
0000
0000
0000
0000
1F00
1F00
7B80
7B80
7B80
1F00
1F00
0000
7F80
7F80
0000
0000
0000
0000
0000
0000
0000
0000
0000
0000
ENDCHAR
STARTCHAR char187
ENCODING 187
SWIDTH 500 0
DWIDTH 12 0
BBX 12 24 0 -6
BITMAP
0000
0000
0000
0000
0000
0000
0000
0000
0000
EF00
FF80
7B80
1DE0
7FE0
7B80
EF00
EF00
0000
0000
0000
0000
0000
0000
0000
ENDCHAR
STARTCHAR char188
ENCODING 188
SWIDTH 500 0
DWIDTH 12 0
BBX 12 24 0 -6
BITMAP
0000
7800
7800
F800
F800
7800
7800
FDE0
FDE0
0380
0F80
0F00
1C00
7DE0
79E0
E3E0
EFE0
0F60
1FF0
1FF0
01E0
01E0
01E0
0000
ENDCHAR
STARTCHAR char189
ENCODING 189
SWIDTH 500 0
DWIDTH 12 0
BBX 12 24 0 -6
BITMAP
0000
7800
7800
F800
F800
7800
7800
FDE0
FDE0
0380
0F80
0F00
1C00
7FE0
7BE0
EF70
EFF0
01E0
0380
0FF0
0FF0
0000
0000
0000
ENDCHAR
STARTCHAR char190
ENCODING 190
SWIDTH 500 0
DWIDTH 12 0
BBX 12 24 0 -6
BITMAP
0000
7C00
7C00
EF00
FF00
1C00
EF00
FFE0
7DE0
0380
0F80
0F00
1C00
7DE0
79E0
E3E0
EFE0
0F60
1FF0
1FF0
01E0
01E0
01E0
0000
ENDCHAR
STARTCHAR char191
ENCODING 191
SWIDTH 500 0
DWIDTH 12 0
BBX 12 24 0 -6
BITMAP
0000
0000
0000
0000
1C00
1C00
1C00
1C00
0000
1C00
1C00
1C00
7800
F800
E000
E1E0
E1E0
E1E0
7F80
7F80
0000
0000
0000
0000
ENDCHAR
STARTCHAR char128
ENCODING 192
SWIDTH 500 0
DWIDTH 12 0
BBX 12 24 0 -6
BITMAP
1C00
1F00
0F00
0000
1FE0
1FE0
79E0
F9E0
E1E0
E1E0
E1E0
E1E0
FFE0
FFE0
E1E0
E1E0
E1E0
E1E0
E1E0
E1E0
0000
0000
0000
0000
ENDCHAR
STARTCHAR char129
ENCODING 193
SWIDTH 500 0
DWIDTH 12 0
BBX 12 24 0 -6
BITMAP
0380
0F80
0F00
0000
1FE0
1FE0
79E0
F9E0
E1E0
E1E0
E1E0
E1E0
FFE0
FFE0
E1E0
E1E0
E1E0
E1E0
E1E0
E1E0
0000
0000
0000
0000
ENDCHAR
STARTCHAR char130
ENCODING 194
SWIDTH 500 0
DWIDTH 12 0
BBX 12 24 0 -6
BITMAP
0C00
1F00
1B00
0000
1FE0
1FE0
79E0
F9E0
E1E0
E1E0
E1E0
E1E0
FFE0
FFE0
E1E0
E1E0
E1E0
E1E0
E1E0
E1E0
0000
0000
0000
0000
ENDCHAR
STARTCHAR char131
ENCODING 195
SWIDTH 500 0
DWIDTH 12 0
BBX 12 24 0 -6
BITMAP
1D80
7F80
6F00
0000
1FE0
1FE0
79E0
F9E0
E1E0
E1E0
E1E0
E1E0
FFE0
FFE0
E1E0
E1E0
E1E0
E1E0
E1E0
E1E0
0000
0000
0000
0000
ENDCHAR
STARTCHAR char132
ENCODING 196
SWIDTH 500 0
DWIDTH 12 0
BBX 12 24 0 -6
BITMAP
0000
0CC0
0CC0
0000
0FE0
1FE0
3CE0
78E0
70E0
70E0
70E0
70E0
7FE0
7FE0
70E0
70E0
70E0
70E0
70E0
70E0
0000
0000
0000
0000
ENDCHAR
STARTCHAR char133
ENCODING 197
SWIDTH 500 0
DWIDTH 12 0
BBX 12 24 0 -6
BITMAP
0C00
1F00
1B00
0C00
1FE0
1FE0
79E0
F9E0
E1E0
E1E0
E1E0
E1E0
FFE0
FFE0
E1E0
E1E0
E1E0
E1E0
E1E0
E1E0
0000
0000
0000
0000
ENDCHAR
STARTCHAR char134
ENCODING 198
SWIDTH 500 0
DWIDTH 12 0
BBX 12 24 0 -6
BITMAP
0000
0000
0000
0000
1FE0
1FE0
7F00
FF00
EF00
EF00
FFE0
FFE0
EF00
EF00
EF00
EF00
EF00
EF00
EFE0
EFE0
0000
0000
0000
0000
ENDCHAR
STARTCHAR char135
ENCODING 199
SWIDTH 500 0
DWIDTH 12 0
BBX 12 24 0 -6
BITMAP
0000
0000
0000
0000
1FE0
1FE0
7800
F800
E000
E000
E000
E000
E000
E000
E000
E000
F800
7800
1FE0
1FE0
0F00
1F00
1F00
0000
ENDCHAR
STARTCHAR char136
ENCODING 200
SWIDTH 500 0
DWIDTH 12 0
BBX 12 24 0 -6
BITMAP
1C00
1F00
0F00
0000
FFE0
FFE0
E000
E000
E000
E000
FF00
FF00
E000
E000
E000
E000
E000
E000
FFE0
FFE0
0000
0000
0000
0000
ENDCHAR
STARTCHAR char137
ENCODING 201
SWIDTH 500 0
DWIDTH 12 0
BBX 12 24 0 -6
BITMAP
0380
0F80
0F00
0000
FFE0
FFE0
E000
E000
E000
E000
FF00
FF00
E000
E000
E000
E000
E000
E000
FFE0
FFE0
0000
0000
0000
0000
ENDCHAR
STARTCHAR char138
ENCODING 202
SWIDTH 500 0
DWIDTH 12 0
BBX 12 24 0 -6
BITMAP
0C00
1F00
1B00
0000
FFE0
FFE0
E000
E000
E000
E000
FF00
FF00
E000
E000
E000
E000
E000
E000
FFE0
FFE0
0000
0000
0000
0000
ENDCHAR
STARTCHAR char139
ENCODING 203
SWIDTH 500 0
DWIDTH 12 0
BBX 12 24 0 -6
BITMAP
0000
E1E0
E1E0
0000
FFE0
FFE0
E000
E000
E000
E000
FF00
FF00
E000
E000
E000
E000
E000
E000
FFE0
FFE0
0000
0000
0000
0000
ENDCHAR
STARTCHAR char140
ENCODING 204
SWIDTH 500 0
DWIDTH 12 0
BBX 12 24 0 -6
BITMAP
1C00
1F00
0F00
0000
0F00
0F00
0F00
0F00
0F00
0F00
0F00
0F00
0F00
0F00
0F00
0F00
0F00
0F00
0F00
0F00
0000
0000
0000
0000
ENDCHAR
STARTCHAR char141
ENCODING 205
SWIDTH 500 0
DWIDTH 12 0
BBX 12 24 0 -6
BITMAP
0380
0F80
0F00
0000
0F00
0F00
0F00
0F00
0F00
0F00
0F00
0F00
0F00
0F00
0F00
0F00
0F00
0F00
0F00
0F00
0000
0000
0000
0000
ENDCHAR
STARTCHAR char142
ENCODING 206
SWIDTH 500 0
DWIDTH 12 0
BBX 12 24 0 -6
BITMAP
0F00
1F80
1980
0000
0F00
0F00
0F00
0F00
0F00
0F00
0F00
0F00
0F00
0F00
0F00
0F00
0F00
0F00
0F00
0F00
0000
0000
0000
0000
ENDCHAR
STARTCHAR char143
ENCODING 207
SWIDTH 500 0
DWIDTH 12 0
BBX 12 24 0 -6
BITMAP
0000
79E0
79E0
0000
0F00
0F00
0F00
0F00
0F00
0F00
0F00
0F00
0F00
0F00
0F00
0F00
0F00
0F00
0F00
0F00
0000
0000
0000
0000
ENDCHAR
STARTCHAR char144
ENCODING 208
SWIDTH 500 0
DWIDTH 12 0
BBX 12 24 0 -6
BITMAP
0000
0000
0000
0000
7F00
7F00
7B80
7BE0
79E0
79E0
FDE0
FDE0
79E0
79E0
79E0
79E0
7BE0
7B80
7F00
7F00
0000
0000
0000
0000
ENDCHAR
STARTCHAR char145
ENCODING 209
SWIDTH 500 0
DWIDTH 12 0
BBX 12 24 0 -6
BITMAP
1D80
7F80
6F00
0000
FF80
FF80
E1E0
E1E0
E1E0
E1E0
E1E0
E1E0
E1E0
E1E0
E1E0
E1E0
E1E0
E1E0
E1E0
E1E0
0000
0000
0000
0000
ENDCHAR
STARTCHAR char146
ENCODING 210
SWIDTH 500 0
DWIDTH 12 0
BBX 12 24 0 -6
BITMAP
7800
7C00
1C00
0000
7F80
7F80
E1E0
E1E0
E1E0
E1E0
E1E0
E1E0
E1E0
E1E0
E1E0
E1E0
E1E0
E1E0
7F80
7F80
0000
0000
0000
0000
ENDCHAR
STARTCHAR char147
ENCODING 211
SWIDTH 500 0
DWIDTH 12 0
BBX 12 24 0 -6
BITMAP
0380
0F80
0F00
0000
7F80
7F80
E1E0
E1E0
E1E0
E1E0
E1E0
E1E0
E1E0
E1E0
E1E0
E1E0
E1E0
E1E0
7F80
7F80
0000
0000
0000
0000
ENDCHAR
STARTCHAR char148
ENCODING 212
SWIDTH 500 0
DWIDTH 12 0
BBX 12 24 0 -6
BITMAP
0C00
1F00
1B00
0000
7F80
7F80
E1E0
E1E0
E1E0
E1E0
E1E0
E1E0
E1E0
E1E0
E1E0
E1E0
E1E0
E1E0
7F80
7F80
0000
0000
0000
0000
ENDCHAR
STARTCHAR char149
ENCODING 213
SWIDTH 500 0
DWIDTH 12 0
BBX 12 24 0 -6
BITMAP
1D80
7F80
6F00
0000
7F80
7F80
E1E0
E1E0
E1E0
E1E0
E1E0
E1E0
E1E0
E1E0
E1E0
E1E0
E1E0
E1E0
7F80
7F80
0000
0000
0000
0000
ENDCHAR
STARTCHAR char150
ENCODING 214
SWIDTH 500 0
DWIDTH 12 0
BBX 12 24 0 -6
BITMAP
0000
1980
1980
0000
3FC0
7FE0
70E0
70E0
70E0
70E0
70E0
70E0
70E0
70E0
70E0
70E0
70E0
70E0
7FE0
3FC0
0000
0000
0000
0000
ENDCHAR
STARTCHAR char151
ENCODING 215
SWIDTH 500 0
DWIDTH 12 0
BBX 12 24 0 -6
BITMAP
0000
0000
0000
0000
0000
0000
0000
0000
0000
E1E0
FBE0
7B80
1F00
1F00
1F00
7B80
FBE0
E1E0
0000
0000
0000
0000
0000
0000
ENDCHAR
STARTCHAR char152
ENCODING 216
SWIDTH 500 0
DWIDTH 12 0
BBX 12 24 0 -6
BITMAP
0000
0000
0000
0180
7F80
7F80
E3E0
E3E0
E3E0
EDE0
EDE0
EDE0
EDE0
EDE0
EDE0
F9E0
F9E0
F9E0
7F80
7F80
6000
0000
0000
0000
ENDCHAR
STARTCHAR char153
ENCODING 217
SWIDTH 500 0
DWIDTH 12 0
BBX 12 24 0 -6
BITMAP
1C00
1F00
0F00
0000
E1E0
E1E0
E1E0
E1E0
E1E0
E1E0
E1E0
E1E0
E1E0
E1E0
E1E0
E1E0
E1E0
E1E0
7F80
7F80
0000
0000
0000
0000
ENDCHAR
STARTCHAR char154
ENCODING 218
SWIDTH 500 0
DWIDTH 12 0
BBX 12 24 0 -6
BITMAP
0F00
1F00
1C00
0000
E1E0
E1E0
E1E0
E1E0
E1E0
E1E0
E1E0
E1E0
E1E0
E1E0
E1E0
E1E0
E1E0
E1E0
7F80
7F80
0000
0000
0000
0000
ENDCHAR
STARTCHAR char155
ENCODING 219
SWIDTH 500 0
DWIDTH 12 0
BBX 12 24 0 -6
BITMAP
0C00
1F00
1B00
0000
E1E0
E1E0
E1E0
E1E0
E1E0
E1E0
E1E0
E1E0
E1E0
E1E0
E1E0
E1E0
E1E0
E1E0
7F80
7F80
0000
0000
0000
0000
ENDCHAR
STARTCHAR char156
ENCODING 220
SWIDTH 500 0
DWIDTH 12 0
BBX 12 24 0 -6
BITMAP
0000
6180
6180
0000
E1C0
E1C0
E1C0
E1C0
E1C0
E1C0
E1C0
E1C0
E1C0
E1C0
E1C0
E1C0
E1C0
E1C0
FFC0
7F80
0000
0000
0000
0000
ENDCHAR
STARTCHAR char157
ENCODING 221
SWIDTH 500 0
DWIDTH 12 0
BBX 12 24 0 -6
BITMAP
0380
0F80
0F00
0000
79E0
79E0
79E0
79E0
79E0
79E0
79E0
79E0
1F80
1F80
0F00
0F00
0F00
0F00
0F00
0F00
0000
0000
0000
0000
ENDCHAR
STARTCHAR char158
ENCODING 222
SWIDTH 500 0
DWIDTH 12 0
BBX 12 24 0 -6
BITMAP
0000
0000
0000
0000
7800
7800
7800
7F80
7F80
79E0
79E0
79E0
79E0
79E0
79E0
7F80
7F80
7800
7800
7800
0000
0000
0000
0000
ENDCHAR
STARTCHAR char159
ENCODING 223
SWIDTH 500 0
DWIDTH 12 0
BBX 12 24 0 -6
BITMAP
0000
0000
0000
0000
7F00
7F00
E380
E380
E380
E380
EF80
EF00
E380
E3E0
E1E0
E1E0
E1E0
E1E0
E380
E380
E000
0000
0000
0000
ENDCHAR
STARTCHAR char224
ENCODING 224
SWIDTH 500 0
DWIDTH 12 0
BBX 12 24 0 -6
BITMAP
0000
0000
0000
7800
7C00
1C00
0F00
0F00
0000
7F80
7FE0
01E0
7FE0
FFE0
E1E0
E1E0
E1E0
E1E0
7FE0
7FE0
0000
0000
0000
0000
ENDCHAR
STARTCHAR char225
ENCODING 225
SWIDTH 500 0
DWIDTH 12 0
BBX 12 24 0 -6
BITMAP
0000
0000
0000
0F00
1F00
1C00
7800
7800
0000
7F80
7FE0
01E0
7FE0
FFE0
E1E0
E1E0
E1E0
E1E0
7FE0
7FE0
0000
0000
0000
0000
ENDCHAR
STARTCHAR char226
ENCODING 226
SWIDTH 500 0
DWIDTH 12 0
BBX 12 24 0 -6
BITMAP
0000
0000
0000
0C00
1F00
1F00
7B80
7B80
0000
7F80
7FE0
01E0
7FE0
FFE0
E1E0
E1E0
E1E0
E1E0
7FE0
7FE0
0000
0000
0000
0000
ENDCHAR
STARTCHAR char227
ENCODING 227
SWIDTH 500 0
DWIDTH 12 0
BBX 12 24 0 -6
BITMAP
0000
0000
0000
0000
7DE0
7DE0
EF80
EF80
0000
7F80
7FE0
01E0
7FE0
FFE0
E1E0
E1E0
E1E0
E1E0
7FE0
7FE0
0000
0000
0000
0000
ENDCHAR
STARTCHAR char228
ENCODING 228
SWIDTH 500 0
DWIDTH 12 0
BBX 12 24 0 -6
BITMAP
0000
0000
0000
0000
0000
1980
1980
0000
0000
3FC0
3FE0
00E0
3FE0
7FE0
70E0
70E0
70E0
70E0
7FE0
3FE0
0000
0000
0000
0000
ENDCHAR
STARTCHAR char229
ENCODING 229
SWIDTH 500 0
DWIDTH 12 0
BBX 12 24 0 -6
BITMAP
0000
0000
0000
1F00
7F80
7B80
1F00
1F00
0000
7F80
7FE0
01E0
7FE0
FFE0
E1E0
E1E0
E1E0
E1E0
7FE0
7FE0
0000
0000
0000
0000
ENDCHAR
STARTCHAR char230
ENCODING 230
SWIDTH 500 0
DWIDTH 12 0
BBX 12 24 0 -6
BITMAP
0000
0000
0000
0000
0000
0000
0000
0000
0000
FB80
FFE0
1DE0
1DE0
7FE0
7FE0
EF00
EF00
EF00
7BE0
7BE0
0000
0000
0000
0000
ENDCHAR
STARTCHAR char231
ENCODING 231
SWIDTH 500 0
DWIDTH 12 0
BBX 12 24 0 -6
BITMAP
0000
0000
0000
0000
0000
0000
0000
0000
0000
7FE0
FFE0
E000
E000
E000
E000
E000
E000
E000
7FE0
7FE0
0F00
1F00
1F00
0000
ENDCHAR
STARTCHAR char232
ENCODING 232
SWIDTH 500 0
DWIDTH 12 0
BBX 12 24 0 -6
BITMAP
0000
0000
0000
3000
3800
1C00
0E00
0600
0000
7F80
FFE0
E1E0
E1E0
FFE0
FFE0
E000
E000
E000
7FE0
7FE0
0000
0000
0000
0000
ENDCHAR
STARTCHAR char233
ENCODING 233
SWIDTH 500 0
DWIDTH 12 0
BBX 12 24 0 -6
BITMAP
0000
0000
0000
0180
0380
0700
0E00
0C00
0000
7F80
FFE0
E1E0
E1E0
FFE0
FFE0
E000
E000
E000
7FE0
7FE0
0000
0000
0000
0000
ENDCHAR
STARTCHAR char234
ENCODING 234
SWIDTH 500 0
DWIDTH 12 0
BBX 12 24 0 -6
BITMAP
0000
0000
0000
0600
0F00
1F80
39C0
30C0
0000
7F80
FFE0
E1E0
E1E0
FFE0
FFE0
E000
E000
E000
7FE0
7FE0
0000
0000
0000
0000
ENDCHAR
STARTCHAR char235
ENCODING 235
SWIDTH 500 0
DWIDTH 12 0
BBX 12 24 0 -6
BITMAP
0000
0000
0000
0000
0000
3180
3180
0000
0000
7F80
FFE0
E1E0
E1E0
FFE0
FFE0
E000
E000
E000
7FE0
7FE0
0000
0000
0000
0000
ENDCHAR
STARTCHAR char236
ENCODING 236
SWIDTH 500 0
DWIDTH 12 0
BBX 12 24 0 -6
BITMAP
0000
0000
0000
7800
7C00
1C00
0F00
0F00
0000
0F00
0F00
0F00
0F00
0F00
0F00
0F00
0F00
0F00
0F00
0F00
0000
0000
0000
0000
ENDCHAR
STARTCHAR char237
ENCODING 237
SWIDTH 500 0
DWIDTH 12 0
BBX 12 24 0 -6
BITMAP
0000
0000
0000
01E0
03E0
0380
0F00
0F00
0000
0F00
0F00
0F00
0F00
0F00
0F00
0F00
0F00
0F00
0F00
0F00
0000
0000
0000
0000
ENDCHAR
STARTCHAR char238
ENCODING 238
SWIDTH 500 0
DWIDTH 12 0
BBX 12 24 0 -6
BITMAP
0000
0000
0000
0F00
1F80
1F80
79E0
79E0
0000
0F00
0F00
0F00
0F00
0F00
0F00
0F00
0F00
0F00
0F00
0F00
0000
0000
0000
0000
ENDCHAR
STARTCHAR char239
ENCODING 239
SWIDTH 500 0
DWIDTH 12 0
BBX 12 24 0 -6
BITMAP
0000
0000
0000
0000
79E0
79E0
0000
0000
0000
0F00
0F00
0F00
0F00
0F00
0F00
0F00
0F00
0F00
0F00
0F00
0000
0000
0000
0000
ENDCHAR
STARTCHAR char240
ENCODING 240
SWIDTH 500 0
DWIDTH 12 0
BBX 12 24 0 -6
BITMAP
0000
0000
0000
0000
1D80
1D80
0F00
1F80
1B80
01E0
1FE0
1FE0
79E0
79E0
79E0
79E0
79E0
79E0
1F80
1F80
0000
0000
0000
0000
ENDCHAR
STARTCHAR char241
ENCODING 241
SWIDTH 500 0
DWIDTH 12 0
BBX 12 24 0 -6
BITMAP
0000
0000
0000
0000
7DE0
7DE0
EF80
EF80
0000
FF80
FFE0
E1E0
E1E0
E1E0
E1E0
E1E0
E1E0
E1E0
E1E0
E1E0
0000
0000
0000
0000
ENDCHAR
STARTCHAR char242
ENCODING 242
SWIDTH 500 0
DWIDTH 12 0
BBX 12 24 0 -6
BITMAP
0000
0000
0000
7800
7C00
1C00
0F00
0F00
0000
7F80
FFE0
E1E0
E1E0
E1E0
E1E0
E1E0
E1E0
E1E0
7F80
7F80
0000
0000
0000
0000
ENDCHAR
STARTCHAR char243
ENCODING 243
SWIDTH 500 0
DWIDTH 12 0
BBX 12 24 0 -6
BITMAP
0000
0000
0000
0380
0F80
0F00
1C00
1C00
0000
7F80
FFE0
E1E0
E1E0
E1E0
E1E0
E1E0
E1E0
E1E0
7F80
7F80
0000
0000
0000
0000
ENDCHAR
STARTCHAR char244
ENCODING 244
SWIDTH 500 0
DWIDTH 12 0
BBX 12 24 0 -6
BITMAP
0000
0000
0000
0C00
1F00
1F00
7B80
7B80
0000
7F80
FFE0
E1E0
E1E0
E1E0
E1E0
E1E0
E1E0
E1E0
7F80
7F80
0000
0000
0000
0000
ENDCHAR
STARTCHAR char245
ENCODING 245
SWIDTH 500 0
DWIDTH 12 0
BBX 12 24 0 -6
BITMAP
0000
0000
0000
0000
1D80
1D80
6F00
6F00
0000
7F80
FFE0
E1E0
E1E0
E1E0
E1E0
E1E0
E1E0
E1E0
7F80
7F80
0000
0000
0000
0000
ENDCHAR
STARTCHAR char246
ENCODING 246
SWIDTH 500 0
DWIDTH 12 0
BBX 12 24 0 -6
BITMAP
0000
0000
0000
0000
0000
1980
1980
0000
0000
3FC0
7FE0
70E0
70E0
70E0
70E0
70E0
70E0
70E0
7FE0
3FC0
0000
0000
0000
0000
ENDCHAR
STARTCHAR char247
ENCODING 247
SWIDTH 500 0
DWIDTH 12 0
BBX 12 24 0 -6
BITMAP
0000
0000
0000
0000
0000
0000
0000
0000
0000
0F00
0F00
0000
7FE0
7FE0
0000
0F00
0F00
0000
0000
0000
0000
0000
0000
0000
ENDCHAR
STARTCHAR char248
ENCODING 248
SWIDTH 500 0
DWIDTH 12 0
BBX 12 24 0 -6
BITMAP
0000
0000
0000
0000
0000
0000
0000
0000
0000
7F80
FFE0
E3E0
EFE0
FFE0
FDE0
F9E0
F9E0
E1E0
7F80
7F80
0000
0000
0000
0000
ENDCHAR
STARTCHAR char249
ENCODING 249
SWIDTH 500 0
DWIDTH 12 0
BBX 12 24 0 -6
BITMAP
0000
0000
0000
7800
7C00
1C00
0F00
0F00
0000
E1E0
E1E0
E1E0
E1E0
E1E0
E1E0
E1E0
E1E0
E1E0
7FE0
7FE0
0000
0000
0000
0000
ENDCHAR
STARTCHAR char250
ENCODING 250
SWIDTH 500 0
DWIDTH 12 0
BBX 12 24 0 -6
BITMAP
0000
0000
0000
0F00
1F00
1C00
7800
7800
0000
E1E0
E1E0
E1E0
E1E0
E1E0
E1E0
E1E0
E1E0
E1E0
7FE0
7FE0
0000
0000
0000
0000
ENDCHAR
STARTCHAR char251
ENCODING 251
SWIDTH 500 0
DWIDTH 12 0
BBX 12 24 0 -6
BITMAP
0000
0000
0000
1C00
7F00
7F00
E380
E380
0000
E1E0
E1E0
E1E0
E1E0
E1E0
E1E0
E1E0
E1E0
E1E0
7FE0
7FE0
0000
0000
0000
0000
ENDCHAR
STARTCHAR char252
ENCODING 252
SWIDTH 500 0
DWIDTH 12 0
BBX 12 24 0 -6
BITMAP
0000
0000
0000
0000
0000
30C0
30C0
0000
0000
70E0
70E0
70E0
70E0
70E0
70E0
70E0
70E0
70E0
7FE0
3FE0
0000
0000
0000
0000
ENDCHAR
STARTCHAR char253
ENCODING 253
SWIDTH 500 0
DWIDTH 12 0
BBX 12 24 0 -6
BITMAP
0000
0000
0000
0380
0F80
0F00
1C00
1C00
0000
E1E0
E1E0
E1E0
E1E0
E1E0
E1E0
E1E0
E1E0
E1E0
7FE0
7FE0
01E0
0380
FF80
FF00
ENDCHAR
STARTCHAR char254
ENCODING 254
SWIDTH 500 0
DWIDTH 12 0
BBX 12 24 0 -6
BITMAP
0000
0000
0000
0000
7800
7800
7800
7800
7800
7F80
7FE0
79E0
79E0
79E0
79E0
79E0
79E0
79E0
7F80
7F80
7800
7800
7800
7800
ENDCHAR
STARTCHAR char255
ENCODING 255
SWIDTH 500 0
DWIDTH 12 0
BBX 12 24 0 -6
BITMAP
0000
0000
0000
0000
E1E0
E1E0
0000
0000
0000
E1E0
E1E0
E1E0
E1E0
E1E0
E1E0
E1E0
E1E0
E1E0
7FE0
7FE0
01E0
0380
7F80
7F00
ENDCHAR
STARTCHAR char256
ENCODING 256
SWIDTH 500 0
DWIDTH 12 0
BBX 12 24 0 -6
BITMAP
0000
1FE0
1FE0
0000
0F80
0F80
1860
7870
6030
6030
6030
6030
7FF0
7FF0
6030
6030
6030
6030
0000
0000
0000
0000
0000
0000
ENDCHAR
STARTCHAR char257
ENCODING 257
SWIDTH 500 0
DWIDTH 12 0
BBX 12 24 0 -6
BITMAP
0000
0000
0000
0000
1FE0
1FE0
0000
1FE0
1FE0
0030
0030
0030
1FF0
7FF0
6030
6070
7FF0
1FB0
0000
0000
0000
0000
0000
0000
ENDCHAR
STARTCHAR char258
ENCODING 258
SWIDTH 500 0
DWIDTH 12 0
BBX 12 24 0 -6
BITMAP
0000
1860
1860
0F80
0F80
0000
0F80
1FE0
1860
6030
6030
6030
7FF0
7FF0
6030
6030
6030
6030
0000
0000
0000
0000
0000
0000
ENDCHAR
STARTCHAR char259
ENCODING 259
SWIDTH 500 0
DWIDTH 12 0
BBX 12 24 0 -6
BITMAP
0000
0000
0000
1860
1FE0
0F80
0000
1FE0
1FE0
0030
0030
0030
1FF0
7FF0
6030
6070
7FF0
1FB0
0000
0000
0000
0000
0000
0000
ENDCHAR
STARTCHAR char260
ENCODING 260
SWIDTH 500 0
DWIDTH 12 0
BBX 12 24 0 -6
BITMAP
0000
0000
0000
0300
0F80
0D80
1860
7870
6030
6030
6030
6030
7FF0
7FF0
6030
6030
6030
6030
0030
0030
0030
0000
0000
0000
ENDCHAR
STARTCHAR char261
ENCODING 261
SWIDTH 500 0
DWIDTH 12 0
BBX 12 24 0 -6
BITMAP
0000
0000
0000
0000
0000
0000
0000
1FE0
1FE0
0030
0030
0030
1FF0
7FF0
6030
6070
7FF0
1FB0
0030
0030
0030
0000
0000
0000
ENDCHAR
STARTCHAR char262
ENCODING 262
SWIDTH 500 0
DWIDTH 12 0
BBX 12 24 0 -6
BITMAP
0060
01E0
0180
0300
0300
0000
1FE0
7FF0
6030
6000
6000
6000
6000
6000
6000
6030
7FF0
1FE0
0000
0000
0000
0000
0000
0000
ENDCHAR
STARTCHAR char263
ENCODING 263
SWIDTH 500 0
DWIDTH 12 0
BBX 12 24 0 -6
BITMAP
0000
0060
0060
0180
0380
0300
0000
1FE0
1FE0
6030
6030
6000
6000
6000
6000
6030
7FF0
1FE0
0000
0000
0000
0000
0000
0000
ENDCHAR
STARTCHAR char264
ENCODING 264
SWIDTH 500 0
DWIDTH 12 0
BBX 12 24 0 -6
BITMAP
0300
0F80
0D80
1860
1860
0000
1FE0
7FF0
6030
6030
6030
6000
6000
6000
6000
6030
7FF0
1FE0
0000
0000
0000
0000
0000
0000
ENDCHAR
STARTCHAR char265
ENCODING 265
SWIDTH 500 0
DWIDTH 12 0
BBX 12 24 0 -6
BITMAP
0000
0300
0300
0D80
1DE0
1860
0000
1FE0
1FE0
6030
6030
6000
6000
6000
6000
6030
7FF0
1FE0
0000
0000
0000
0000
0000
0000
ENDCHAR
STARTCHAR char266
ENCODING 266
SWIDTH 500 0
DWIDTH 12 0
BBX 12 24 0 -6
BITMAP
0000
0F00
0F00
0000
1FE0
1FE0
6030
6030
6000
6000
6000
6000
6000
6000
6000
6030
7FF0
1FE0
0000
0000
0000
0000
0000
0000
ENDCHAR
STARTCHAR char267
ENCODING 267
SWIDTH 500 0
DWIDTH 12 0
BBX 12 24 0 -6
BITMAP
0000
0000
0000
0000
0F00
0F00
0000
1FE0
1FE0
6030
6030
6000
6000
6000
6000
6030
7FF0
1FE0
0000
0000
0000
0000
0000
0000
ENDCHAR
STARTCHAR char268
ENCODING 268
SWIDTH 500 0
DWIDTH 12 0
BBX 12 24 0 -6
BITMAP
1860
1DE0
0D80
0300
0300
0000
1FE0
7FF0
6030
6000
6000
6000
6000
6000
6000
6030
7FF0
1FE0
0000
0000
0000
0000
0000
0000
ENDCHAR
STARTCHAR char269
ENCODING 269
SWIDTH 500 0
DWIDTH 12 0
BBX 12 24 0 -6
BITMAP
0000
1860
1860
0D80
0F80
0300
0000
1FE0
1FE0
6030
6030
6000
6000
6000
6000
6030
7FF0
1FE0
0000
0000
0000
0000
0000
0000
ENDCHAR
STARTCHAR char270
ENCODING 270
SWIDTH 500 0
DWIDTH 12 0
BBX 12 24 0 -6
BITMAP
1860
1DE0
0D80
0300
7F80
7F80
6060
6070
6030
6030
6030
6030
6030
6030
6030
6060
7FE0
7F80
0000
0000
0000
0000
0000
0000
ENDCHAR
STARTCHAR char271
ENCODING 271
SWIDTH 500 0
DWIDTH 12 0
BBX 12 24 0 -6
BITMAP
0000
1860
1860
0DB0
0FB0
0330
0030
1FB0
1FB0
6070
6070
6030
6030
6030
6030
6070
7FF0
1FB0
0000
0000
0000
0000
0000
0000
ENDCHAR
STARTCHAR char272
ENCODING 272
SWIDTH 500 0
DWIDTH 12 0
BBX 12 24 0 -6
BITMAP
0000
0000
0000
7F80
7FE0
6060
6030
6030
6030
F830
F830
6030
6030
6030
6030
6060
7FE0
7F80
0000
0000
0000
0000
0000
0000
ENDCHAR
STARTCHAR char273
ENCODING 273
SWIDTH 500 0
DWIDTH 12 0
BBX 12 24 0 -6
BITMAP
0000
0000
0000
0030
01F0
01F0
0030
1FB0
1FB0
6070
6070
6030
6030
6030
6030
6070
7FF0
1FB0
0000
0000
0000
0000
0000
0000
ENDCHAR
STARTCHAR char274
ENCODING 274
SWIDTH 500 0
DWIDTH 12 0
BBX 12 24 0 -6
BITMAP
0000
1FE0
1FE0
0000
7FF0
7FF0
6000
6000
6000
6000
7F80
7F80
6000
6000
6000
6000
7FF0
7FF0
0000
0000
0000
0000
0000
0000
ENDCHAR
STARTCHAR char275
ENCODING 275
SWIDTH 500 0
DWIDTH 12 0
BBX 12 24 0 -6
BITMAP
0000
0000
0000
0000
1FE0
1FE0
0000
1FE0
1FE0
6030
6030
6030
7FF0
7FF0
6000
6000
7FE0
1FE0
0000
0000
0000
0000
0000
0000
ENDCHAR
STARTCHAR char276
ENCODING 276
SWIDTH 500 0
DWIDTH 12 0
BBX 12 24 0 -6
BITMAP
0000
1860
1860
0F80
0F80
0000
7FF0
7FF0
6000
6000
7F80
7F80
6000
6000
6000
6000
7FF0
7FF0
0000
0000
0000
0000
0000
0000
ENDCHAR
STARTCHAR char277
ENCODING 277
SWIDTH 500 0
DWIDTH 12 0
BBX 12 24 0 -6
BITMAP
0000
0000
0000
1860
1FE0
0F80
0000
1FE0
1FE0
6030
6030
6030
7FF0
7FF0
6000
6000
7FE0
1FE0
0000
0000
0000
0000
0000
0000
ENDCHAR
STARTCHAR char278
ENCODING 278
SWIDTH 500 0
DWIDTH 12 0
BBX 12 24 0 -6
BITMAP
0000
0F00
0F00
0000
7FF0
7FF0
6000
6000
6000
6000
7F80
7F80
6000
6000
6000
6000
7FF0
7FF0
0000
0000
0000
0000
0000
0000
ENDCHAR
STARTCHAR char279
ENCODING 279
SWIDTH 500 0
DWIDTH 12 0
BBX 12 24 0 -6
BITMAP
0000
0000
0000
0000
0F00
0F00
0000
1FE0
1FE0
6030
6030
6030
7FF0
7FF0
6000
6000
7FE0
1FE0
0000
0000
0000
0000
0000
0000
ENDCHAR
STARTCHAR char280
ENCODING 280
SWIDTH 500 0
DWIDTH 12 0
BBX 12 24 0 -6
BITMAP
0000
0000
0000
7FF0
7FF0
6000
6000
6000
6000
7F80
7F80
6000
6000
6000
6000
6000
7FF0
7FF0
0300
0380
0380
0000
0000
0000
ENDCHAR
STARTCHAR char281
ENCODING 281
SWIDTH 500 0
DWIDTH 12 0
BBX 12 24 0 -6
BITMAP
0000
0000
0000
0000
0000
0000
0000
1FE0
1FE0
6030
6030
6030
7FF0
7FF0
6000
6000
7FE0
1FE0
0300
0380
0380
0000
0000
0000
ENDCHAR
STARTCHAR char282
ENCODING 282
SWIDTH 500 0
DWIDTH 12 0
BBX 12 24 0 -6
BITMAP
1860
1DE0
0D80
0300
0300
0000
7FF0
7FF0
6000
6000
7F80
7F80
6000
6000
6000
6000
7FF0
7FF0
0000
0000
0000
0000
0000
0000
ENDCHAR
STARTCHAR char283
ENCODING 283
SWIDTH 500 0
DWIDTH 12 0
BBX 12 24 0 -6
BITMAP
0000
1860
1860
0D80
0F80
0300
0000
1FE0
1FE0
6030
6030
6030
7FF0
7FF0
6000
6000
7FE0
1FE0
0000
0000
0000
0000
0000
0000
ENDCHAR
STARTCHAR char284
ENCODING 284
SWIDTH 500 0
DWIDTH 12 0
BBX 12 24 0 -6
BITMAP
0300
0F80
0D80
1860
1860
0000
1FE0
7FF0
6030
6000
6000
6000
61F0
61F0
6030
6030
7FF0
1FE0
0000
0000
0000
0000
0000
0000
ENDCHAR
STARTCHAR char285
ENCODING 285
SWIDTH 500 0
DWIDTH 12 0
BBX 12 24 0 -6
BITMAP
0000
0300
0300
0D80
1DE0
1860
0000
1FB0
1FB0
6060
6060
6060
6060
7FE0
1F80
6000
7FE0
1FE0
6030
6030
6030
1FE0
1FE0
0000
ENDCHAR
STARTCHAR char286
ENCODING 286
SWIDTH 500 0
DWIDTH 12 0
BBX 12 24 0 -6
BITMAP
0000
1860
1860
0F80
0F80
0000
1FE0
7FF0
6030
6000
6000
6000
61F0
61F0
6030
6030
7FF0
1FE0
0000
0000
0000
0000
0000
0000
ENDCHAR
STARTCHAR char287
ENCODING 287
SWIDTH 500 0
DWIDTH 12 0
BBX 12 24 0 -6
BITMAP
0000
0000
0000
1860
1FE0
0F80
0000
1FB0
1FB0
6060
6060
6060
6060
7FE0
1F80
6000
7FE0
1FE0
6030
6030
6030
1FE0
1FE0
0000
ENDCHAR
STARTCHAR char288
ENCODING 288
SWIDTH 500 0
DWIDTH 12 0
BBX 12 24 0 -6
BITMAP
0000
0F00
0F00
0000
1FE0
1FE0
6030
6030
6000
6000
61F0
61F0
6030
6030
6030
6030
7FF0
1FE0
0000
0000
0000
0000
0000
0000
ENDCHAR
STARTCHAR char289
ENCODING 289
SWIDTH 500 0
DWIDTH 12 0
BBX 12 24 0 -6
BITMAP
0000
0000
0000
0000
0F00
0F00
0000
1FB0
1FB0
6060
6060
6060
6060
7FE0
1F80
6000
7FE0
1FE0
6030
6030
6030
1FE0
1FE0
0000
ENDCHAR
STARTCHAR char290
ENCODING 290
SWIDTH 500 0
DWIDTH 12 0
BBX 12 24 0 -6
BITMAP
0000
0000
0000
1FE0
7FF0
6030
6000
6000
6000
6000
61F0
61F0
6030
6030
6030
6030
7FF0
1FE0
0380
1B80
1980
0F00
0F00
0000
ENDCHAR
STARTCHAR char291
ENCODING 291
SWIDTH 500 0
DWIDTH 12 0
BBX 12 24 0 -6
BITMAP
0000
0180
0180
0300
0380
0380
0000
1FB0
1FB0
6060
6060
6060
6060
7FE0
1F80
6000
7FE0
1FE0
6030
7FF0
1FE0
0000
0000
0000
ENDCHAR
STARTCHAR char292
ENCODING 292
SWIDTH 500 0
DWIDTH 12 0
BBX 12 24 0 -6
BITMAP
0300
0F80
0D80
1860
1860
0000
6030
6030
6030
6030
7FF0
7FF0
6030
6030
6030
6030
6030
6030
0000
0000
0000
0000
0000
0000
ENDCHAR
STARTCHAR char293
ENCODING 293
SWIDTH 500 0
DWIDTH 12 0
BBX 12 24 0 -6
BITMAP
0180
03E0
0360
6C30
6C30
6000
6000
6FE0
6FE0
7830
7830
6030
6030
6030
6030
6030
6030
6030
0000
0000
0000
0000
0000
0000
ENDCHAR
STARTCHAR char294
ENCODING 294
SWIDTH 500 0
DWIDTH 12 0
BBX 12 24 0 -6
BITMAP
0000
0000
0000
6030
6030
6030
FFF0
FFF0
6030
7FF0
7FF0
6030
6030
6030
6030
6030
6030
6030
0000
0000
0000
0000
0000
0000
ENDCHAR
STARTCHAR char295
ENCODING 295
SWIDTH 500 0
DWIDTH 12 0
BBX 12 24 0 -6
BITMAP
0000
0000
0000
6000
FC00
FC00
6000
6FE0
6FE0
7830
7830
6030
6030
6030
6030
6030
6030
6030
0000
0000
0000
0000
0000
0000
ENDCHAR
STARTCHAR char296
ENCODING 296
SWIDTH 500 0
DWIDTH 12 0
BBX 12 24 0 -6
BITMAP
0000
1C30
1C30
63E0
63E0
0000
1FE0
1FE0
0300
0300
0300
0300
0300
0300
0300
0300
1FE0
1FE0
0000
0000
0000
0000
0000
0000
ENDCHAR
STARTCHAR char297
ENCODING 297
SWIDTH 500 0
DWIDTH 12 0
BBX 12 24 0 -6
BITMAP
0000
0000
0000
1C60
7FE0
6380
0000
1F00
1F00
0300
0300
0300
0300
0300
0300
0300
1FE0
1FE0
0000
0000
0000
0000
0000
0000
ENDCHAR
STARTCHAR char298
ENCODING 298
SWIDTH 500 0
DWIDTH 12 0
BBX 12 24 0 -6
BITMAP
0000
1FE0
1FE0
0000
1FE0
1FE0
0300
0300
0300
0300
0300
0300
0300
0300
0300
0300
1FE0
1FE0
0000
0000
0000
0000
0000
0000
ENDCHAR
STARTCHAR char299
ENCODING 299
SWIDTH 500 0
DWIDTH 12 0
BBX 12 24 0 -6
BITMAP
0000
0000
0000
0000
7FE0
7FE0
0000
1F00
1F00
0300
0300
0300
0300
0300
0300
0300
1FE0
1FE0
0000
0000
0000
0000
0000
0000
ENDCHAR
STARTCHAR char300
ENCODING 300
SWIDTH 500 0
DWIDTH 12 0
BBX 12 24 0 -6
BITMAP
0000
1860
1860
0F80
0F80
0000
1FE0
1FE0
0300
0300
0300
0300
0300
0300
0300
0300
1FE0
1FE0
0000
0000
0000
0000
0000
0000
ENDCHAR
STARTCHAR char301
ENCODING 301
SWIDTH 500 0
DWIDTH 12 0
BBX 12 24 0 -6
BITMAP
0000
0000
0000
1860
1FE0
0F80
0000
1F00
1F00
0300
0300
0300
0300
0300
0300
0300
1FE0
1FE0
0000
0000
0000
0000
0000
0000
ENDCHAR
STARTCHAR char302
ENCODING 302
SWIDTH 500 0
DWIDTH 12 0
BBX 12 24 0 -6
BITMAP
0000
0000
0000
1FE0
1FE0
0300
0300
0300
0300
0300
0300
0300
0300
0300
0300
0300
1FE0
1FE0
0C00
0F00
0F00
0000
0000
0000
ENDCHAR
STARTCHAR char303
ENCODING 303
SWIDTH 500 0
DWIDTH 12 0
BBX 12 24 0 -6
BITMAP
0000
0000
0000
0000
0F00
0F00
0000
1F00
1F00
0300
0300
0300
0300
0300
0300
0300
1FE0
1FE0
0C00
0F00
0F00
0000
0000
0000
ENDCHAR
STARTCHAR char304
ENCODING 304
SWIDTH 500 0
DWIDTH 12 0
BBX 12 24 0 -6
BITMAP
0000
0380
0380
0000
1FE0
1FE0
0300
0300
0300
0300
0300
0300
0300
0300
0300
0300
1FE0
1FE0
0000
0000
0000
0000
0000
0000
ENDCHAR
STARTCHAR char305
ENCODING 305
SWIDTH 500 0
DWIDTH 12 0
BBX 12 24 0 -6
BITMAP
0000
0000
0000
0000
0000
0000
0000
1F00
1F00
0300
0300
0300
0300
0300
0300
0300
1FE0
1FE0
0000
0000
0000
0000
0000
0000
ENDCHAR
STARTCHAR char306
ENCODING 306
SWIDTH 500 0
DWIDTH 12 0
BBX 12 24 0 -6
BITMAP
0000
0000
0000
7DF0
7DF0
1830
1830
1830
1830
1830
1830
1830
1830
1830
1830
1B30
7FF0
7DE0
0000
0000
0000
0000
0000
0000
ENDCHAR
STARTCHAR char307
ENCODING 307
SWIDTH 500 0
DWIDTH 12 0
BBX 12 24 0 -6
BITMAP
0000
0000
0000
7870
7870
0000
0000
79F0
79F0
1830
1830
1830
1830
1830
1830
1830
FF30
FF30
0030
0C30
0C30
03E0
03E0
0000
ENDCHAR
STARTCHAR char308
ENCODING 308
SWIDTH 500 0
DWIDTH 12 0
BBX 12 24 0 -6
BITMAP
0180
03E0
0360
0C30
0C30
0000
03F0
03F0
0060
0060
0060
0060
0060
0060
0060
6060
7FE0
1F80
0000
0000
0000
0000
0000
0000
ENDCHAR
STARTCHAR char309
ENCODING 309
SWIDTH 500 0
DWIDTH 12 0
BBX 12 24 0 -6
BITMAP
0000
0180
0180
0360
0F70
0C30
0000
03E0
03E0
0060
0060
0060
0060
0060
0060
0060
6060
6060
6060
6060
6060
1F80
1F80
0000
ENDCHAR
STARTCHAR char310
ENCODING 310
SWIDTH 500 0
DWIDTH 12 0
BBX 12 24 0 -6
BITMAP
0000
0000
0000
6030
6070
6060
6180
6380
6300
7C00
7C00
6C00
6300
6380
6180
6060
6070
6030
1C00
DC00
CC00
7800
7800
0000
ENDCHAR
STARTCHAR char311
ENCODING 311
SWIDTH 500 0
DWIDTH 12 0
BBX 12 24 0 -6
BITMAP
0000
0000
0000
6000
6000
6000
6000
6030
6030
61E0
6FE0
6F00
7800
7F00
6F00
61E0
61F0
6030
1C00
DC00
CC00
7800
7800
0000
ENDCHAR
STARTCHAR char312
ENCODING 312
SWIDTH 500 0
DWIDTH 12 0
BBX 12 24 0 -6
BITMAP
0000
0000
0000
0000
0000
0000
0000
6030
6030
6060
61E0
6180
7F00
7F80
6180
6060
6070
6030
0000
0000
0000
0000
0000
0000
ENDCHAR
STARTCHAR char313
ENCODING 313
SWIDTH 500 0
DWIDTH 12 0
BBX 12 24 0 -6
BITMAP
0060
01E0
0180
0300
0300
0000
6000
6000
6000
6000
6000
6000
6000
6000
6000
6000
7FF0
7FF0
0000
0000
0000
0000
0000
0000
ENDCHAR
STARTCHAR char314
ENCODING 314
SWIDTH 500 0
DWIDTH 12 0
BBX 12 24 0 -6
BITMAP
0060
01E0
0180
0300
0300
0000
1F00
1F00
0300
0300
0300
0300
0300
0300
0300
0300
1FE0
1FE0
0000
0000
0000
0000
0000
0000
ENDCHAR
STARTCHAR char315
ENCODING 315
SWIDTH 500 0
DWIDTH 12 0
BBX 12 24 0 -6
BITMAP
0000
0000
0000
6000
6000
6000
6000
6000
6000
6000
6000
6000
6000
6000
6000
6000
7FF0
7FF0
0380
1B80
1980
0F00
0F00
0000
ENDCHAR
STARTCHAR char316
ENCODING 316
SWIDTH 500 0
DWIDTH 12 0
BBX 12 24 0 -6
BITMAP
0000
0000
0000
1F00
1F00
0300
0300
0300
0300
0300
0300
0300
0300
0300
0300
0300
1FE0
1FE0
0380
1B80
1980
0F00
0F00
0000
ENDCHAR
STARTCHAR char317
ENCODING 317
SWIDTH 500 0
DWIDTH 12 0
BBX 12 24 0 -6
BITMAP
0000
1860
1860
0D80
0F80
0300
6000
6000
6000
6000
6000
6000
6000
6000
6000
6000
7FF0
7FF0
0000
0000
0000
0000
0000
0000
ENDCHAR
STARTCHAR char318
ENCODING 318
SWIDTH 500 0
DWIDTH 12 0
BBX 12 24 0 -6
BITMAP
1860
1DE0
0D80
0300
0300
0000
1F00
1F00
0300
0300
0300
0300
0300
0300
0300
0300
1FE0
1FE0
0000
0000
0000
0000
0000
0000
ENDCHAR
STARTCHAR char319
ENCODING 319
SWIDTH 500 0
DWIDTH 12 0
BBX 12 24 0 -6
BITMAP
0000
0000
0000
6000
6000
6000
6000
6180
6180
6180
6180
6000
6000
6000
6000
6000
7FF0
7FF0
0000
0000
0000
0000
0000
0000
ENDCHAR
STARTCHAR char320
ENCODING 320
SWIDTH 500 0
DWIDTH 12 0
BBX 12 24 0 -6
BITMAP
0000
0000
0000
7C00
7C00
0C00
0C00
0C60
0C60
0C60
0C60
0C00
0C00
0C00
0C00
0C00
7F80
7F80
0000
0000
0000
0000
0000
0000
ENDCHAR
STARTCHAR char321
ENCODING 321
SWIDTH 500 0
DWIDTH 12 0
BBX 12 24 0 -6
BITMAP
0000
0000
0000
6000
6000
6000
6000
6C00
6C00
7800
F800
E000
6000
6000
6000
6000
7FF0
7FF0
0000
0000
0000
0000
0000
0000
ENDCHAR
STARTCHAR char322
ENCODING 322
SWIDTH 500 0
DWIDTH 12 0
BBX 12 24 0 -6
BITMAP
0000
0000
0000
1F00
1F00
0300
0300
0360
0360
0380
0F80
0F00
0300
0300
0300
0300
1FE0
1FE0
0000
0000
0000
0000
0000
0000
ENDCHAR
STARTCHAR char323
ENCODING 323
SWIDTH 500 0
DWIDTH 12 0
BBX 12 24 0 -6
BITMAP
0000
0060
0060
0180
0380
0300
6030
6030
6030
7830
7C30
6C30
6330
63B0
61B0
6070
6070
6030
0000
0000
0000
0000
0000
0000
ENDCHAR
STARTCHAR char324
ENCODING 324
SWIDTH 500 0
DWIDTH 12 0
BBX 12 24 0 -6
BITMAP
0000
0060
0060
0180
0380
0300
0000
6FE0
6FE0
7830
7830
6030
6030
6030
6030
6030
6030
6030
0000
0000
0000
0000
0000
0000
ENDCHAR
STARTCHAR char325
ENCODING 325
SWIDTH 500 0
DWIDTH 12 0
BBX 12 24 0 -6
BITMAP
0000
0000
0000
6030
6030
6030
7830
7C30
6C30
6330
63B0
61B0
6070
6070
6030
6030
6030
6030
1800
DC00
CC00
7800
7800
0000
ENDCHAR
STARTCHAR char326
ENCODING 326
SWIDTH 500 0
DWIDTH 12 0
BBX 12 24 0 -6
BITMAP
0000
0000
0000
0000
0000
0000
0000
6FE0
6FE0
7830
7830
6030
6030
6030
6030
6030
6030
6030
1800
DC00
CC00
7800
7800
0000
ENDCHAR
STARTCHAR char327
ENCODING 327
SWIDTH 500 0
DWIDTH 12 0
BBX 12 24 0 -6
BITMAP
1860
1DE0
0D80
0300
6330
6030
6030
7830
7830
6C30
6F30
6330
61B0
61F0
6070
6030
6030
6030
0000
0000
0000
0000
0000
0000
ENDCHAR
STARTCHAR char328
ENCODING 328
SWIDTH 500 0
DWIDTH 12 0
BBX 12 24 0 -6
BITMAP
0000
1860
1860
0D80
0F80
0300
0000
6FE0
6FE0
7830
7830
6030
6030
6030
6030
6030
6030
6030
0000
0000
0000
0000
0000
0000
ENDCHAR
STARTCHAR char329
ENCODING 329
SWIDTH 500 0
DWIDTH 12 0
BBX 12 24 0 -6
BITMAP
0000
E000
E000
6000
E000
C000
0000
6FE0
6FE0
7830
7830
6030
6030
6030
6030
6030
6030
6030
0000
0000
0000
0000
0000
0000
ENDCHAR
STARTCHAR char330
ENCODING 330
SWIDTH 500 0
DWIDTH 12 0
BBX 12 24 0 -6
BITMAP
0000
0000
0000
6030
6030
6030
7830
7C30
6C30
6330
63B0
61B0
6070
6070
6030
6030
6030
6030
0330
03F0
01E0
0000
0000
0000
ENDCHAR
STARTCHAR char331
ENCODING 331
SWIDTH 500 0
DWIDTH 12 0
BBX 12 24 0 -6
BITMAP
0000
0000
0000
0000
0000
0000
0000
6FE0
6FE0
7830
7830
6030
6030
6030
6030
6030
6030
6030
0330
03F0
01E0
0000
0000
0000
ENDCHAR
STARTCHAR char332
ENCODING 332
SWIDTH 500 0
DWIDTH 12 0
BBX 12 24 0 -6
BITMAP
0000
0000
0000
1FE0
1FE0
0000
1FE0
7FF0
6030
6030
6030
6030
6030
6030
6030
6030
7FF0
1FE0
0000
0000
0000
0000
0000
0000
ENDCHAR
STARTCHAR char333
ENCODING 333
SWIDTH 500 0
DWIDTH 12 0
BBX 12 24 0 -6
BITMAP
0000
0000
0000
0000
1FE0
1FE0
0000
1FE0
1FE0
6030
6030
6030
6030
6030
6030
6030
7FF0
1FE0
0000
0000
0000
0000
0000
0000
ENDCHAR
STARTCHAR char334
ENCODING 334
SWIDTH 500 0
DWIDTH 12 0
BBX 12 24 0 -6
BITMAP
0000
1860
1860
0F80
0F80
0000
1FE0
7FF0
6030
6030
6030
6030
6030
6030
6030
6030
7FF0
1FE0
0000
0000
0000
0000
0000
0000
ENDCHAR
STARTCHAR char335
ENCODING 335
SWIDTH 500 0
DWIDTH 12 0
BBX 12 24 0 -6
BITMAP
0000
0000
0000
1860
1FE0
0F80
0000
1FE0
1FE0
6030
6030
6030
6030
6030
6030
6030
7FF0
1FE0
0000
0000
0000
0000
0000
0000
ENDCHAR
STARTCHAR char336
ENCODING 336
SWIDTH 500 0
DWIDTH 12 0
BBX 12 24 0 -6
BITMAP
0000
0C30
0C30
1860
1860
0000
1FE0
7FF0
6030
6030
6030
6030
6030
6030
6030
6030
7FF0
1FE0
0000
0000
0000
0000
0000
0000
ENDCHAR
STARTCHAR char337
ENCODING 337
SWIDTH 500 0
DWIDTH 12 0
BBX 12 24 0 -6
BITMAP
0000
0000
0000
0C30
1C70
1860
0000
1FE0
1FE0
6030
6030
6030
6030
6030
6030
6030
7FF0
1FE0
0000
0000
0000
0000
0000
0000
ENDCHAR
STARTCHAR char338
ENCODING 338
SWIDTH 500 0
DWIDTH 12 0
BBX 12 24 0 -6
BITMAP
0000
0000
0000
1FF0
7FF0
6300
6300
6300
6300
63E0
63E0
6300
6300
6300
6300
6300
7FF0
1FF0
0000
0000
0000
0000
0000
0000
ENDCHAR
STARTCHAR char339
ENCODING 339
SWIDTH 500 0
DWIDTH 12 0
BBX 12 24 0 -6
BITMAP
0000
0000
0000
0000
0000
0000
0000
1DE0
1DE0
6330
6330
6330
63F0
63F0
6300
6330
7FF0
1DE0
0000
0000
0000
0000
0000
0000
ENDCHAR
STARTCHAR char340
ENCODING 340
SWIDTH 500 0
DWIDTH 12 0
BBX 12 24 0 -6
BITMAP
0060
01E0
0180
0300
0300
0000
7FE0
7FF0
6030
6030
6030
6030
7FE0
7FE0
6060
6030
6030
6030
0000
0000
0000
0000
0000
0000
ENDCHAR
STARTCHAR char341
ENCODING 341
SWIDTH 500 0
DWIDTH 12 0
BBX 12 24 0 -6
BITMAP
0000
0060
0060
0180
0380
0300
0000
63E0
63E0
1C30
1C30
1830
1800
1800
1800
1800
1800
1800
0000
0000
0000
0000
0000
0000
ENDCHAR
STARTCHAR char342
ENCODING 342
SWIDTH 500 0
DWIDTH 12 0
BBX 12 24 0 -6
BITMAP
0000
0000
0000
7FE0
7FF0
6030
6030
6030
6030
7FE0
7FE0
6300
6180
61E0
6060
6030
6030
6030
1C00
DC00
CC00
7800
7800
0000
ENDCHAR
STARTCHAR char343
ENCODING 343
SWIDTH 500 0
DWIDTH 12 0
BBX 12 24 0 -6
BITMAP
0000
0000
0000
0000
0000
0000
0000
63E0
63E0
1C30
1C30
1830
1800
1800
1800
1800
1800
1800
1C00
DC00
CC00
7800
7800
0000
ENDCHAR
STARTCHAR char344
ENCODING 344
SWIDTH 500 0
DWIDTH 12 0
BBX 12 24 0 -6
BITMAP
1860
1DE0
0D80
0300
0300
0000
7FE0
7FF0
6030
6030
6030
6030
7FE0
7FE0
6060
6030
6030
6030
0000
0000
0000
0000
0000
0000
ENDCHAR
STARTCHAR char345
ENCODING 345
SWIDTH 500 0
DWIDTH 12 0
BBX 12 24 0 -6
BITMAP
0000
1860
1860
0D80
0F80
0300
0000
63E0
63E0
1C30
1C30
1830
1800
1800
1800
1800
1800
1800
0000
0000
0000
0000
0000
0000
ENDCHAR
STARTCHAR char346
ENCODING 346
SWIDTH 500 0
DWIDTH 12 0
BBX 12 24 0 -6
BITMAP
0060
01E0
0180
0300
0300
0000
1FE0
7FF0
6030
6000
7FE0
1FE0
0030
6030
6030
6030
7FF0
1FE0
0000
0000
0000
0000
0000
0000
ENDCHAR
STARTCHAR char347
ENCODING 347
SWIDTH 500 0
DWIDTH 12 0
BBX 12 24 0 -6
BITMAP
0000
0060
0060
0180
0380
0300
0000
1FE0
1FE0
6030
6030
6000
1FE0
1FF0
0030
6030
7FF0
1FE0
0000
0000
0000
0000
0000
0000
ENDCHAR
STARTCHAR char348
ENCODING 348
SWIDTH 500 0
DWIDTH 12 0
BBX 12 24 0 -6
BITMAP
0300
0F80
0D80
1860
1860
0000
1FE0
7FF0
6030
6000
7FE0
1FE0
0030
6030
6030
6030
7FF0
1FE0
0000
0000
0000
0000
0000
0000
ENDCHAR
STARTCHAR char349
ENCODING 349
SWIDTH 500 0
DWIDTH 12 0
BBX 12 24 0 -6
BITMAP
0000
0300
0300
0D80
1DE0
1860
0000
1FE0
1FE0
6030
6030
6000
1FE0
1FF0
0030
6030
7FF0
1FE0
0000
0000
0000
0000
0000
0000
ENDCHAR
STARTCHAR char350
ENCODING 350
SWIDTH 500 0
DWIDTH 12 0
BBX 12 24 0 -6
BITMAP
0000
0000
0000
1FE0
7FF0
6030
6000
6000
6000
1FE0
1FF0
0030
0030
6030
6030
6030
7FF0
1FE0
0380
1B80
1980
0F00
0F00
0000
ENDCHAR
STARTCHAR char351
ENCODING 351
SWIDTH 500 0
DWIDTH 12 0
BBX 12 24 0 -6
BITMAP
0000
0000
0000
0000
0000
0000
0000
1FE0
1FE0
6030
6030
6000
1FE0
1FF0
0030
6030
7FF0
1FE0
0380
1B80
1980
0F00
0F00
0000
ENDCHAR
STARTCHAR char352
ENCODING 352
SWIDTH 500 0
DWIDTH 12 0
BBX 12 24 0 -6
BITMAP
1860
1DE0
0D80
0300
0300
0000
1FE0
7FF0
6030
6000
7FE0
1FE0
0030
6030
6030
6030
7FF0
1FE0
0000
0000
0000
0000
0000
0000
ENDCHAR
STARTCHAR char353
ENCODING 353
SWIDTH 500 0
DWIDTH 12 0
BBX 12 24 0 -6
BITMAP
0000
1860
1860
0D80
0F80
0300
0000
1FE0
1FE0
6030
6030
6000
1FE0
1FF0
0030
6030
7FF0
1FE0
0000
0000
0000
0000
0000
0000
ENDCHAR
STARTCHAR char354
ENCODING 354
SWIDTH 500 0
DWIDTH 12 0
BBX 12 24 0 -6
BITMAP
0000
0000
0000
7FF0
7FF0
0300
0300
0300
0300
0300
0300
0300
0300
0300
0300
0300
0380
0380
1980
1F80
0F00
0000
0000
0000
ENDCHAR
STARTCHAR char355
ENCODING 355
SWIDTH 500 0
DWIDTH 12 0
BBX 12 24 0 -6
BITMAP
0000
0000
0000
0000
0C00
0C00
0C00
7FE0
7FE0
0C00
0C00
0C00
0C00
0C00
0C00
0C30
0FF0
03E0
1980
1F80
0F00
0000
0000
0000
ENDCHAR
STARTCHAR char356
ENCODING 356
SWIDTH 500 0
DWIDTH 12 0
BBX 12 24 0 -6
BITMAP
1860
1DE0
0D80
0300
0300
0000
7FF0
7FF0
0300
0300
0300
0300
0300
0300
0300
0300
0300
0300
0000
0000
0000
0000
0000
0000
ENDCHAR
STARTCHAR char357
ENCODING 357
SWIDTH 500 0
DWIDTH 12 0
BBX 12 24 0 -6
BITMAP
0C30
0F70
0360
0180
0D80
0C00
0C00
7FE0
7FE0
0C00
0C00
0C00
0C00
0C00
0C00
0C30
0FF0
03E0
0000
0000
0000
0000
0000
0000
ENDCHAR
STARTCHAR char358
ENCODING 358
SWIDTH 500 0
DWIDTH 12 0
BBX 12 24 0 -6
BITMAP
0000
0000
0000
7FF0
7FF0
0300
0300
1FE0
1FE0
0300
0300
0300
0300
0300
0300
0300
0300
0300
0000
0000
0000
0000
0000
0000
ENDCHAR
STARTCHAR char359
ENCODING 359
SWIDTH 500 0
DWIDTH 12 0
BBX 12 24 0 -6
BITMAP
0000
0000
0000
0000
0C00
0C00
0C00
7FE0
7FE0
0C00
7F80
7F80
0C00
0C00
0C00
0C30
0FF0
03E0
0000
0000
0000
0000
0000
0000
ENDCHAR
STARTCHAR char360
ENCODING 360
SWIDTH 500 0
DWIDTH 12 0
BBX 12 24 0 -6
BITMAP
0000
1C30
1C30
63E0
63E0
0000
6030
6030
6030
6030
6030
6030
6030
6030
6030
6030
7FF0
1FE0
0000
0000
0000
0000
0000
0000
ENDCHAR
STARTCHAR char361
ENCODING 361
SWIDTH 500 0
DWIDTH 12 0
BBX 12 24 0 -6
BITMAP
0000
0000
0000
1C60
7FE0
6380
0000
6060
6060
6060
6060
6060
6060
6060
6060
6060
7FF0
1FB0
0000
0000
0000
0000
0000
0000
ENDCHAR
STARTCHAR char362
ENCODING 362
SWIDTH 500 0
DWIDTH 12 0
BBX 12 24 0 -6
BITMAP
0000
0000
0000
1FE0
1FE0
0000
6030
6030
6030
6030
6030
6030
6030
6030
6030
6030
7FF0
1FE0
0000
0000
0000
0000
0000
0000
ENDCHAR
STARTCHAR char363
ENCODING 363
SWIDTH 500 0
DWIDTH 12 0
BBX 12 24 0 -6
BITMAP
0000
0000
0000
0000
7FE0
7FE0
0000
6060
6060
6060
6060
6060
6060
6060
6060
6060
7FF0
1FB0
0000
0000
0000
0000
0000
0000
ENDCHAR
STARTCHAR char364
ENCODING 364
SWIDTH 500 0
DWIDTH 12 0
BBX 12 24 0 -6
BITMAP
0000
1860
1860
0F80
0F80
0000
6030
6030
6030
6030
6030
6030
6030
6030
6030
6030
7FF0
1FE0
0000
0000
0000
0000
0000
0000
ENDCHAR
STARTCHAR char365
ENCODING 365
SWIDTH 500 0
DWIDTH 12 0
BBX 12 24 0 -6
BITMAP
0000
0000
0000
1860
1FE0
0F80
0000
6060
6060
6060
6060
6060
6060
6060
6060
6060
7FF0
1FB0
0000
0000
0000
0000
0000
0000
ENDCHAR
STARTCHAR char366
ENCODING 366
SWIDTH 500 0
DWIDTH 12 0
BBX 12 24 0 -6
BITMAP
0000
0380
0380
0C60
0FE0
0380
6030
6030
6030
6030
6030
6030
6030
6030
6030
6030
7FF0
1FE0
0000
0000
0000
0000
0000
0000
ENDCHAR
STARTCHAR char367
ENCODING 367
SWIDTH 500 0
DWIDTH 12 0
BBX 12 24 0 -6
BITMAP
0000
0000
0000
0F00
1F80
1980
0F00
6F60
6060
6060
6060
6060
6060
6060
6060
6060
7FF0
1FB0
0000
0000
0000
0000
0000
0000
ENDCHAR
STARTCHAR char368
ENCODING 368
SWIDTH 500 0
DWIDTH 12 0
BBX 12 24 0 -6
BITMAP
0000
0C30
0C30
1860
1860
0000
6030
6030
6030
6030
6030
6030
6030
6030
6030
6030
7FF0
1FE0
0000
0000
0000
0000
0000
0000
ENDCHAR
STARTCHAR char369
ENCODING 369
SWIDTH 500 0
DWIDTH 12 0
BBX 12 24 0 -6
BITMAP
0000
0000
0000
0C60
1DE0
1980
0000
6060
6060
6060
6060
6060
6060
6060
6060
6060
7FF0
1FB0
0000
0000
0000
0000
0000
0000
ENDCHAR
STARTCHAR char370
ENCODING 370
SWIDTH 500 0
DWIDTH 12 0
BBX 12 24 0 -6
BITMAP
0000
0000
0000
6030
6030
6030
6030
6030
6030
6030
6030
6030
6030
6030
6030
6030
7FF0
1FE0
0C00
0F00
0F00
0000
0000
0000
ENDCHAR
STARTCHAR char371
ENCODING 371
SWIDTH 500 0
DWIDTH 12 0
BBX 12 24 0 -6
BITMAP
0000
0000
0000
0000
0000
0000
0000
6060
6060
6060
6060
6060
6060
6060
6060
6060
7FF0
1FB0
0300
0380
0380
0000
0000
0000
ENDCHAR
STARTCHAR char372
ENCODING 372
SWIDTH 500 0
DWIDTH 12 0
BBX 12 24 0 -6
BITMAP
0300
0F80
0D80
1860
1860
0000
6030
6030
6030
6030
6330
6330
6330
6330
6330
6DB0
7DF0
1860
0000
0000
0000
0000
0000
0000
ENDCHAR
STARTCHAR char373
ENCODING 373
SWIDTH 500 0
DWIDTH 12 0
BBX 12 24 0 -6
BITMAP
0000
0300
0300
0D80
1DE0
1860
0000
6030
6030
6030
6330
6330
6330
6330
6330
6DB0
7DF0
1860
0000
0000
0000
0000
0000
0000
ENDCHAR
STARTCHAR char374
ENCODING 374
SWIDTH 500 0
DWIDTH 12 0
BBX 12 24 0 -6
BITMAP
0300
0F80
0D80
1860
1860
0000
6030
6030
6030
1860
1DE0
0D80
0300
0300
0300
0300
0300
0300
0000
0000
0000
0000
0000
0000
ENDCHAR
STARTCHAR char375
ENCODING 375
SWIDTH 500 0
DWIDTH 12 0
BBX 12 24 0 -6
BITMAP
0000
0300
0300
0D80
1DE0
1860
0000
6060
6060
6060
6060
6060
6060
6060
6060
61E0
7FE0
1F60
0060
6060
6060
1F80
1F80
0000
ENDCHAR
STARTCHAR char376
ENCODING 376
SWIDTH 500 0
DWIDTH 12 0
BBX 12 24 0 -6
BITMAP
0000
1860
1860
1860
1860
0000
6030
6030
6030
1860
1DE0
0D80
0300
0300
0300
0300
0300
0300
0000
0000
0000
0000
0000
0000
ENDCHAR
STARTCHAR char377
ENCODING 377
SWIDTH 500 0
DWIDTH 12 0
BBX 12 24 0 -6
BITMAP
0060
01E0
0180
0300
0300
0000
7FF0
7FF0
0060
0180
0380
0300
0C00
1C00
1800
6000
7FF0
7FF0
0000
0000
0000
0000
0000
0000
ENDCHAR
STARTCHAR char378
ENCODING 378
SWIDTH 500 0
DWIDTH 12 0
BBX 12 24 0 -6
BITMAP
0000
0060
0060
0180
0380
0300
0000
7FF0
7FF0
0060
01E0
0180
0300
0F00
0C00
1800
7FF0
7FF0
0000
0000
0000
0000
0000
0000
ENDCHAR
STARTCHAR char379
ENCODING 379
SWIDTH 500 0
DWIDTH 12 0
BBX 12 24 0 -6
BITMAP
0000
0380
0380
0000
7FF0
7FF0
0030
0070
0060
0180
0380
0300
0C00
1C00
1800
6000
7FF0
7FF0
0000
0000
0000
0000
0000
0000
ENDCHAR
STARTCHAR char380
ENCODING 380
SWIDTH 500 0
DWIDTH 12 0
BBX 12 24 0 -6
BITMAP
0000
0000
0000
0000
0380
0380
0000
7FF0
7FF0
0060
01E0
0180
0300
0F00
0C00
1800
7FF0
7FF0
0000
0000
0000
0000
0000
0000
ENDCHAR
STARTCHAR char381
ENCODING 381
SWIDTH 500 0
DWIDTH 12 0
BBX 12 24 0 -6
BITMAP
1860
1DE0
0D80
0300
0300
0000
7FF0
7FF0
0060
0180
0380
0300
0C00
1C00
1800
6000
7FF0
7FF0
0000
0000
0000
0000
0000
0000
ENDCHAR
STARTCHAR char382
ENCODING 382
SWIDTH 500 0
DWIDTH 12 0
BBX 12 24 0 -6
BITMAP
0000
1860
1860
0D80
0F80
0300
0000
7FF0
7FF0
0060
01E0
0180
0300
0F00
0C00
1800
7FF0
7FF0
0000
0000
0000
0000
0000
0000
ENDCHAR
STARTCHAR char383
ENCODING 383
SWIDTH 500 0
DWIDTH 12 0
BBX 12 24 0 -6
BITMAP
0000
0000
0000
03E0
0FF0
0C30
0C00
0C00
0C00
1C00
1C00
0C00
0C00
0C00
0C00
0C00
0C00
0C00
0000
0000
0000
0000
0000
0000
ENDCHAR
STARTCHAR char384
ENCODING 384
SWIDTH 500 0
DWIDTH 12 0
BBX 12 24 0 -6
BITMAP
0000
0000
0000
6000
FF00
FF00
6000
6FE0
6FE0
7830
7830
6030
6030
6030
6030
7830
7FF0
6FE0
0000
0000
0000
0000
0000
0000
ENDCHAR
STARTCHAR char385
ENCODING 385
SWIDTH 500 0
DWIDTH 12 0
BBX 12 24 0 -6
BITMAP
0000
0000
0000
7FE0
FFF0
CC30
CC30
CC30
0C30
0FE0
0FF0
0C30
0C30
0C30
0C30
0C30
1FF0
1FE0
0000
0000
0000
0000
0000
0000
ENDCHAR
STARTCHAR char386
ENCODING 386
SWIDTH 500 0
DWIDTH 12 0
BBX 12 24 0 -6
BITMAP
0000
0000
0000
7FE0
7FE0
1800
1800
1800
1800
1FE0
1FF0
1830
1830
1830
1830
1830
7FF0
7FE0
0000
0000
0000
0000
0000
0000
ENDCHAR
STARTCHAR char387
ENCODING 387
SWIDTH 500 0
DWIDTH 12 0
BBX 12 24 0 -6
BITMAP
0000
0000
0000
1FE0
1FE0
1800
1800
1800
1800
1F80
1FE0
1860
1860
1860
1860
1860
1FE0
1F80
0000
0000
0000
0000
0000
0000
ENDCHAR
STARTCHAR char388
ENCODING 388
SWIDTH 500 0
DWIDTH 12 0
BBX 12 24 0 -6
BITMAP
0000
0000
0000
1800
7800
7800
7800
7800
1800
1FE0
1FF0
1830
1830
1830
1830
1830
7FF0
7FE0
0000
0000
0000
0000
0000
0000
ENDCHAR
STARTCHAR char389
ENCODING 389
SWIDTH 500 0
DWIDTH 12 0
BBX 12 24 0 -6
BITMAP
0000
0000
0000
1800
7800
7800
7800
7800
1800
1F80
1FE0
1860
1860
1860
1860
1860
1FE0
1F80
0000
0000
0000
0000
0000
0000
ENDCHAR
STARTCHAR char390
ENCODING 390
SWIDTH 500 0
DWIDTH 12 0
BBX 12 24 0 -6
BITMAP
0000
0000
0000
1FE0
7FF0
6030
0030
0030
0030
0030
0030
0030
0030
0030
0030
6030
7FF0
1FE0
0000
0000
0000
0000
0000
0000
ENDCHAR
STARTCHAR char391
ENCODING 391
SWIDTH 500 0
DWIDTH 12 0
BBX 12 24 0 -6
BITMAP
0000
0030
0030
1FE0
7FE0
6060
6000
6000
6000
6000
6000
6000
6000
6000
6000
6060
7FE0
1F80
0000
0000
0000
0000
0000
0000
ENDCHAR
STARTCHAR char392
ENCODING 392
SWIDTH 500 0
DWIDTH 12 0
BBX 12 24 0 -6
BITMAP
0000
0000
0000
0000
0030
0030
0060
1FE0
1FE0
6030
6030
6000
6000
6000
6000
6030
7FF0
1FE0
0000
0000
0000
0000
0000
0000
ENDCHAR
STARTCHAR char393
ENCODING 393
SWIDTH 500 0
DWIDTH 12 0
BBX 12 24 0 -6
BITMAP
0000
0000
0000
7F80
7FE0
6060
6030
6030
6030
F830
F830
6030
6030
6030
6030
6060
7FE0
7F80
0000
0000
0000
0000
0000
0000
ENDCHAR
STARTCHAR char394
ENCODING 394
SWIDTH 500 0
DWIDTH 12 0
BBX 12 24 0 -6
BITMAP
0000
0000
0000
7FE0
FFF0
CC30
CC30
CC30
0C30
0C30
0C30
0C30
0C30
0C30
0C30
0C30
1FF0
1FE0
0000
0000
0000
0000
0000
0000
ENDCHAR
STARTCHAR char395
ENCODING 395
SWIDTH 500 0
DWIDTH 12 0
BBX 12 24 0 -6
BITMAP
0000
0000
0000
1FF0
1FF0
0060
0060
0060
0060
1FE0
7FE0
6060
6060
6060
6060
6060
7FF0
1FF0
0000
0000
0000
0000
0000
0000
ENDCHAR
STARTCHAR char396
ENCODING 396
SWIDTH 500 0
DWIDTH 12 0
BBX 12 24 0 -6
BITMAP
0000
0000
0000
1FE0
1FE0
0060
0060
0060
0060
0FE0
1FE0
1860
1860
1860
1860
1860
1FE0
0FE0
0000
0000
0000
0000
0000
0000
ENDCHAR
STARTCHAR char397
ENCODING 397
SWIDTH 500 0
DWIDTH 12 0
BBX 12 24 0 -6
BITMAP
0000
0000
0000
0000
0000
0000
0000
1FE0
1FE0
6030
6030
6030
6030
6030
6030
6030
7FF0
1FE0
0060
6070
6030
1FE0
1FE0
0000
ENDCHAR
STARTCHAR char398
ENCODING 398
SWIDTH 500 0
DWIDTH 12 0
BBX 12 24 0 -6
BITMAP
0000
0000
0000
7FF0
7FF0
0030
0030
0030
0030
0FF0
0FF0
0030
0030
0030
0030
0030
7FF0
7FF0
0000
0000
0000
0000
0000
0000
ENDCHAR
STARTCHAR char399
ENCODING 399
SWIDTH 500 0
DWIDTH 12 0
BBX 12 24 0 -6
BITMAP
0000
0000
0000
0F80
1FE0
1860
6030
6030
0030
0030
7FF0
7FF0
6030
6030
6030
1860
1FE0
0F80
0000
0000
0000
0000
0000
0000
ENDCHAR
STARTCHAR char400
ENCODING 400
SWIDTH 500 0
DWIDTH 12 0
BBX 12 24 0 -6
BITMAP
0000
0000
0000
1FE0
7FF0
6030
6000
6000
6000
1F00
7F00
6000
6000
6000
6000
6030
7FF0
1FE0
0000
0000
0000
0000
0000
0000
ENDCHAR
STARTCHAR char401
ENCODING 401
SWIDTH 500 0
DWIDTH 12 0
BBX 12 24 0 -6
BITMAP
0000
0000
0000
1FF0
1FF0
1800
1800
1F00
1F00
1800
1800
1800
1800
1800
1800
1800
1800
1800
1800
F800
E000
0000
0000
0000
ENDCHAR
STARTCHAR char402
ENCODING 402
SWIDTH 500 0
DWIDTH 12 0
BBX 12 24 0 -6
BITMAP
0000
0000
0000
03E0
0FF0
0C30
0C30
0C30
0C00
0C00
7F80
7F80
0C00
0C00
0C00
0C00
0C00
0C00
0C00
7C00
7800
0000
0000
0000
ENDCHAR
STARTCHAR char403
ENCODING 403
SWIDTH 500 0
DWIDTH 12 0
BBX 12 24 0 -6
BITMAP
0000
0070
0070
0060
1FE0
1FE0
6030
6030
6000
6000
61F0
61F0
6030
6030
6030
6030
7FF0
1FE0
0000
0000
0000
0000
0000
0000
ENDCHAR
STARTCHAR char404
ENCODING 404
SWIDTH 500 0
DWIDTH 12 0
BBX 12 24 0 -6
BITMAP
0000
0000
0000
6030
6030
6030
1860
1860
1860
0D80
0D80
0D80
0300
0F80
0D80
0D80
0F80
0300
0000
0000
0000
0000
0000
0000
ENDCHAR
STARTCHAR char405
ENCODING 405
SWIDTH 500 0
DWIDTH 12 0
BBX 12 24 0 -6
BITMAP
0000
0000
0000
6000
6000
6000
6000
6C00
6C00
7B30
7B30
6330
6330
6330
6330
6330
63F0
61E0
0000
0000
0000
0000
0000
0000
ENDCHAR
STARTCHAR char406
ENCODING 406
SWIDTH 500 0
DWIDTH 12 0
BBX 12 24 0 -6
BITMAP
0000
0000
0000
1C00
1C00
0C00
0C00
0C00
0C00
0C00
0C00
0C00
0C00
0C00
0C00
0C60
0FE0
0380
0000
0000
0000
0000
0000
0000
ENDCHAR
STARTCHAR char407
ENCODING 407
SWIDTH 500 0
DWIDTH 12 0
BBX 12 24 0 -6
BITMAP
0000
0000
0000
1FE0
1FE0
0300
0300
0300
0300
1FE0
1FE0
0300
0300
0300
0300
0300
1FE0
1FE0
0000
0000
0000
0000
0000
0000
ENDCHAR
STARTCHAR char408
ENCODING 408
SWIDTH 500 0
DWIDTH 12 0
BBX 12 24 0 -6
BITMAP
0000
0000
0000
6060
61F0
61B0
6330
6F30
6C00
7800
7C00
6C00
6300
6380
6180
6060
6070
6030
0000
0000
0000
0000
0000
0000
ENDCHAR
STARTCHAR char409
ENCODING 409
SWIDTH 500 0
DWIDTH 12 0
BBX 12 24 0 -6
BITMAP
0000
0000
0000
1C00
7F00
6300
6000
6030
6030
61E0
6FE0
6F00
7800
7F00
6F00
61E0
61F0
6030
0000
0000
0000
0000
0000
0000
ENDCHAR
STARTCHAR char410
ENCODING 410
SWIDTH 500 0
DWIDTH 12 0
BBX 12 24 0 -6
BITMAP
0000
0000
0000
1F00
1F00
0300
0300
0300
0300
1FE0
1FE0
0300
0300
0300
0300
0300
1FE0
1FE0
0000
0000
0000
0000
0000
0000
ENDCHAR
STARTCHAR char411
ENCODING 411
SWIDTH 500 0
DWIDTH 12 0
BBX 12 24 0 -6
BITMAP
0000
0000
0000
6300
7F00
1C00
1C00
7F00
6300
0300
0F80
0D80
1860
1860
1860
6030
6030
6030
0000
0000
0000
0000
0000
0000
ENDCHAR
STARTCHAR char412
ENCODING 412
SWIDTH 500 0
DWIDTH 12 0
BBX 12 24 0 -6
BITMAP
0000
0000
0000
6330
6330
6330
6330
6330
6330
6330
6330
6330
6330
6330
6330
6330
7FF0
1DF0
0000
0000
0000
0000
0000
0000
ENDCHAR
STARTCHAR char413
ENCODING 413
SWIDTH 500 0
DWIDTH 12 0
BBX 12 24 0 -6
BITMAP
0000
0000
0000
6030
6030
6030
7830
7C30
6C30
6330
63B0
61B0
6070
6070
6030
6030
6030
6030
6000
E000
C000
0000
0000
0000
ENDCHAR
STARTCHAR char414
ENCODING 414
SWIDTH 500 0
DWIDTH 12 0
BBX 12 24 0 -6
BITMAP
0000
0000
0000
0000
0000
0000
0000
6FE0
6FE0
7830
7830
6030
6030
6030
6030
6030
6030
6030
0030
0030
0030
0030
0030
0000
ENDCHAR
STARTCHAR char415
ENCODING 415
SWIDTH 500 0
DWIDTH 12 0
BBX 12 24 0 -6
BITMAP
0000
0000
0000
1FE0
7FF0
6030
6030
6030
6030
7FF0
7FF0
6030
6030
6030
6030
6030
7FF0
1FE0
0000
0000
0000
0000
0000
0000
ENDCHAR
STARTCHAR char416
ENCODING 416
SWIDTH 500 0
DWIDTH 12 0
BBX 12 24 0 -6
BITMAP
0000
0000
0000
1F80
7FE0
6060
6070
6070
6060
6060
6060
6060
6060
6060
6060
6060
7FE0
1F80
0000
0000
0000
0000
0000
0000
ENDCHAR
STARTCHAR char417
ENCODING 417
SWIDTH 500 0
DWIDTH 12 0
BBX 12 24 0 -6
BITMAP
0000
0000
0000
0000
0000
0000
0000
1F80
1F80
6060
6070
6070
6060
6060
6060
6060
7FE0
1F80
0000
0000
0000
0000
0000
0000
ENDCHAR
STARTCHAR char418
ENCODING 418
SWIDTH 500 0
DWIDTH 12 0
BBX 12 24 0 -6
BITMAP
0000
0000
0000
1F60
7FF0
61B0
61B0
61B0
61B0
61B0
61B0
61B0
61B0
61B0
61B0
61B0
7FB0
1F30
0000
0000
0000
0000
0000
0000
ENDCHAR
STARTCHAR char419
ENCODING 419
SWIDTH 500 0
DWIDTH 12 0
BBX 12 24 0 -6
BITMAP
0000
0000
0000
0000
0000
0000
0000
1F60
1F60
61B0
61B0
61B0
61B0
61B0
61B0
61B0
7FB0
1F30
0030
0030
0030
0030
0030
0000
ENDCHAR
STARTCHAR char420
ENCODING 420
SWIDTH 500 0
DWIDTH 12 0
BBX 12 24 0 -6
BITMAP
0000
0000
0000
7FE0
FFF0
CC30
CC30
CC30
0C30
0FE0
0FE0
0C00
0C00
0C00
0C00
0C00
0C00
0C00
0000
0000
0000
0000
0000
0000
ENDCHAR
STARTCHAR char421
ENCODING 421
SWIDTH 500 0
DWIDTH 12 0
BBX 12 24 0 -6
BITMAP
0000
0000
0000
1C00
7C00
6000
6000
6FE0
6FE0
7830
7830
6030
6030
6030
6030
7830
7FF0
6FE0
6000
6000
6000
6000
6000
0000
ENDCHAR
STARTCHAR char422
ENCODING 422
SWIDTH 500 0
DWIDTH 12 0
BBX 12 24 0 -6
BITMAP
0000
0000
0000
7C00
7C00
1800
1FE0
1FF0
1830
1830
1870
1860
1F80
1FE0
1860
1860
7C60
7C60
0060
0070
0030
0000
0000
0000
ENDCHAR
STARTCHAR char423
ENCODING 423
SWIDTH 500 0
DWIDTH 12 0
BBX 12 24 0 -6
BITMAP
0000
0000
0000
1FE0
7FF0
6030
6030
6030
0030
03E0
1FE0
1C00
6000
6030
6030
6030
7FF0
1FE0
0000
0000
0000
0000
0000
0000
ENDCHAR
STARTCHAR char424
ENCODING 424
SWIDTH 500 0
DWIDTH 12 0
BBX 12 24 0 -6
BITMAP
0000
0000
0000
0000
0000
0000
0000
1FE0
1FE0
6030
6030
0030
1FE0
7FE0
6000
6030
7FF0
1FE0
0000
0000
0000
0000
0000
0000
ENDCHAR
STARTCHAR char425
ENCODING 425
SWIDTH 500 0
DWIDTH 12 0
BBX 12 24 0 -6
BITMAP
0000
0000
0000
7FF0
7FF0
6030
1800
1C00
0C00
0300
0300
0300
0C00
1C00
1800
6030
7FF0
7FF0
0000
0000
0000
0000
0000
0000
ENDCHAR
STARTCHAR char426
ENCODING 426
SWIDTH 500 0
DWIDTH 12 0
BBX 12 24 0 -6
BITMAP
0000
0000
0000
1C00
7F00
6300
6300
7F00
1F00
0300
0300
0300
0300
0300
0300
0300
0300
0300
0330
03F0
01E0
0000
0000
0000
ENDCHAR
STARTCHAR char427
ENCODING 427
SWIDTH 500 0
DWIDTH 12 0
BBX 12 24 0 -6
BITMAP
0000
0000
0000
0000
0C00
0C00
0C00
7FE0
7FE0
0C00
0C00
0C00
0C00
0C00
0C00
0C60
0FE0
0380
0060
03E0
0380
0000
0000
0000
ENDCHAR
STARTCHAR char428
ENCODING 428
SWIDTH 500 0
DWIDTH 12 0
BBX 12 24 0 -6
BITMAP
0000
0000
0000
1FF0
7FF0
6300
6300
6300
0300
0300
0300
0300
0300
0300
0300
0300
0300
0300
0000
0000
0000
0000
0000
0000
ENDCHAR
STARTCHAR char429
ENCODING 429
SWIDTH 500 0
DWIDTH 12 0
BBX 12 24 0 -6
BITMAP
0000
0000
0000
0380
0F80
0C00
0C00
7FE0
7FE0
0C00
0C00
0C00
0C00
0C00
0C00
0C30
0FF0
03E0
0000
0000
0000
0000
0000
0000
ENDCHAR
STARTCHAR char430
ENCODING 430
SWIDTH 500 0
DWIDTH 12 0
BBX 12 24 0 -6
BITMAP
0000
0000
0000
7FF0
7FF0
0300
0300
0300
0300
0300
0300
0300
0300
0300
0300
0300
0300
0300
0300
03E0
01E0
0000
0000
0000
ENDCHAR
STARTCHAR char431
ENCODING 431
SWIDTH 500 0
DWIDTH 12 0
BBX 12 24 0 -6
BITMAP
0000
0000
0000
6060
6060
6060
6070
6070
6060
6060
6060
6060
6060
6060
6060
6060
7FE0
1F80
0000
0000
0000
0000
0000
0000
ENDCHAR
STARTCHAR char432
ENCODING 432
SWIDTH 500 0
DWIDTH 12 0
BBX 12 24 0 -6
BITMAP
0000
0000
0000
0000
0000
0000
0000
6060
6060
6060
6070
6070
6060
6060
6060
6060
7FF0
1FB0
0000
0000
0000
0000
0000
0000
ENDCHAR
STARTCHAR char433
ENCODING 433
SWIDTH 500 0
DWIDTH 12 0
BBX 12 24 0 -6
BITMAP
0000
0000
0000
7870
7870
1860
1860
7870
6030
6030
6030
6030
6030
6030
6030
1860
1FE0
0F80
0000
0000
0000
0000
0000
0000
ENDCHAR
STARTCHAR char434
ENCODING 434
SWIDTH 500 0
DWIDTH 12 0
BBX 12 24 0 -6
BITMAP
0000
0000
0000
6180
61E0
6060
6030
6030
6030
6030
6030
6030
6030
6030
6030
1860
1FE0
0F80
0000
0000
0000
0000
0000
0000
ENDCHAR
STARTCHAR char435
ENCODING 435
SWIDTH 500 0
DWIDTH 12 0
BBX 12 24 0 -6
BITMAP
0000
0000
0000
0030
6030
6030
D860
DDE0
CD80
0300
0300
0300
0300
0300
0300
0300
0300
0300
0000
0000
0000
0000
0000
0000
ENDCHAR
STARTCHAR char436
ENCODING 436
SWIDTH 500 0
DWIDTH 12 0
BBX 12 24 0 -6
BITMAP
0000
0000
0000
0000
0030
0030
0060
6060
6060
6060
6060
6060
6060
6060
6060
61E0
7FE0
1F60
0060
6060
6060
1F80
1F80
0000
ENDCHAR
STARTCHAR char437
ENCODING 437
SWIDTH 500 0
DWIDTH 12 0
BBX 12 24 0 -6
BITMAP
0000
0000
0000
7FF0
7FF0
0030
0060
01E0
0180
1FE0
1FE0
0C00
1800
7800
6000
6000
7FF0
7FF0
0000
0000
0000
0000
0000
0000
ENDCHAR
STARTCHAR char438
ENCODING 438
SWIDTH 500 0
DWIDTH 12 0
BBX 12 24 0 -6
BITMAP
0000
0000
0000
0000
0000
0000
0000
7FF0
7FF0
0060
01E0
0180
1FE0
1FE0
0C00
1800
7FF0
7FF0
0000
0000
0000
0000
0000
0000
ENDCHAR
STARTCHAR char439
ENCODING 439
SWIDTH 500 0
DWIDTH 12 0
BBX 12 24 0 -6
BITMAP
0000
0000
0000
7FF0
7FF0
0060
0180
0380
0300
0F80
0FE0
0060
0030
0030
0030
6060
7FE0
1F80
0000
0000
0000
0000
0000
0000
ENDCHAR
STARTCHAR char440
ENCODING 440
SWIDTH 500 0
DWIDTH 12 0
BBX 12 24 0 -6
BITMAP
0000
0000
0000
7FF0
7FF0
1800
0C00
0F00
0300
0F80
1F80
1800
6000
6000
6000
1830
1FF0
0FE0
0000
0000
0000
0000
0000
0000
ENDCHAR
STARTCHAR char441
ENCODING 441
SWIDTH 500 0
DWIDTH 12 0
BBX 12 24 0 -6
BITMAP
0000
0000
0000
0000
0000
0000
0000
7FE0
7FE0
1800
1C00
0C00
0300
0F80
0F80
1800
7800
6000
6000
7860
1860
0F80
0F80
0000
ENDCHAR
STARTCHAR char442
ENCODING 442
SWIDTH 500 0
DWIDTH 12 0
BBX 12 24 0 -6
BITMAP
0000
0000
0000
0000
0000
0000
0000
7FE0
7FE0
0180
0380
0300
0C00
1F00
1F00
0180
0180
0180
0F00
1F60
1860
0F80
0F80
0000
ENDCHAR
STARTCHAR char443
ENCODING 443
SWIDTH 500 0
DWIDTH 12 0
BBX 12 24 0 -6
BITMAP
0000
0000
0000
1FE0
7FF0
6030
6030
6030
0030
0060
1FE0
1FE0
0C00
1C00
1800
6000
7FF0
7FF0
0000
0000
0000
0000
0000
0000
ENDCHAR
STARTCHAR char444
ENCODING 444
SWIDTH 500 0
DWIDTH 12 0
BBX 12 24 0 -6
BITMAP
0000
0000
0000
7FF0
7FF0
6030
6000
6FE0
6FE0
7830
7830
0030
0030
0030
0030
6030
7FF0
1FE0
0000
0000
0000
0000
0000
0000
ENDCHAR
STARTCHAR char445
ENCODING 445
SWIDTH 500 0
DWIDTH 12 0
BBX 12 24 0 -6
BITMAP
0000
0000
0000
0000
1FE0
1FE0
1800
1800
1800
1B80
1FE0
1C60
0060
0060
0060
1860
1FE0
0F80
0000
0000
0000
0000
0000
0000
ENDCHAR
STARTCHAR char446
ENCODING 446
SWIDTH 500 0
DWIDTH 12 0
BBX 12 24 0 -6
BITMAP
0000
0000
0000
0300
0300
0300
1FE0
1FE0
0300
0300
0380
0180
0060
0060
0060
1860
1FE0
0F80
0000
0000
0000
0000
0000
0000
ENDCHAR
STARTCHAR char447
ENCODING 447
SWIDTH 500 0
DWIDTH 12 0
BBX 12 24 0 -6
BITMAP
0000
0000
0000
0000
0000
0000
0000
0000
0000
1BE0
1FF0
1C30
1830
1870
1860
1980
1F80
1F00
1800
1800
1800
0000
0000
0000
ENDCHAR
STARTCHAR char448
ENCODING 448
SWIDTH 500 0
DWIDTH 12 0
BBX 12 24 0 -6
BITMAP
0000
0000
0000
0300
0300
0300
0300
0300
0300
0300
0300
0300
0300
0300
0300
0300
0300
0300
0000
0000
0000
0000
0000
0000
ENDCHAR
STARTCHAR char449
ENCODING 449
SWIDTH 500 0
DWIDTH 12 0
BBX 12 24 0 -6
BITMAP
0000
0000
0000
0D80
0D80
0D80
0D80
0D80
0D80
0D80
0D80
0D80
0D80
0D80
0D80
0D80
0D80
0D80
0000
0000
0000
0000
0000
0000
ENDCHAR
STARTCHAR char450
ENCODING 450
SWIDTH 500 0
DWIDTH 12 0
BBX 12 24 0 -6
BITMAP
0000
0000
0000
0300
0300
0300
0300
1FE0
1FE0
0300
0300
0300
1FE0
1FE0
0300
0300
0300
0300
0000
0000
0000
0000
0000
0000
ENDCHAR
STARTCHAR char451
ENCODING 451
SWIDTH 500 0
DWIDTH 12 0
BBX 12 24 0 -6
BITMAP
0000
0000
0000
0300
0300
0300
0300
0300
0300
0300
0300
0300
0000
0000
0000
0300
0300
0300
0000
0000
0000
0000
0000
0000
ENDCHAR
STARTCHAR char452
ENCODING 452
SWIDTH 500 0
DWIDTH 12 0
BBX 12 24 0 -6
BITMAP
0000
01B0
01B0
0060
0060
0000
FDF0
FFF0
6300
6330
6330
6330
6360
6360
6360
6380
FFF0
FDF0
0000
0000
0000
0000
0000
0000
ENDCHAR
STARTCHAR char453
ENCODING 453
SWIDTH 500 0
DWIDTH 12 0
BBX 12 24 0 -6
BITMAP
0000
0000
0000
FC60
FF70
6330
6300
63F0
63F0
6300
6330
6330
6330
6370
6360
6360
FFF0
FDF0
0000
0000
0000
0000
0000
0000
ENDCHAR
STARTCHAR char454
ENCODING 454
SWIDTH 500 0
DWIDTH 12 0
BBX 12 24 0 -6
BITMAP
0000
0000
0000
0360
0370
0330
0300
7BF0
7BF0
CF00
CF30
C330
C330
C370
C360
CF60
FFF0
7BF0
0000
0000
0000
0000
0000
0000
ENDCHAR
STARTCHAR char455
ENCODING 455
SWIDTH 500 0
DWIDTH 12 0
BBX 12 24 0 -6
BITMAP
0000
0000
0000
C030
C030
C030
C030
C030
C030
C030
C030
C030
C030
C030
C030
C330
FFF0
FDE0
0000
0000
0000
0000
0000
0000
ENDCHAR
STARTCHAR char456
ENCODING 456
SWIDTH 500 0
DWIDTH 12 0
BBX 12 24 0 -6
BITMAP
0000
0000
0000
6070
6070
6000
6000
6070
6070
6030
6030
6030
6030
6030
6030
6030
7F30
7F30
0030
0330
0330
01E0
01E0
0000
ENDCHAR
STARTCHAR char457
ENCODING 457
SWIDTH 500 0
DWIDTH 12 0
BBX 12 24 0 -6
BITMAP
0000
0000
0000
7870
7870
1800
1800
1870
1870
1830
1830
1830
1830
1830
1830
1830
7C30
7C30
0030
0330
0330
01E0
01E0
0000
ENDCHAR
STARTCHAR char458
ENCODING 458
SWIDTH 500 0
DWIDTH 12 0
BBX 12 24 0 -6
BITMAP
0000
0000
0000
C300
C300
C300
C300
E300
E300
DB00
DB00
DB00
CF00
CF00
C300
C380
C3F0
C370
0000
0000
0000
0000
0000
0000
ENDCHAR
STARTCHAR char459
ENCODING 459
SWIDTH 500 0
DWIDTH 12 0
BBX 12 24 0 -6
BITMAP
0000
0000
0000
C370
C370
C300
C300
E370
E370
DB30
DB30
DB30
CF30
CF30
C330
C330
C330
C330
0030
0330
0330
01E0
01E0
0000
ENDCHAR
STARTCHAR char460
ENCODING 460
SWIDTH 500 0
DWIDTH 12 0
BBX 12 24 0 -6
BITMAP
0000
0000
0000
0070
0070
0000
0000
6F30
6F30
79B0
79B0
61B0
61B0
61B0
61B0
61B0
61B0
61B0
0030
0330
0330
01E0
01E0
0000
ENDCHAR
STARTCHAR char461
ENCODING 461
SWIDTH 500 0
DWIDTH 12 0
BBX 12 24 0 -6
BITMAP
1860
1DE0
0D80
0300
0300
0000
0F80
1FE0
1860
6030
6030
6030
7FF0
7FF0
6030
6030
6030
6030
0000
0000
0000
0000
0000
0000
ENDCHAR
STARTCHAR char462
ENCODING 462
SWIDTH 500 0
DWIDTH 12 0
BBX 12 24 0 -6
BITMAP
0000
1860
1860
0D80
0F80
0300
0000
1FE0
1FE0
0030
0030
0030
1FF0
7FF0
6030
6070
7FF0
1FB0
0000
0000
0000
0000
0000
0000
ENDCHAR
STARTCHAR char463
ENCODING 463
SWIDTH 500 0
DWIDTH 12 0
BBX 12 24 0 -6
BITMAP
1860
1DE0
0D80
0300
0300
0000
1FE0
1FE0
0300
0300
0300
0300
0300
0300
0300
0300
1FE0
1FE0
0000
0000
0000
0000
0000
0000
ENDCHAR
STARTCHAR char464
ENCODING 464
SWIDTH 500 0
DWIDTH 12 0
BBX 12 24 0 -6
BITMAP
0000
1860
1860
0D80
0F80
0300
0000
1F00
1F00
0300
0300
0300
0300
0300
0300
0300
1FE0
1FE0
0000
0000
0000
0000
0000
0000
ENDCHAR
STARTCHAR char465
ENCODING 465
SWIDTH 500 0
DWIDTH 12 0
BBX 12 24 0 -6
BITMAP
1860
1DE0
0D80
0300
0300
0000
1FE0
7FF0
6030
6030
6030
6030
6030
6030
6030
6030
7FF0
1FE0
0000
0000
0000
0000
0000
0000
ENDCHAR
STARTCHAR char466
ENCODING 466
SWIDTH 500 0
DWIDTH 12 0
BBX 12 24 0 -6
BITMAP
0000
1860
1860
0D80
0F80
0300
0000
1FE0
1FE0
6030
6030
6030
6030
6030
6030
6030
7FF0
1FE0
0000
0000
0000
0000
0000
0000
ENDCHAR
STARTCHAR char467
ENCODING 467
SWIDTH 500 0
DWIDTH 12 0
BBX 12 24 0 -6
BITMAP
1860
1DE0
0D80
0300
0300
0000
6030
6030
6030
6030
6030
6030
6030
6030
6030
6030
7FF0
1FE0
0000
0000
0000
0000
0000
0000
ENDCHAR
STARTCHAR char468
ENCODING 468
SWIDTH 500 0
DWIDTH 12 0
BBX 12 24 0 -6
BITMAP
0000
1860
1860
0D80
0F80
0300
0000
6060
6060
6060
6060
6060
6060
6060
6060
6060
7FF0
1FB0
0000
0000
0000
0000
0000
0000
ENDCHAR
STARTCHAR char469
ENCODING 469
SWIDTH 500 0
DWIDTH 12 0
BBX 12 24 0 -6
BITMAP
0000
1FE0
1FE0
0000
1DE0
1DE0
0000
6030
6030
6030
6030
6030
6030
6030
6030
6030
7FF0
1FE0
0000
0000
0000
0000
0000
0000
ENDCHAR
STARTCHAR char470
ENCODING 470
SWIDTH 500 0
DWIDTH 12 0
BBX 12 24 0 -6
BITMAP
0000
7FE0
7FE0
0000
79E0
79E0
0000
6060
6060
6060
6060
6060
6060
6060
6060
6060
7FF0
1FB0
0000
0000
0000
0000
0000
0000
ENDCHAR
STARTCHAR char471
ENCODING 471
SWIDTH 500 0
DWIDTH 12 0
BBX 12 24 0 -6
BITMAP
0180
0380
0300
0000
1DE0
1DE0
0000
6030
6030
6030
6030
6030
6030
6030
6030
6030
7FF0
1FE0
0000
0000
0000
0000
0000
0000
ENDCHAR
STARTCHAR char472
ENCODING 472
SWIDTH 500 0
DWIDTH 12 0
BBX 12 24 0 -6
BITMAP
0180
0380
0300
0000
79E0
79E0
0000
6060
6060
6060
6060
6060
6060
6060
6060
6060
7FF0
1FB0
0000
0000
0000
0000
0000
0000
ENDCHAR
STARTCHAR char473
ENCODING 473
SWIDTH 500 0
DWIDTH 12 0
BBX 12 24 0 -6
BITMAP
0D80
0F80
0300
0000
1DE0
1DE0
0000
6030
6030
6030
6030
6030
6030
6030
6030
6030
7FF0
1FE0
0000
0000
0000
0000
0000
0000
ENDCHAR
STARTCHAR char474
ENCODING 474
SWIDTH 500 0
DWIDTH 12 0
BBX 12 24 0 -6
BITMAP
1980
1F80
0F00
0000
79E0
79E0
0000
6060
6060
6060
6060
6060
6060
6060
6060
6060
7FF0
1FB0
0000
0000
0000
0000
0000
0000
ENDCHAR
STARTCHAR char475
ENCODING 475
SWIDTH 500 0
DWIDTH 12 0
BBX 12 24 0 -6
BITMAP
0C00
0F00
0300
0000
7870
7870
0000
6030
6030
6030
6030
6030
6030
6030
6030
6030
7FF0
1FE0
0000
0000
0000
0000
0000
0000
ENDCHAR
STARTCHAR char476
ENCODING 476
SWIDTH 500 0
DWIDTH 12 0
BBX 12 24 0 -6
BITMAP
1800
1C00
0C00
0000
79E0
79E0
0000
6060
6060
6060
6060
6060
6060
6060
6060
6060
7FF0
1FB0
0000
0000
0000
0000
0000
0000
ENDCHAR
STARTCHAR char477
ENCODING 477
SWIDTH 500 0
DWIDTH 12 0
BBX 12 24 0 -6
BITMAP
0000
0000
0000
0000
0000
0000
0000
1FE0
1FE0
0030
0030
0030
7FF0
7FF0
6030
6030
7FF0
1FE0
0000
0000
0000
0000
0000
0000
ENDCHAR
STARTCHAR char478
ENCODING 478
SWIDTH 500 0
DWIDTH 12 0
BBX 12 24 0 -6
BITMAP
1FE0
1FE0
0000
1DE0
1DE0
0000
0F80
1FE0
1860
6030
6030
6030
7FF0
7FF0
6030
6030
6030
6030
0000
0000
0000
0000
0000
0000
ENDCHAR
STARTCHAR char479
ENCODING 479
SWIDTH 500 0
DWIDTH 12 0
BBX 12 24 0 -6
BITMAP
0000
1FE0
1FE0
0000
1DE0
1DE0
0000
1FE0
1FE0
0030
0030
0030
1FF0
7FF0
6030
6070
7FF0
1FB0
0000
0000
0000
0000
0000
0000
ENDCHAR
STARTCHAR char480
ENCODING 480
SWIDTH 500 0
DWIDTH 12 0
BBX 12 24 0 -6
BITMAP
1FE0
1FE0
0000
0F00
0F00
0000
0F80
1FE0
1860
6030
6030
6030
7FF0
7FF0
6030
6030
6030
6030
0000
0000
0000
0000
0000
0000
ENDCHAR
STARTCHAR char481
ENCODING 481
SWIDTH 500 0
DWIDTH 12 0
BBX 12 24 0 -6
BITMAP
0000
1FE0
1FE0
0000
0380
0380
0000
1FE0
1FE0
0030
0030
0030
1FF0
7FF0
6030
6070
7FF0
1FB0
0000
0000
0000
0000
0000
0000
ENDCHAR
STARTCHAR char482
ENCODING 482
SWIDTH 500 0
DWIDTH 12 0
BBX 12 24 0 -6
BITMAP
0000
1FE0
1FE0
0000
1FF0
1FF0
6300
6300
6300
6300
7FE0
7FE0
6300
6300
6300
6300
63F0
63F0
0000
0000
0000
0000
0000
0000
ENDCHAR
STARTCHAR char483
ENCODING 483
SWIDTH 500 0
DWIDTH 12 0
BBX 12 24 0 -6
BITMAP
0000
0000
0000
0000
1FE0
1FE0
0000
1DE0
1DE0
6330
6330
0330
1FE0
7FE0
6300
6330
7FF0
1DF0
0000
0000
0000
0000
0000
0000
ENDCHAR
STARTCHAR char484
ENCODING 484
SWIDTH 500 0
DWIDTH 12 0
BBX 12 24 0 -6
BITMAP
0000
0000
0000
1FE0
7FF0
6030
6000
6000
6000
6000
61F0
61F0
6030
63F0
63F0
6030
7FF0
1FE0
0000
0000
0000
0000
0000
0000
ENDCHAR
STARTCHAR char485
ENCODING 485
SWIDTH 500 0
DWIDTH 12 0
BBX 12 24 0 -6
BITMAP
0000
0000
0000
0000
0000
0000
0000
1FB0
1FB0
6060
6060
6060
6060
6060
6060
6060
7FE0
1FE0
0060
FFF0
FFF0
1F80
1F80
0000
ENDCHAR
STARTCHAR char486
ENCODING 486
SWIDTH 500 0
DWIDTH 12 0
BBX 12 24 0 -6
BITMAP
1860
1DE0
0D80
0300
0300
0000
1FE0
7FF0
6030
6000
6000
6000
61F0
61F0
6030
6030
7FF0
1FE0
0000
0000
0000
0000
0000
0000
ENDCHAR
STARTCHAR char487
ENCODING 487
SWIDTH 500 0
DWIDTH 12 0
BBX 12 24 0 -6
BITMAP
0000
1860
1860
0D80
0F80
0300
0000
1FB0
1FB0
6060
6060
6060
6060
7FE0
1F80
6000
7FE0
1FE0
6030
6030
6030
1FE0
1FE0
0000
ENDCHAR
STARTCHAR char488
ENCODING 488
SWIDTH 500 0
DWIDTH 12 0
BBX 12 24 0 -6
BITMAP
1860
1DE0
0D80
0300
0300
0000
6030
6070
6060
6180
7F80
7F00
6300
6380
6180
6060
6070
6030
0000
0000
0000
0000
0000
0000
ENDCHAR
STARTCHAR char489
ENCODING 489
SWIDTH 500 0
DWIDTH 12 0
BBX 12 24 0 -6
BITMAP
1860
1DE0
0D80
6300
6300
6000
6000
6030
6030
61E0
6FE0
6F00
7800
7F00
6F00
61E0
61F0
6030
0000
0000
0000
0000
0000
0000
ENDCHAR
STARTCHAR char490
ENCODING 490
SWIDTH 500 0
DWIDTH 12 0
BBX 12 24 0 -6
BITMAP
0000
0000
0000
1FE0
7FF0
6030
6030
6030
6030
6030
6030
6030
6030
6030
6030
6030
7FF0
1FE0
0C00
0F00
0F00
0000
0000
0000
ENDCHAR
STARTCHAR char491
ENCODING 491
SWIDTH 500 0
DWIDTH 12 0
BBX 12 24 0 -6
BITMAP
0000
0000
0000
0000
0000
0000
0000
1FE0
1FE0
6030
6030
6030
6030
6030
6030
6030
7FF0
1FE0
0C00
0F00
0F00
0000
0000
0000
ENDCHAR
STARTCHAR char492
ENCODING 492
SWIDTH 500 0
DWIDTH 12 0
BBX 12 24 0 -6
BITMAP
0000
0000
0000
1FE0
1FE0
0000
1FE0
7FF0
6030
6030
6030
6030
6030
6030
6030
6030
7FF0
1FE0
0C00
0F00
0F00
0000
0000
0000
ENDCHAR
STARTCHAR char493
ENCODING 493
SWIDTH 500 0
DWIDTH 12 0
BBX 12 24 0 -6
BITMAP
0000
0000
0000
0000
1FE0
1FE0
0000
1FE0
1FE0
6030
6030
6030
6030
6030
6030
6030
7FF0
1FE0
0C00
0F00
0F00
0000
0000
0000
ENDCHAR
STARTCHAR char494
ENCODING 494
SWIDTH 500 0
DWIDTH 12 0
BBX 12 24 0 -6
BITMAP
1860
1DE0
0D80
0300
7FF0
7FF0
0060
01E0
0180
0300
0F80
0F80
0060
0070
0030
6060
7FE0
1F80
0000
0000
0000
0000
0000
0000
ENDCHAR
STARTCHAR char495
ENCODING 495
SWIDTH 500 0
DWIDTH 12 0
BBX 12 24 0 -6
BITMAP
0000
1860
1860
0D80
0F80
0300
0000
1FF0
1FF0
0060
01E0
0180
0300
0F80
0F80
0060
0070
0030
0030
1870
1860
0F80
0F80
0000
ENDCHAR
STARTCHAR char496
ENCODING 496
SWIDTH 500 0
DWIDTH 12 0
BBX 12 24 0 -6
BITMAP
0000
0C30
0C30
0360
03E0
0180
0000
03E0
03E0
0060
0060
0060
0060
0060
0060
0060
6060
6060
6060
6060
6060
1F80
1F80
0000
ENDCHAR
STARTCHAR char497
ENCODING 497
SWIDTH 500 0
DWIDTH 12 0
BBX 12 24 0 -6
BITMAP
0000
0000
0000
FDF0
FFF0
6300
6300
6330
6330
6330
6370
6360
6360
63E0
6380
6380
FFF0
FDF0
0000
0000
0000
0000
0000
0000
ENDCHAR
STARTCHAR char498
ENCODING 498
SWIDTH 500 0
DWIDTH 12 0
BBX 12 24 0 -6
BITMAP
0000
0000
0000
FC00
FF00
6300
6300
63F0
63F0
6300
6330
6330
6330
6370
6360
6360
FFF0
FDF0
0000
0000
0000
0000
0000
0000
ENDCHAR
STARTCHAR char499
ENCODING 499
SWIDTH 500 0
DWIDTH 12 0
BBX 12 24 0 -6
BITMAP
0000
0000
0000
0300
0300
0300
0300
7BF0
7BF0
CF00
CF30
C330
C330
C370
C360
CF60
FFF0
7BF0
0000
0000
0000
0000
0000
0000
ENDCHAR
STARTCHAR char500
ENCODING 500
SWIDTH 500 0
DWIDTH 12 0
BBX 12 24 0 -6
BITMAP
0060
01E0
0180
0300
0300
0000
1FE0
7FF0
6030
6000
6000
6000
61F0
61F0
6030
6030
7FF0
1FE0
0000
0000
0000
0000
0000
0000
ENDCHAR
STARTCHAR char501
ENCODING 501
SWIDTH 500 0
DWIDTH 12 0
BBX 12 24 0 -6
BITMAP
0000
0060
0060
0180
0380
0300
0000
1FB0
1FB0
6060
6060
6060
6060
7FE0
1F80
6000
7FE0
1FE0
6030
6030
6030
1FE0
1FE0
0000
ENDCHAR
STARTCHAR char502
ENCODING 502
SWIDTH 500 0
DWIDTH 12 0
BBX 12 24 0 -6
BITMAP
0000
0000
0000
6300
6300
6300
6300
6330
6330
7F30
7F30
6330
6330
6330
6330
6330
63F0
61E0
0000
0000
0000
0000
0000
0000
ENDCHAR
STARTCHAR char503
ENCODING 503
SWIDTH 500 0
DWIDTH 12 0
BBX 12 24 0 -6
BITMAP
0000
0000
0000
6FE0
7FF0
7830
6030
6030
6030
6030
61F0
61E0
6F00
7F00
7800
6000
6000
6000
6000
6000
6000
0000
0000
0000
ENDCHAR
STARTCHAR char504
ENCODING 504
SWIDTH 500 0
DWIDTH 12 0
BBX 12 24 0 -6
BITMAP
0000
1800
1800
0C00
0F00
0300
6030
6030
6030
7830
7C30
6C30
6330
63B0
61B0
6070
6070
6030
0000
0000
0000
0000
0000
0000
ENDCHAR
STARTCHAR char505
ENCODING 505
SWIDTH 500 0
DWIDTH 12 0
BBX 12 24 0 -6
BITMAP
0000
1800
1800
0C00
0F00
0300
0000
6FE0
6FE0
7830
7830
6030
6030
6030
6030
6030
6030
6030
0000
0000
0000
0000
0000
0000
ENDCHAR
STARTCHAR char506
ENCODING 506
SWIDTH 500 0
DWIDTH 12 0
BBX 12 24 0 -6
BITMAP
0180
0380
0300
0000
0F80
0F80
1860
1FE0
0F80
0D80
1DE0
1860
6030
7FF0
7FF0
6030
6030
6030
0000
0000
0000
0000
0000
0000
ENDCHAR
STARTCHAR char507
ENCODING 507
SWIDTH 500 0
DWIDTH 12 0
BBX 12 24 0 -6
BITMAP
0180
0380
0300
0000
0380
0380
0C60
0FE0
0380
1FE0
1FF0
0030
1FF0
7FF0
6030
6070
7FF0
1FB0
0000
0000
0000
0000
0000
0000
ENDCHAR
STARTCHAR char508
ENCODING 508
SWIDTH 500 0
DWIDTH 12 0
BBX 12 24 0 -6
BITMAP
0060
01E0
0180
0300
0300
0000
1FF0
7FF0
6300
6300
7FE0
7FE0
6300
6300
6300
6300
63F0
63F0
0000
0000
0000
0000
0000
0000
ENDCHAR
STARTCHAR char509
ENCODING 509
SWIDTH 500 0
DWIDTH 12 0
BBX 12 24 0 -6
BITMAP
0000
0060
0060
0180
0380
0300
0000
1DE0
1DE0
6330
6330
0330
1FE0
7FE0
6300
6330
7FF0
1DF0
0000
0000
0000
0000
0000
0000
ENDCHAR
STARTCHAR char510
ENCODING 510
SWIDTH 500 0
DWIDTH 12 0
BBX 12 24 0 -6
BITMAP
0060
01E0
0180
0300
0330
0030
1FE0
7FF0
6070
61B0
63B0
6330
6330
6F30
6C30
7830
7FF0
1FE0
6000
6000
0000
0000
0000
0000
ENDCHAR
STARTCHAR char511
ENCODING 511
SWIDTH 500 0
DWIDTH 12 0
BBX 12 24 0 -6
BITMAP
0000
0060
0060
0180
0380
0300
0030
1FF0
1FE0
61B0
61B0
61B0
6330
6F30
6C30
6C30
7FF0
1FE0
6000
6000
0000
0000
0000
0000
ENDCHAR
STARTCHAR char512
ENCODING 512
SWIDTH 500 0
DWIDTH 12 0
BBX 12 24 0 -6
BITMAP
0000
1980
1980
0C60
0C60
0000
0F80
1FE0
1860
6030
6030
6030
7FF0
7FF0
6030
6030
6030
6030
0000
0000
0000
0000
0000
0000
ENDCHAR
STARTCHAR char513
ENCODING 513
SWIDTH 500 0
DWIDTH 12 0
BBX 12 24 0 -6
BITMAP
0000
0000
0000
1980
1DE0
0C60
0000
1FE0
1FE0
0030
0030
0030
1FF0
7FF0
6030
6070
7FF0
1FB0
0000
0000
0000
0000
0000
0000
ENDCHAR
STARTCHAR char514
ENCODING 514
SWIDTH 500 0
DWIDTH 12 0
BBX 12 24 0 -6
BITMAP
0000
0F80
0F80
1860
1860
0000
0F80
1FE0
1860
6030
6030
6030
7FF0
7FF0
6030
6030
6030
6030
0000
0000
0000
0000
0000
0000
ENDCHAR
STARTCHAR char515
ENCODING 515
SWIDTH 500 0
DWIDTH 12 0
BBX 12 24 0 -6
BITMAP
0000
0000
0000
0F80
1FE0
1860
0000
1FE0
1FE0
0030
0030
0030
1FF0
7FF0
6030
6070
7FF0
1FB0
0000
0000
0000
0000
0000
0000
ENDCHAR
STARTCHAR char516
ENCODING 516
SWIDTH 500 0
DWIDTH 12 0
BBX 12 24 0 -6
BITMAP
0000
1980
1980
0C60
0C60
0000
7FF0
7FF0
6000
6000
7F80
7F80
6000
6000
6000
6000
7FF0
7FF0
0000
0000
0000
0000
0000
0000
ENDCHAR
STARTCHAR char517
ENCODING 517
SWIDTH 500 0
DWIDTH 12 0
BBX 12 24 0 -6
BITMAP
0000
0000
0000
1980
1DE0
0C60
0000
1FE0
1FE0
6030
6030
6030
7FF0
7FF0
6000
6000
7FE0
1FE0
0000
0000
0000
0000
0000
0000
ENDCHAR
STARTCHAR char518
ENCODING 518
SWIDTH 500 0
DWIDTH 12 0
BBX 12 24 0 -6
BITMAP
0000
0F80
0F80
1860
1860
0000
7FF0
7FF0
6000
6000
7F80
7F80
6000
6000
6000
6000
7FF0
7FF0
0000
0000
0000
0000
0000
0000
ENDCHAR
STARTCHAR char519
ENCODING 519
SWIDTH 500 0
DWIDTH 12 0
BBX 12 24 0 -6
BITMAP
0000
0000
0000
0F80
1FE0
1860
0000
1FE0
1FE0
6030
6030
6030
7FF0
7FF0
6000
6000
7FE0
1FE0
0000
0000
0000
0000
0000
0000
ENDCHAR
STARTCHAR char520
ENCODING 520
SWIDTH 500 0
DWIDTH 12 0
BBX 12 24 0 -6
BITMAP
0000
1980
1980
0C60
0C60
0000
1FE0
1FE0
0300
0300
0300
0300
0300
0300
0300
0300
1FE0
1FE0
0000
0000
0000
0000
0000
0000
ENDCHAR
STARTCHAR char521
ENCODING 521
SWIDTH 500 0
DWIDTH 12 0
BBX 12 24 0 -6
BITMAP
0000
6300
6300
1980
1980
0000
1F00
1F00
0300
0300
0300
0300
0300
0300
0300
0300
1FE0
1FE0
0000
0000
0000
0000
0000
0000
ENDCHAR
STARTCHAR char522
ENCODING 522
SWIDTH 500 0
DWIDTH 12 0
BBX 12 24 0 -6
BITMAP
0000
0F80
0F80
1860
1860
0000
1FE0
1FE0
0300
0300
0300
0300
0300
0300
0300
0300
1FE0
1FE0
0000
0000
0000
0000
0000
0000
ENDCHAR
STARTCHAR char523
ENCODING 523
SWIDTH 500 0
DWIDTH 12 0
BBX 12 24 0 -6
BITMAP
0000
1F00
1F00
6180
6180
0000
1F00
1F00
0300
0300
0300
0300
0300
0300
0300
0300
1FE0
1FE0
0000
0000
0000
0000
0000
0000
ENDCHAR
STARTCHAR char524
ENCODING 524
SWIDTH 500 0
DWIDTH 12 0
BBX 12 24 0 -6
BITMAP
0000
1980
1980
0C60
0C60
0000
1FE0
7FF0
6030
6030
6030
6030
6030
6030
6030
6030
7FF0
1FE0
0000
0000
0000
0000
0000
0000
ENDCHAR
STARTCHAR char525
ENCODING 525
SWIDTH 500 0
DWIDTH 12 0
BBX 12 24 0 -6
BITMAP
0000
0000
0000
1980
1DE0
0C60
0000
1FE0
1FE0
6030
6030
6030
6030
6030
6030
6030
7FF0
1FE0
0000
0000
0000
0000
0000
0000
ENDCHAR
STARTCHAR char526
ENCODING 526
SWIDTH 500 0
DWIDTH 12 0
BBX 12 24 0 -6
BITMAP
0000
0F80
0F80
1860
1860
0000
1FE0
7FF0
6030
6030
6030
6030
6030
6030
6030
6030
7FF0
1FE0
0000
0000
0000
0000
0000
0000
ENDCHAR
STARTCHAR char527
ENCODING 527
SWIDTH 500 0
DWIDTH 12 0
BBX 12 24 0 -6
BITMAP
0000
0000
0000
0F80
1FE0
1860
0000
1FE0
1FE0
6030
6030
6030
6030
6030
6030
6030
7FF0
1FE0
0000
0000
0000
0000
0000
0000
ENDCHAR
STARTCHAR char528
ENCODING 528
SWIDTH 500 0
DWIDTH 12 0
BBX 12 24 0 -6
BITMAP
0000
1980
1980
0C60
0C60
0000
7FE0
7FF0
6030
6030
6030
6030
7FE0
7FE0
6060
6030
6030
6030
0000
0000
0000
0000
0000
0000
ENDCHAR
STARTCHAR char529
ENCODING 529
SWIDTH 500 0
DWIDTH 12 0
BBX 12 24 0 -6
BITMAP
0000
0000
0000
1980
1DE0
0C60
0000
63E0
63E0
1C30
1C30
1830
1800
1800
1800
1800
1800
1800
0000
0000
0000
0000
0000
0000
ENDCHAR
STARTCHAR char530
ENCODING 530
SWIDTH 500 0
DWIDTH 12 0
BBX 12 24 0 -6
BITMAP
0000
0F80
0F80
1860
1860
0000
7FE0
7FF0
6030
6030
6030
6030
7FE0
7FE0
6060
6030
6030
6030
0000
0000
0000
0000
0000
0000
ENDCHAR
STARTCHAR char531
ENCODING 531
SWIDTH 500 0
DWIDTH 12 0
BBX 12 24 0 -6
BITMAP
0000
0000
0000
0F80
1FE0
1860
0000
63E0
63E0
1C30
1C30
1830
1800
1800
1800
1800
1800
1800
0000
0000
0000
0000
0000
0000
ENDCHAR
STARTCHAR char532
ENCODING 532
SWIDTH 500 0
DWIDTH 12 0
BBX 12 24 0 -6
BITMAP
0000
1980
1980
0C60
0C60
0000
6030
6030
6030
6030
6030
6030
6030
6030
6030
6030
7FF0
1FE0
0000
0000
0000
0000
0000
0000
ENDCHAR
STARTCHAR char533
ENCODING 533
SWIDTH 500 0
DWIDTH 12 0
BBX 12 24 0 -6
BITMAP
0000
0000
0000
6300
7B80
1980
0000
6060
6060
6060
6060
6060
6060
6060
6060
6060
7FF0
1FB0
0000
0000
0000
0000
0000
0000
ENDCHAR
STARTCHAR char534
ENCODING 534
SWIDTH 500 0
DWIDTH 12 0
BBX 12 24 0 -6
BITMAP
0000
0F80
0F80
1860
1860
0000
6030
6030
6030
6030
6030
6030
6030
6030
6030
6030
7FF0
1FE0
0000
0000
0000
0000
0000
0000
ENDCHAR
STARTCHAR char535
ENCODING 535
SWIDTH 500 0
DWIDTH 12 0
BBX 12 24 0 -6
BITMAP
0000
0000
0000
0F80
1FE0
1860
0000
6060
6060
6060
6060
6060
6060
6060
6060
6060
7FF0
1FB0
0000
0000
0000
0000
0000
0000
ENDCHAR
STARTCHAR char536
ENCODING 536
SWIDTH 500 0
DWIDTH 12 0
BBX 12 24 0 -6
BITMAP
0000
0000
0000
1FE0
7FF0
6030
6030
6030
6000
1F00
1FE0
01E0
0030
6030
6030
6030
7FF0
1FE0
0380
0380
0180
0300
0300
0000
ENDCHAR
STARTCHAR char537
ENCODING 537
SWIDTH 500 0
DWIDTH 12 0
BBX 12 24 0 -6
BITMAP
0000
0000
0000
0000
0000
0000
0000
1FE0
1FE0
6030
6030
6000
1FE0
1FF0
0030
6030
7FF0
1FE0
0380
0380
0180
0300
0300
0000
ENDCHAR
STARTCHAR char538
ENCODING 538
SWIDTH 500 0
DWIDTH 12 0
BBX 12 24 0 -6
BITMAP
0000
0000
0000
7FF0
7FF0
0300
0300
0300
0300
0300
0300
0300
0300
0300
0300
0300
0300
0300
0380
0380
0180
0300
0300
0000
ENDCHAR
STARTCHAR char539
ENCODING 539
SWIDTH 500 0
DWIDTH 12 0
BBX 12 24 0 -6
BITMAP
0000
0000
0000
0000
0C00
0C00
0C00
7FE0
7FE0
0C00
0C00
0C00
0C00
0C00
0C00
0C30
0FF0
03E0
0380
0380
0180
0300
0300
0000
ENDCHAR
STARTCHAR char540
ENCODING 540
SWIDTH 500 0
DWIDTH 12 0
BBX 12 24 0 -6
BITMAP
0000
0000
0000
6FE0
7FF0
7830
0030
0070
0060
0380
1FE0
1C60
0030
0030
0030
01E0
7FE0
7F00
0000
0000
0000
0000
0000
0000
ENDCHAR
STARTCHAR char541
ENCODING 541
SWIDTH 500 0
DWIDTH 12 0
BBX 12 24 0 -6
BITMAP
0000
0000
0000
0000
0000
0000
0000
1BE0
1BE0
1C30
1C30
0030
0060
03E0
0380
1C60
1C70
0030
0030
01F0
01E0
1F00
1F00
0000
ENDCHAR
STARTCHAR char542
ENCODING 542
SWIDTH 500 0
DWIDTH 12 0
BBX 12 24 0 -6
BITMAP
1860
1DE0
0D80
0300
6330
6030
6030
6030
6030
6030
7FF0
7FF0
6030
6030
6030
6030
6030
6030
0000
0000
0000
0000
0000
0000
ENDCHAR
STARTCHAR char543
ENCODING 543
SWIDTH 500 0
DWIDTH 12 0
BBX 12 24 0 -6
BITMAP
1860
1DE0
0D80
6300
6300
6000
6000
6FE0
6FE0
7830
7830
6030
6030
6030
6030
6030
6030
6030
0000
0000
0000
0000
0000
0000
ENDCHAR
STARTCHAR char544
ENCODING 544
SWIDTH 500 0
DWIDTH 12 0
BBX 12 24 0 -6
BITMAP
0000
0000
0000
6FE0
7FF0
7830
6030
6030
6030
6030
6030
6030
6030
6030
6030
6030
6030
6030
0030
0030
0030
0030
0030
0000
ENDCHAR
STARTCHAR char546
ENCODING 546
SWIDTH 500 0
DWIDTH 12 0
BBX 12 24 0 -6
BITMAP
0000
0000
0000
1860
7870
6030
6030
6030
6030
1FE0
7FF0
6030
6030
6030
6030
6030
7FF0
1FE0
0000
0000
0000
0000
0000
0000
ENDCHAR
STARTCHAR char547
ENCODING 547
SWIDTH 500 0
DWIDTH 12 0
BBX 12 24 0 -6
BITMAP
0000
0000
0000
0000
0C60
0C60
1830
1830
1830
1830
1FF0
0FE0
1830
1830
1830
1830
1FF0
0FE0
0000
0000
0000
0000
0000
0000
ENDCHAR
STARTCHAR char548
ENCODING 548
SWIDTH 500 0
DWIDTH 12 0
BBX 12 24 0 -6
BITMAP
0000
0000
0000
7FF0
7FF0
0030
0060
01E0
0180
0300
0F00
0C00
1800
7800
6000
6000
7FF0
7FF0
0030
01F0
01E0
0000
0000
0000
ENDCHAR
STARTCHAR char549
ENCODING 549
SWIDTH 500 0
DWIDTH 12 0
BBX 12 24 0 -6
BITMAP
0000
0000
0000
0000
0000
0000
0000
7FF0
7FF0
0060
01E0
0180
0300
0F00
0C00
1800
7FF0
7FF0
0030
01F0
01E0
0000
0000
0000
ENDCHAR
STARTCHAR char550
ENCODING 550
SWIDTH 500 0
DWIDTH 12 0
BBX 12 24 0 -6
BITMAP
0000
0300
0300
0000
0F80
0F80
1860
7870
6030
6030
6030
6030
7FF0
7FF0
6030
6030
6030
6030
0000
0000
0000
0000
0000
0000
ENDCHAR
STARTCHAR char551
ENCODING 551
SWIDTH 500 0
DWIDTH 12 0
BBX 12 24 0 -6
BITMAP
0000
0000
0000
0000
0300
0300
0000
1FE0
1FE0
0030
0030
0030
1FF0
7FF0
6030
6070
7FF0
1FB0
0000
0000
0000
0000
0000
0000
ENDCHAR
STARTCHAR char552
ENCODING 552
SWIDTH 500 0
DWIDTH 12 0
BBX 12 24 0 -6
BITMAP
0000
0000
0000
7FF0
7FF0
6000
6000
6000
6000
7F80
7F80
6000
6000
6000
6000
6000
7FF0
7FF0
0300
1B80
1980
0F00
0F00
0000
ENDCHAR
STARTCHAR char553
ENCODING 553
SWIDTH 500 0
DWIDTH 12 0
BBX 12 24 0 -6
BITMAP
0000
0000
0000
0000
0000
0000
0000
1FE0
1FE0
6030
6030
6030
7FF0
7FF0
6000
6000
7FE0
1FE0
0300
1B80
1980
0F00
0F00
0000
ENDCHAR
STARTCHAR char554
ENCODING 554
SWIDTH 500 0
DWIDTH 12 0
BBX 12 24 0 -6
BITMAP
1FE0
1FE0
0000
0D80
0D80
0000
1FE0
7FF0
6030
6030
6030
6030
6030
6030
6030
6030
7FF0
1FE0
0000
0000
0000
0000
0000
0000
ENDCHAR
STARTCHAR char555
ENCODING 555
SWIDTH 500 0
DWIDTH 12 0
BBX 12 24 0 -6
BITMAP
0000
7FE0
7FE0
0000
1980
1980
0000
1F80
1F80
6060
6060
6060
6060
6060
6060
6060
7FE0
1F80
0000
0000
0000
0000
0000
0000
ENDCHAR
STARTCHAR char556
ENCODING 556
SWIDTH 500 0
DWIDTH 12 0
BBX 12 24 0 -6
BITMAP
1FE0
1FE0
0F60
1B80
1B80
0000
1FE0
7FF0
6030
6030
6030
6030
6030
6030
6030
6030
7FF0
1FE0
0000
0000
0000
0000
0000
0000
ENDCHAR
STARTCHAR char557
ENCODING 557
SWIDTH 500 0
DWIDTH 12 0
BBX 12 24 0 -6
BITMAP
7FE0
7FE0
0000
0D80
1F80
1B00
0000
1F80
1F80
6060
6060
6060
6060
6060
6060
6060
7FE0
1F80
0000
0000
0000
0000
0000
0000
ENDCHAR
STARTCHAR char558
ENCODING 558
SWIDTH 500 0
DWIDTH 12 0
BBX 12 24 0 -6
BITMAP
0300
0300
0000
1FE0
7FF0
6030
6030
6030
6030
6030
6030
6030
6030
6030
6030
6030
7FF0
1FE0
0000
0000
0000
0000
0000
0000
ENDCHAR
STARTCHAR char559
ENCODING 559
SWIDTH 500 0
DWIDTH 12 0
BBX 12 24 0 -6
BITMAP
0000
0000
0000
0000
0300
0300
0000
1FE0
1FE0
6030
6030
6030
6030
6030
6030
6030
7FF0
1FE0
0000
0000
0000
0000
0000
0000
ENDCHAR
STARTCHAR char560
ENCODING 560
SWIDTH 500 0
DWIDTH 12 0
BBX 12 24 0 -6
BITMAP
1FE0
1FE0
0000
0300
0300
0000
1FE0
7FF0
6030
6030
6030
6030
6030
6030
6030
6030
7FF0
1FE0
0000
0000
0000
0000
0000
0000
ENDCHAR
STARTCHAR char561
ENCODING 561
SWIDTH 500 0
DWIDTH 12 0
BBX 12 24 0 -6
BITMAP
0000
1FE0
1FE0
0000
0300
0300
0000
1FE0
1FE0
6030
6030
6030
6030
6030
6030
6030
7FF0
1FE0
0000
0000
0000
0000
0000
0000
ENDCHAR
STARTCHAR char562
ENCODING 562
SWIDTH 500 0
DWIDTH 12 0
BBX 12 24 0 -6
BITMAP
0000
1FE0
1FE0
0000
6030
6030
6030
7870
1860
0D80
0F80
0300
0300
0300
0300
0300
0300
0300
0000
0000
0000
0000
0000
0000
ENDCHAR
STARTCHAR char563
ENCODING 563
SWIDTH 500 0
DWIDTH 12 0
BBX 12 24 0 -6
BITMAP
0000
0000
0000
0000
1F80
1F80
0000
6060
6060
6060
6060
6060
6060
6060
6060
61E0
7FE0
1F60
0060
6060
6060
1F80
1F80
0000
ENDCHAR
STARTCHAR char592
ENCODING 592
SWIDTH 500 0
DWIDTH 12 0
BBX 12 24 0 -6
BITMAP
0000
0000
0000
0000
0000
0000
0000
6FE0
6FE0
7830
7830
6030
7FE0
7FE0
6000
6000
7FE0
1FE0
0000
0000
0000
0000
0000
0000
ENDCHAR
STARTCHAR char593
ENCODING 593
SWIDTH 500 0
DWIDTH 12 0
BBX 12 24 0 -6
BITMAP
0000
0000
0000
0000
0000
0000
0000
1FB0
1FB0
6070
6070
6030
6030
6030
6030
6070
7FF0
1FB0
0000
0000
0000
0000
0000
0000
ENDCHAR
STARTCHAR char594
ENCODING 594
SWIDTH 500 0
DWIDTH 12 0
BBX 12 24 0 -6
BITMAP
0000
0000
0000
0000
0000
0000
0000
6FE0
6FE0
7830
7830
6030
6030
6030
6030
7830
7FF0
6FE0
0000
0000
0000
0000
0000
0000
ENDCHAR
STARTCHAR char595
ENCODING 595
SWIDTH 500 0
DWIDTH 12 0
BBX 12 24 0 -6
BITMAP
0000
1F00
1F00
6180
6180
6000
6000
6FE0
6FE0
7830
7830
6030
6030
6030
6030
7830
7FF0
6FE0
0000
0000
0000
0000
0000
0000
ENDCHAR
STARTCHAR char596
ENCODING 596
SWIDTH 500 0
DWIDTH 12 0
BBX 12 24 0 -6
BITMAP
0000
0000
0000
0000
0000
0000
0000
1FE0
1FE0
6030
6030
0030
0030
0030
0030
6030
7FF0
1FE0
0000
0000
0000
0000
0000
0000
ENDCHAR
STARTCHAR char597
ENCODING 597
SWIDTH 500 0
DWIDTH 12 0
BBX 12 24 0 -6
BITMAP
0000
0000
0000
0000
0000
0000
0000
1FE0
1FE0
6030
6030
6000
6000
61E0
61E0
6330
7FF0
1FE0
0C00
0C00
0000
0000
0000
0000
ENDCHAR
STARTCHAR char598
ENCODING 598
SWIDTH 500 0
DWIDTH 12 0
BBX 12 24 0 -6
BITMAP
0000
0000
0000
0060
0060
0060
0060
1F60
1F60
61E0
61E0
6060
6060
6060
6060
61E0
7FE0
1F60
0030
0030
0000
0000
0000
0000
ENDCHAR
STARTCHAR char599
ENCODING 599
SWIDTH 500 0
DWIDTH 12 0
BBX 12 24 0 -6
BITMAP
0000
0000
0000
0030
0070
0060
0060
1F60
1F60
61E0
61E0
6060
6060
6060
6060
61E0
7FE0
1F60
0000
0000
0000
0000
0000
0000
ENDCHAR
STARTCHAR char600
ENCODING 600
SWIDTH 500 0
DWIDTH 12 0
BBX 12 24 0 -6
BITMAP
0000
0000
0000
0000
0000
0000
0000
1FE0
1FE0
6030
6030
6030
7FF0
7FF0
0030
0030
1FF0
1FE0
0000
0000
0000
0000
0000
0000
ENDCHAR
STARTCHAR char601
ENCODING 601
SWIDTH 500 0
DWIDTH 12 0
BBX 12 24 0 -6
BITMAP
0000
0000
0000
0000
0000
0000
0000
1FE0
1FE0
0030
0030
0030
7FF0
7FF0
6030
6030
7FF0
1FE0
0000
0000
0000
0000
0000
0000
ENDCHAR
STARTCHAR char602
ENCODING 602
SWIDTH 500 0
DWIDTH 12 0
BBX 12 24 0 -6
BITMAP
0000
0000
0000
0000
0000
0000
0000
1F00
1F00
01E0
01F0
01B0
7F80
7F80
6180
6180
7F80
1F00
0000
0000
0000
0000
0000
0000
ENDCHAR
STARTCHAR char603
ENCODING 603
SWIDTH 500 0
DWIDTH 12 0
BBX 12 24 0 -6
BITMAP
0000
0000
0000
0000
0000
0000
0000
1FE0
1FE0
6030
6030
6000
1F80
7F80
6000
6030
7FF0
1FE0
0000
0000
0000
0000
0000
0000
ENDCHAR
STARTCHAR char604
ENCODING 604
SWIDTH 500 0
DWIDTH 12 0
BBX 12 24 0 -6
BITMAP
0000
0000
0000
0000
0000
0000
0000
1FE0
1FE0
6030
6030
0030
0FE0
0FF0
0030
6030
7FF0
1FE0
0000
0000
0000
0000
0000
0000
ENDCHAR
STARTCHAR char605
ENCODING 605
SWIDTH 500 0
DWIDTH 12 0
BBX 12 24 0 -6
BITMAP
0000
0000
0000
0000
0000
0000
0000
1F60
1F60
61B0
61B0
0180
1F00
1F80
0180
6180
7F80
1F00
0000
0000
0000
0000
0000
0000
ENDCHAR
STARTCHAR char606
ENCODING 606
SWIDTH 500 0
DWIDTH 12 0
BBX 12 24 0 -6
BITMAP
0000
0000
0000
0000
0000
0000
0000
1FE0
1FE0
6030
6030
6030
6FE0
6FF0
6030
6030
7FF0
1FE0
0000
0000
0000
0000
0000
0000
ENDCHAR
STARTCHAR char607
ENCODING 607
SWIDTH 500 0
DWIDTH 12 0
BBX 12 24 0 -6
BITMAP
0000
0000
0000
0000
0000
0000
0000
0180
0180
0180
0180
0180
0180
0FF0
0FF0
0180
0180
0180
6180
6180
6180
1F00
1F00
0000
ENDCHAR
STARTCHAR char608
ENCODING 608
SWIDTH 500 0
DWIDTH 12 0
BBX 12 24 0 -6
BITMAP
0000
0000
0000
0030
0070
0060
0060
1FE0
1FE0
6060
6060
6060
6060
6060
6060
61E0
7FE0
1F60
0060
6060
6060
1F80
1F80
0000
ENDCHAR
STARTCHAR char609
ENCODING 609
SWIDTH 500 0
DWIDTH 12 0
BBX 12 24 0 -6
BITMAP
0000
0000
0000
0000
0000
0000
0000
1F80
1F80
6060
6060
6060
6060
6060
6060
61E0
7FE0
1F60
0060
6060
6060
1F80
1F80
0000
ENDCHAR
STARTCHAR char610
ENCODING 610
SWIDTH 500 0
DWIDTH 12 0
BBX 12 24 0 -6
BITMAP
0000
0000
0000
0000
0000
0000
0000
1FE0
1FE0
6030
6030
6000
61F0
61F0
6030
6030
7FF0
1FE0
0000
0000
0000
0000
0000
0000
ENDCHAR
STARTCHAR char611
ENCODING 611
SWIDTH 500 0
DWIDTH 12 0
BBX 12 24 0 -6
BITMAP
0000
0000
0000
0000
0000
0000
0000
6030
6030
6030
7870
1860
0D80
0D80
0D80
0300
0300
0300
0D80
0F80
0300
0000
0000
0000
ENDCHAR
STARTCHAR char612
ENCODING 612
SWIDTH 500 0
DWIDTH 12 0
BBX 12 24 0 -6
BITMAP
0000
0000
0000
0000
0000
0000
0000
1860
1860
6DB0
6DB0
0D80
0300
0F80
0D80
0D80
0F80
0300
0000
0000
0000
0000
0000
0000
ENDCHAR
STARTCHAR char613
ENCODING 613
SWIDTH 500 0
DWIDTH 12 0
BBX 12 24 0 -6
BITMAP
0000
0000
0000
0000
0000
0000
0000
6030
6030
6030
6030
6030
6030
6030
6030
6070
7FF0
1FB0
0030
0030
0030
0030
0030
0000
ENDCHAR
STARTCHAR char614
ENCODING 614
SWIDTH 500 0
DWIDTH 12 0
BBX 12 24 0 -6
BITMAP
0000
0000
0000
1C00
7C00
6000
6000
6FE0
6FE0
7830
7830
6030
6030
6030
6030
6030
6030
6030
0000
0000
0000
0000
0000
0000
ENDCHAR
STARTCHAR char615
ENCODING 615
SWIDTH 500 0
DWIDTH 12 0
BBX 12 24 0 -6
BITMAP
0000
0000
0000
1C00
7C00
6000
6000
6FE0
6FE0
7830
7830
6030
6030
6030
6030
6030
6030
6030
0330
03F0
01E0
0000
0000
0000
ENDCHAR
STARTCHAR char616
ENCODING 616
SWIDTH 500 0
DWIDTH 12 0
BBX 12 24 0 -6
BITMAP
0000
0000
0000
0F00
0F00
0000
0000
1F00
1F00
0300
0300
0300
0F80
0F80
0300
0300
1FE0
1FE0
0000
0000
0000
0000
0000
0000
ENDCHAR
STARTCHAR char617
ENCODING 617
SWIDTH 500 0
DWIDTH 12 0
BBX 12 24 0 -6
BITMAP
0000
0000
0000
0000
0000
0000
0000
0F00
0F00
0300
0300
0300
0300
0300
0300
0360
03E0
0180
0000
0000
0000
0000
0000
0000
ENDCHAR
STARTCHAR char618
ENCODING 618
SWIDTH 500 0
DWIDTH 12 0
BBX 12 24 0 -6
BITMAP
0000
0000
0000
0000
0000
0000
0000
1FE0
1FE0
0300
0300
0300
0300
0300
0300
0300
1FE0
1FE0
0000
0000
0000
0000
0000
0000
ENDCHAR
STARTCHAR char619
ENCODING 619
SWIDTH 500 0
DWIDTH 12 0
BBX 12 24 0 -6
BITMAP
0000
0000
0000
1F00
1F00
0300
0300
0300
0300
0F60
1FE0
1B80
0300
0300
0300
0300
1FE0
1FE0
0000
0000
0000
0000
0000
0000
ENDCHAR
STARTCHAR char620
ENCODING 620
SWIDTH 500 0
DWIDTH 12 0
BBX 12 24 0 -6
BITMAP
0000
0000
0000
1F00
1F00
0300
0300
0F00
0F00
1B00
1FE0
0FE0
0300
0300
0300
0300
1FE0
1FE0
0000
0000
0000
0000
0000
0000
ENDCHAR
STARTCHAR char621
ENCODING 621
SWIDTH 500 0
DWIDTH 12 0
BBX 12 24 0 -6
BITMAP
0000
0000
0000
1F00
1F00
0300
0300
0300
0300
0300
0300
0300
0300
0300
0300
0300
0300
0300
0330
03F0
01E0
0000
0000
0000
ENDCHAR
STARTCHAR char622
ENCODING 622
SWIDTH 500 0
DWIDTH 12 0
BBX 12 24 0 -6
BITMAP
0000
0000
0000
7800
7800
1800
1800
1BF0
1BF0
1830
1870
1860
19E0
19F0
1830
1830
7C30
7C30
03E0
03E0
0000
0000
0000
0000
ENDCHAR
STARTCHAR char623
ENCODING 623
SWIDTH 500 0
DWIDTH 12 0
BBX 12 24 0 -6
BITMAP
0000
0000
0000
0000
0000
0000
0000
6030
6030
6330
6330
6330
6330
6330
6330
6330
7FF0
1DF0
0000
0000
0000
0000
0000
0000
ENDCHAR
STARTCHAR char624
ENCODING 624
SWIDTH 500 0
DWIDTH 12 0
BBX 12 24 0 -6
BITMAP
0000
0000
0000
0000
0000
0000
0000
6030
6030
6330
6330
6330
6330
6330
6330
6330
7FF0
1DF0
0030
0030
0030
0000
0000
0000
ENDCHAR
STARTCHAR char625
ENCODING 625
SWIDTH 500 0
DWIDTH 12 0
BBX 12 24 0 -6
BITMAP
0000
0000
0000
0000
0000
0000
0000
7DE0
7DE0
6330
6330
6330
6330
6330
6330
6330
6330
6030
0330
03F0
01E0
0000
0000
0000
ENDCHAR
STARTCHAR char626
ENCODING 626
SWIDTH 500 0
DWIDTH 12 0
BBX 12 24 0 -6
BITMAP
0000
0000
0000
0000
0000
0000
0000
6FE0
6FE0
7830
7830
6030
6030
6030
6030
6030
6030
6030
6000
E000
C000
0000
0000
0000
ENDCHAR
STARTCHAR char627
ENCODING 627
SWIDTH 500 0
DWIDTH 12 0
BBX 12 24 0 -6
BITMAP
0000
0000
0000
0000
0000
0000
0000
6F80
6F80
7860
7860
6060
6060
6060
6060
6060
6060
6060
0060
0070
0030
0000
0000
0000
ENDCHAR
STARTCHAR char628
ENCODING 628
SWIDTH 500 0
DWIDTH 12 0
BBX 12 24 0 -6
BITMAP
0000
0000
0000
0000
0000
0000
0000
6030
6030
7830
7C30
6C30
6330
63B0
61B0
6070
6070
6030
0000
0000
0000
0000
0000
0000
ENDCHAR
STARTCHAR char629
ENCODING 629
SWIDTH 500 0
DWIDTH 12 0
BBX 12 24 0 -6
BITMAP
0000
0000
0000
0000
0000
0000
0000
1FE0
1FE0
6030
6030
6030
7FF0
7FF0
6030
6030
7FF0
1FE0
0000
0000
0000
0000
0000
0000
ENDCHAR
STARTCHAR char630
ENCODING 630
SWIDTH 500 0
DWIDTH 12 0
BBX 12 24 0 -6
BITMAP
0000
0000
0000
0000
0000
0000
0000
1FF0
1FF0
6300
6300
6300
63E0
63E0
6300
6300
7FF0
1FF0
0000
0000
0000
0000
0000
0000
ENDCHAR
STARTCHAR char631
ENCODING 631
SWIDTH 500 0
DWIDTH 12 0
BBX 12 24 0 -6
BITMAP
0000
0000
0000
0000
0000
0000
1FE0
7FF0
6030
6330
6330
6330
6330
6330
6330
6330
7FF0
1DE0
0000
0000
0000
0000
0000
0000
ENDCHAR
STARTCHAR char632
ENCODING 632
SWIDTH 500 0
DWIDTH 12 0
BBX 12 24 0 -6
BITMAP
0000
0000
0000
0300
0300
0300
0300
1FE0
1FE0
6330
6330
6330
6330
6330
6330
1FE0
1FE0
0300
0300
0300
0300
0000
0000
0000
ENDCHAR
STARTCHAR char633
ENCODING 633
SWIDTH 500 0
DWIDTH 12 0
BBX 12 24 0 -6
BITMAP
0000
0000
0000
0000
0000
0000
0000
0060
0060
0060
0060
0060
0060
6060
6060
61E0
7FF0
1F30
0000
0000
0000
0000
0000
0000
ENDCHAR
STARTCHAR char634
ENCODING 634
SWIDTH 500 0
DWIDTH 12 0
BBX 12 24 0 -6
BITMAP
0000
0000
0000
0060
0060
0060
0060
0060
0060
0060
0060
0060
0060
6060
6060
61E0
7FF0
1F30
0000
0000
0000
0000
0000
0000
ENDCHAR
STARTCHAR char635
ENCODING 635
SWIDTH 500 0
DWIDTH 12 0
BBX 12 24 0 -6
BITMAP
0000
0000
0000
0000
0000
0000
0000
0060
0060
0060
0060
0060
0060
6060
6060
61E0
7FE0
1F60
0060
0070
0030
0000
0000
0000
ENDCHAR
STARTCHAR char636
ENCODING 636
SWIDTH 500 0
DWIDTH 12 0
BBX 12 24 0 -6
BITMAP
0000
0000
0000
0000
0000
0000
0000
63E0
63E0
1C30
1C30
1830
1800
1800
1800
1800
1800
1800
1800
1800
1800
1800
1800
0000
ENDCHAR
STARTCHAR char637
ENCODING 637
SWIDTH 500 0
DWIDTH 12 0
BBX 12 24 0 -6
BITMAP
0000
0000
0000
0000
0000
0000
0000
63E0
63E0
1C30
1C30
1830
1800
1800
1800
1800
1800
1800
1980
1F80
0F00
0000
0000
0000
ENDCHAR
STARTCHAR char638
ENCODING 638
SWIDTH 500 0
DWIDTH 12 0
BBX 12 24 0 -6
BITMAP
0000
0000
0000
0000
0000
0000
0000
03E0
03E0
0C30
1C30
1830
1800
1800
1800
1800
1800
1800
0000
0000
0000
0000
0000
0000
ENDCHAR
STARTCHAR char639
ENCODING 639
SWIDTH 500 0
DWIDTH 12 0
BBX 12 24 0 -6
BITMAP
0000
0000
0000
0000
0000
0000
0000
0F80
0F80
1860
1870
1830
0030
0030
0030
0030
0030
0030
0000
0000
0000
0000
0000
0000
ENDCHAR
STARTCHAR char640
ENCODING 640
SWIDTH 500 0
DWIDTH 12 0
BBX 12 24 0 -6
BITMAP
0000
0000
0000
0000
0000
0000
0000
7FE0
7FE0
6030
6030
6030
7FE0
7FF0
6030
6030
6030
6030
0000
0000
0000
0000
0000
0000
ENDCHAR
STARTCHAR char641
ENCODING 641
SWIDTH 500 0
DWIDTH 12 0
BBX 12 24 0 -6
BITMAP
0000
0000
0000
0000
0000
0000
0000
6030
6030
6030
6030
6030
7FE0
7FF0
6030
6030
7FF0
7FE0
0000
0000
0000
0000
0000
0000
ENDCHAR
STARTCHAR char642
ENCODING 642
SWIDTH 500 0
DWIDTH 12 0
BBX 12 24 0 -6
BITMAP
0000
0000
0000
0000
0000
0000
0000
1FE0
1FE0
6030
6030
6000
1FE0
1FF0
0030
6030
7FF0
7FE0
6000
7F00
1F00
0000
0000
0000
ENDCHAR
STARTCHAR char643
ENCODING 643
SWIDTH 500 0
DWIDTH 12 0
BBX 12 24 0 -6
BITMAP
0000
0000
0000
01E0
03F0
0330
0300
0300
0300
0300
0300
0300
0300
0300
0300
0300
0300
0300
6300
7F00
1C00
0000
0000
0000
ENDCHAR
STARTCHAR char644
ENCODING 644
SWIDTH 500 0
DWIDTH 12 0
BBX 12 24 0 -6
BITMAP
0000
0000
0000
0070
01F0
0180
0180
0180
0180
0180
0180
0180
0180
0FF0
0FF0
0180
0180
0180
6180
6180
6180
1F00
1F00
0000
ENDCHAR
STARTCHAR char645
ENCODING 645
SWIDTH 500 0
DWIDTH 12 0
BBX 12 24 0 -6
BITMAP
0000
0000
0000
0000
0000
0000
0000
1C00
1C00
6300
6300
0300
0300
0300
0300
0300
0300
0300
0330
03F0
01E0
0000
0000
0000
ENDCHAR
STARTCHAR char646
ENCODING 646
SWIDTH 500 0
DWIDTH 12 0
BBX 12 24 0 -6
BITMAP
0000
0000
0000
01E0
03F0
0330
0300
0300
0300
0300
0300
0300
0300
0300
0300
0300
1F00
1F00
6380
7FE0
1C60
0000
0000
0000
ENDCHAR
STARTCHAR char647
ENCODING 647
SWIDTH 500 0
DWIDTH 12 0
BBX 12 24 0 -6
BITMAP
0000
0000
0000
0000
0000
0000
0000
1F00
1F00
6180
6180
0180
0180
0180
0180
0180
1FF0
1FF0
0180
0180
0180
0000
0000
0000
ENDCHAR
STARTCHAR char648
ENCODING 648
SWIDTH 500 0
DWIDTH 12 0
BBX 12 24 0 -6
BITMAP
0000
0000
0000
0000
0C00
0C00
0C00
7FE0
7FE0
0C00
0C00
0C00
0C00
0C00
0C00
0C00
0C00
0C00
0C60
0FE0
0380
0000
0000
0000
ENDCHAR
STARTCHAR char649
ENCODING 649
SWIDTH 500 0
DWIDTH 12 0
BBX 12 24 0 -6
BITMAP
0000
0000
0000
0000
0000
0000
0000
1860
1860
1860
1860
1860
7FF0
7FF0
1860
1860
1FF0
0FB0
0000
0000
0000
0000
0000
0000
ENDCHAR
STARTCHAR char650
ENCODING 650
SWIDTH 500 0
DWIDTH 12 0
BBX 12 24 0 -6
BITMAP
0000
0000
0000
0000
0000
0000
0000
7DF0
7DF0
1860
7870
6030
6030
6030
6030
1860
1FE0
0F80
0000
0000
0000
0000
0000
0000
ENDCHAR
STARTCHAR char651
ENCODING 651
SWIDTH 500 0
DWIDTH 12 0
BBX 12 24 0 -6
BITMAP
0000
0000
0000
0000
0000
0000
0000
6300
6300
6180
61E0
6060
6060
6060
6060
6180
7F80
1F00
0000
0000
0000
0000
0000
0000
ENDCHAR
STARTCHAR char652
ENCODING 652
SWIDTH 500 0
DWIDTH 12 0
BBX 12 24 0 -6
BITMAP
0000
0000
0000
0000
0000
0000
0000
0300
0300
0D80
0D80
0D80
1860
1860
1860
6030
6030
6030
0000
0000
0000
0000
0000
0000
ENDCHAR
STARTCHAR char653
ENCODING 653
SWIDTH 500 0
DWIDTH 12 0
BBX 12 24 0 -6
BITMAP
0000
0000
0000
0000
0000
0000
0000
1860
1860
6DB0
6FB0
6330
6330
6330
6330
6030
6030
6030
0000
0000
0000
0000
0000
0000
ENDCHAR
STARTCHAR char654
ENCODING 654
SWIDTH 500 0
DWIDTH 12 0
BBX 12 24 0 -6
BITMAP
0000
0000
0000
01E0
03F0
0330
0300
0F00
0C00
0C00
1F00
1B00
1980
1980
1980
6060
6060
6060
0000
0000
0000
0000
0000
0000
ENDCHAR
STARTCHAR char655
ENCODING 655
SWIDTH 500 0
DWIDTH 12 0
BBX 12 24 0 -6
BITMAP
0000
0000
0000
0000
0000
0000
0000
6030
6030
1860
1DE0
0D80
0300
0300
0300
0300
0300
0300
0000
0000
0000
0000
0000
0000
ENDCHAR
STARTCHAR char656
ENCODING 656
SWIDTH 500 0
DWIDTH 12 0
BBX 12 24 0 -6
BITMAP
0000
0000
0000
0000
0000
0000
0000
7FF0
7FF0
0060
01E0
0180
0300
0F00
0C00
1800
7FE0
7FE0
0180
01F0
0070
0000
0000
0000
ENDCHAR
STARTCHAR char657
ENCODING 657
SWIDTH 500 0
DWIDTH 12 0
BBX 12 24 0 -6
BITMAP
0000
0000
0000
0000
0000
0000
0000
7FF0
7FF0
0060
01E0
0180
0300
0F60
0C60
19B0
7FF0
7FE0
0300
0F00
0C00
0000
0000
0000
ENDCHAR
STARTCHAR char658
ENCODING 658
SWIDTH 500 0
DWIDTH 12 0
BBX 12 24 0 -6
BITMAP
0000
0000
0000
0000
0000
0000
0000
7FE0
7FE0
0180
0380
0300
0C00
1F00
1F00
0180
01E0
0060
0060
61E0
6180
1F00
1F00
0000
ENDCHAR
STARTCHAR char659
ENCODING 659
SWIDTH 500 0
DWIDTH 12 0
BBX 12 24 0 -6
BITMAP
0000
0000
0000
0000
0000
0000
0000
1FF0
1FF0
0060
01E0
0180
0300
0F80
0F80
0060
0C70
0C30
1BB0
1BF0
1860
0FB0
0FB0
0000
ENDCHAR
STARTCHAR char660
ENCODING 660
SWIDTH 500 0
DWIDTH 12 0
BBX 12 24 0 -6
BITMAP
0000
0000
0000
0F80
1FE0
1860
1860
1860
0060
0060
03E0
0380
0300
0300
0300
0300
0300
0300
0000
0000
0000
0000
0000
0000
ENDCHAR
STARTCHAR char661
ENCODING 661
SWIDTH 500 0
DWIDTH 12 0
BBX 12 24 0 -6
BITMAP
0000
0000
0000
0F80
1FE0
1860
1860
1860
1800
1800
1F00
0F00
0300
0300
0300
0300
0300
0300
0000
0000
0000
0000
0000
0000
ENDCHAR
STARTCHAR char662
ENCODING 662
SWIDTH 500 0
DWIDTH 12 0
BBX 12 24 0 -6
BITMAP
0000
0000
0000
0300
0300
0300
0300
0300
0300
0380
03E0
0060
0060
1860
1860
1860
1FE0
0F80
0000
0000
0000
0000
0000
0000
ENDCHAR
STARTCHAR char663
ENCODING 663
SWIDTH 500 0
DWIDTH 12 0
BBX 12 24 0 -6
BITMAP
0000
0000
0000
0000
1FE0
1FE0
6030
6030
6000
6000
6000
6000
6000
6000
6000
6000
6000
6000
6030
7FF0
1FE0
0000
0000
0000
ENDCHAR
STARTCHAR char664
ENCODING 664
SWIDTH 500 0
DWIDTH 12 0
BBX 12 24 0 -6
BITMAP
0000
0000
0000
0000
0000
0000
0000
1FE0
1FE0
6030
6030
6030
6330
6330
6030
6030
7FF0
1FE0
0000
0000
0000
0000
0000
0000
ENDCHAR
STARTCHAR char665
ENCODING 665
SWIDTH 500 0
DWIDTH 12 0
BBX 12 24 0 -6
BITMAP
0000
0000
0000
0000
0000
0000
0000
1FE0
1FE0
1830
1830
1830
1FE0
1FF0
1830
1830
1FF0
1FE0
0000
0000
0000
0000
0000
0000
ENDCHAR
STARTCHAR char666
ENCODING 666
SWIDTH 500 0
DWIDTH 12 0
BBX 12 24 0 -6
BITMAP
0000
0000
0000
0000
0000
0000
0000
1F80
1F80
6060
6070
6030
1F30
7F30
6030
6060
7FE0
1F80
0000
0000
0000
0000
0000
0000
ENDCHAR
STARTCHAR char667
ENCODING 667
SWIDTH 500 0
DWIDTH 12 0
BBX 12 24 0 -6
BITMAP
0000
0000
0000
0000
0030
0030
0060
1FE0
1FE0
6030
6030
6000
61F0
61F0
6030
6030
7FF0
1FE0
0000
0000
0000
0000
0000
0000
ENDCHAR
STARTCHAR char668
ENCODING 668
SWIDTH 500 0
DWIDTH 12 0
BBX 12 24 0 -6
BITMAP
0000
0000
0000
0000
0000
0000
0000
6030
6030
6030
6030
6030
7FF0
7FF0
6030
6030
6030
6030
0000
0000
0000
0000
0000
0000
ENDCHAR
STARTCHAR char669
ENCODING 669
SWIDTH 500 0
DWIDTH 12 0
BBX 12 24 0 -6
BITMAP
0000
0000
0000
0380
0380
0000
0000
0F80
0F80
0180
0180
0180
0180
0180
0180
0180
1F80
1F80
61E0
61F0
61B0
1F00
1F00
0000
ENDCHAR
STARTCHAR char670
ENCODING 670
SWIDTH 500 0
DWIDTH 12 0
BBX 12 24 0 -6
BITMAP
0000
0000
0000
0000
0000
0000
0000
6030
6030
1C30
1FB0
03B0
0070
03F0
03B0
1C30
7C30
6030
0030
0030
0030
0030
0030
0000
ENDCHAR
STARTCHAR char671
ENCODING 671
SWIDTH 500 0
DWIDTH 12 0
BBX 12 24 0 -6
BITMAP
0000
0000
0000
0000
0000
0000
0000
6000
6000
6000
6000
6000
6000
6000
6000
6000
7FE0
7FE0
0000
0000
0000
0000
0000
0000
ENDCHAR
STARTCHAR char672
ENCODING 672
SWIDTH 500 0
DWIDTH 12 0
BBX 12 24 0 -6
BITMAP
0000
0000
0000
0030
0070
0060
0060
1F60
1F60
61E0
61E0
6060
6060
6060
6060
61E0
7FE0
1F60
0060
0060
0060
0060
0060
0000
ENDCHAR
STARTCHAR char673
ENCODING 673
SWIDTH 500 0
DWIDTH 12 0
BBX 12 24 0 -6
BITMAP
0000
0000
0000
0F80
1FE0
1860
1860
1860
0060
0060
03E0
0380
0300
1FE0
1FE0
0300
0300
0300
0000
0000
0000
0000
0000
0000
ENDCHAR
STARTCHAR char674
ENCODING 674
SWIDTH 500 0
DWIDTH 12 0
BBX 12 24 0 -6
BITMAP
0000
0000
0000
0F80
1FE0
1860
1860
1860
1800
1800
1F00
0F00
0300
1FE0
1FE0
0300
0300
0300
0000
0000
0000
0000
0000
0000
ENDCHAR
STARTCHAR char675
ENCODING 675
SWIDTH 500 0
DWIDTH 12 0
BBX 12 24 0 -6
BITMAP
0000
0000
0000
0300
0300
0300
0300
1BF0
1BF0
6F00
6F30
6330
6360
63E0
6380
6F80
7FF0
1BF0
0000
0000
0000
0000
0000
0000
ENDCHAR
STARTCHAR char676
ENCODING 676
SWIDTH 500 0
DWIDTH 12 0
BBX 12 24 0 -6
BITMAP
0000
0000
0000
0C00
0C00
0C00
0C00
6FF0
6FF0
DC30
DC70
CC60
CDE0
CDF0
CC30
DC30
FC30
6C30
0330
03F0
01E0
0000
0000
0000
ENDCHAR
STARTCHAR char677
ENCODING 677
SWIDTH 500 0
DWIDTH 12 0
BBX 12 24 0 -6
BITMAP
0000
0000
0000
0C00
0C00
0C00
0C00
6FF0
6FF0
DC30
DC70
CC60
CD80
CD80
CD80
DF70
FFF0
6FE0
0300
0F00
0C00
0000
0000
0000
ENDCHAR
STARTCHAR char678
ENCODING 678
SWIDTH 500 0
DWIDTH 12 0
BBX 12 24 0 -6
BITMAP
0000
0000
0000
0000
1800
1800
1800
7DF0
7DF0
1B00
1B00
1B00
19E0
19F0
1830
1830
1FF0
0FE0
0000
0000
0000
0000
0000
0000
ENDCHAR
STARTCHAR char679
ENCODING 679
SWIDTH 500 0
DWIDTH 12 0
BBX 12 24 0 -6
BITMAP
0000
0000
0000
0060
19F0
19B0
1980
7D80
7D80
1980
1980
1980
1980
1980
1980
1980
1D80
0D80
0180
0F80
0F00
0000
0000
0000
ENDCHAR
STARTCHAR char680
ENCODING 680
SWIDTH 500 0
DWIDTH 12 0
BBX 12 24 0 -6
BITMAP
0000
0000
0000
0000
1800
1800
1800
7DF0
7DF0
1B00
1B00
1B00
1B00
1B60
1B60
1BB0
1FF0
0DE0
0180
0180
0000
0000
0000
0000
ENDCHAR
STARTCHAR char681
ENCODING 681
SWIDTH 500 0
DWIDTH 12 0
BBX 12 24 0 -6
BITMAP
0000
0000
0000
0F80
1FE0
1860
1800
1B60
1B60
1BB0
7FB0
7F30
1B30
1B30
1B30
1B30
1B30
1B30
0030
01F0
01E0
0000
0000
0000
ENDCHAR
STARTCHAR char682
ENCODING 682
SWIDTH 500 0
DWIDTH 12 0
BBX 12 24 0 -6
BITMAP
0000
0000
0000
7800
7800
1800
1800
1BE0
1BE0
1C30
1C30
1C00
1BE0
1BF0
1830
1C30
7FF0
7FE0
0000
0000
0000
0000
0000
0000
ENDCHAR
STARTCHAR char683
ENCODING 683
SWIDTH 500 0
DWIDTH 12 0
BBX 12 24 0 -6
BITMAP
0000
0000
0000
7800
7800
1800
1800
1FF0
1FF0
1830
1870
1860
1980
1B80
1B00
1C00
7FF0
7FF0
0000
0000
0000
0000
0000
0000
ENDCHAR
STARTCHAR char684
ENCODING 684
SWIDTH 500 0
DWIDTH 12 0
BBX 12 24 0 -6
BITMAP
0000
0000
0000
0000
0000
0000
0000
1B60
1B60
1B60
1FE0
0D80
0000
1B60
1B60
1B60
1FE0
0D80
0000
0000
0000
0000
0000
0000
ENDCHAR
STARTCHAR char685
ENCODING 685
SWIDTH 500 0
DWIDTH 12 0
BBX 12 24 0 -6
BITMAP
0000
0000
0000
0000
0000
0000
1FE0
1FE0
1860
1860
1860
0000
1FE0
1FE0
1860
1860
1860
0000
0000
0000
0000
0000
0000
0000
ENDCHAR
STARTCHAR char688
ENCODING 688
SWIDTH 500 0
DWIDTH 12 0
BBX 12 24 0 -6
BITMAP
0000
6000
6000
6000
7C00
7C00
6300
6300
6300
6300
6300
0000
0000
0000
0000
0000
0000
0000
0000
0000
0000
0000
0000
0000
ENDCHAR
STARTCHAR char689
ENCODING 689
SWIDTH 500 0
DWIDTH 12 0
BBX 12 24 0 -6
BITMAP
0000
1C00
1C00
6000
7C00
7C00
6300
6300
6300
6300
6300
0000
0000
0000
0000
0000
0000
0000
0000
0000
0000
0000
0000
0000
ENDCHAR
STARTCHAR char690
ENCODING 690
SWIDTH 500 0
DWIDTH 12 0
BBX 12 24 0 -6
BITMAP
0000
0000
0000
0C00
0C00
0000
0C00
0C00
0C00
0C00
6C00
6C00
1800
1800
0000
0000
0000
0000
0000
0000
0000
0000
0000
0000
ENDCHAR
STARTCHAR char691
ENCODING 691
SWIDTH 500 0
DWIDTH 12 0
BBX 12 24 0 -6
BITMAP
0000
0000
0000
0000
6C00
6C00
7B00
7B00
6000
6000
6000
6000
0000
0000
0000
0000
0000
0000
0000
0000
0000
0000
0000
0000
ENDCHAR
STARTCHAR char692
ENCODING 692
SWIDTH 500 0
DWIDTH 12 0
BBX 12 24 0 -6
BITMAP
0000
0000
0000
0000
0300
0300
0300
0300
0300
6F00
7F00
1B00
0000
0000
0000
0000
0000
0000
0000
0000
0000
0000
0000
0000
ENDCHAR
STARTCHAR char693
ENCODING 693
SWIDTH 500 0
DWIDTH 12 0
BBX 12 24 0 -6
BITMAP
0000
0000
0000
0000
0300
0300
0300
0300
0300
6F00
7F00
1B00
0360
03E0
0180
0000
0000
0000
0000
0000
0000
0000
0000
0000
ENDCHAR
STARTCHAR char694
ENCODING 694
SWIDTH 500 0
DWIDTH 12 0
BBX 12 24 0 -6
BITMAP
0000
0000
0000
6300
6F00
6C00
7C00
7F00
6300
6300
7F00
7C00
0000
0000
0000
0000
0000
0000
0000
0000
0000
0000
0000
0000
ENDCHAR
STARTCHAR char695
ENCODING 695
SWIDTH 500 0
DWIDTH 12 0
BBX 12 24 0 -6
BITMAP
0000
0000
0000
0000
6D80
6D80
6D80
6D80
6D80
1B00
1B00
1B00
0000
0000
0000
0000
0000
0000
0000
0000
0000
0000
0000
0000
ENDCHAR
STARTCHAR char696
ENCODING 696
SWIDTH 500 0
DWIDTH 12 0
BBX 12 24 0 -6
BITMAP
0000
0000
0000
0000
6300
6300
6300
6300
6300
1F00
1F00
0300
7C00
7C00
0000
0000
0000
0000
0000
0000
0000
0000
0000
0000
ENDCHAR
STARTCHAR char697
ENCODING 697
SWIDTH 500 0
DWIDTH 12 0
BBX 12 24 0 -6
BITMAP
0000
0300
0300
0300
0F00
0C00
0C00
0C00
0000
0000
0000
0000
0000
0000
0000
0000
0000
0000
0000
0000
0000
0000
0000
0000
ENDCHAR
STARTCHAR char698
ENCODING 698
SWIDTH 500 0
DWIDTH 12 0
BBX 12 24 0 -6
BITMAP
0000
0C60
0C60
0C60
1DE0
1980
1980
1980
0000
0000
0000
0000
0000
0000
0000
0000
0000
0000
0000
0000
0000
0000
0000
0000
ENDCHAR
STARTCHAR char699
ENCODING 699
SWIDTH 500 0
DWIDTH 12 0
BBX 12 24 0 -6
BITMAP
0000
0000
0000
0180
0380
0300
0380
0380
0380
0000
0000
0000
0000
0000
0000
0000
0000
0000
0000
0000
0000
0000
0000
0000
ENDCHAR
STARTCHAR char700
ENCODING 700
SWIDTH 500 0
DWIDTH 12 0
BBX 12 24 0 -6
BITMAP
0000
0000
0000
0380
0380
0380
0180
0380
0300
0000
0000
0000
0000
0000
0000
0000
0000
0000
0000
0000
0000
0000
0000
0000
ENDCHAR
STARTCHAR char701
ENCODING 701
SWIDTH 500 0
DWIDTH 12 0
BBX 12 24 0 -6
BITMAP
0000
0000
0000
0380
0380
0380
0300
0380
0180
0000
0000
0000
0000
0000
0000
0000
0000
0000
0000
0000
0000
0000
0000
0000
ENDCHAR
STARTCHAR char702
ENCODING 702
SWIDTH 500 0
DWIDTH 12 0
BBX 12 24 0 -6
BITMAP
0000
0000
0000
0F00
0F80
0180
0180
0180
0180
0F00
0F00
0000
0000
0000
0000
0000
0000
0000
0000
0000
0000
0000
0000
0000
ENDCHAR
STARTCHAR char703
ENCODING 703
SWIDTH 500 0
DWIDTH 12 0
BBX 12 24 0 -6
BITMAP
0000
0000
0000
0F00
1F00
1800
1800
1800
1800
0F00
0F00
0000
0000
0000
0000
0000
0000
0000
0000
0000
0000
0000
0000
0000
ENDCHAR
STARTCHAR char704
ENCODING 704
SWIDTH 500 0
DWIDTH 12 0
BBX 12 24 0 -6
BITMAP
0000
0000
0000
0C00
1F00
1B00
0300
0F00
0C00
0C00
0C00
0000
0000
0000
0000
0000
0000
0000
0000
0000
0000
0000
0000
0000
ENDCHAR
STARTCHAR char705
ENCODING 705
SWIDTH 500 0
DWIDTH 12 0
BBX 12 24 0 -6
BITMAP
0000
0000
0000
0C00
1F00
1B00
1800
1C00
0C00
0C00
0C00
0000
0000
0000
0000
0000
0000
0000
0000
0000
0000
0000
0000
0000
ENDCHAR
STARTCHAR char706
ENCODING 706
SWIDTH 500 0
DWIDTH 12 0
BBX 12 24 0 -6
BITMAP
0000
0000
0000
0180
0380
0300
0C00
0F00
0300
0180
0180
0000
0000
0000
0000
0000
0000
0000
0000
0000
0000
0000
0000
0000
ENDCHAR
STARTCHAR char707
ENCODING 707
SWIDTH 500 0
DWIDTH 12 0
BBX 12 24 0 -6
BITMAP
0000
0000
0000
0C00
0F00
0300
0180
0380
0300
0C00
0C00
0000
0000
0000
0000
0000
0000
0000
0000
0000
0000
0000
0000
0000
ENDCHAR
STARTCHAR char708
ENCODING 708
SWIDTH 500 0
DWIDTH 12 0
BBX 12 24 0 -6
BITMAP
0000
0000
0000
0300
0F80
0D80
0D80
1DE0
1860
1860
1860
0000
0000
0000
0000
0000
0000
0000
0000
0000
0000
0000
0000
0000
ENDCHAR
STARTCHAR char709
ENCODING 709
SWIDTH 500 0
DWIDTH 12 0
BBX 12 24 0 -6
BITMAP
0000
0000
0000
1860
1860
1860
0D80
0D80
0D80
0300
0300
0000
0000
0000
0000
0000
0000
0000
0000
0000
0000
0000
0000
0000
ENDCHAR
STARTCHAR char710
ENCODING 710
SWIDTH 500 0
DWIDTH 12 0
BBX 12 24 0 -6
BITMAP
0000
0000
0000
0300
0F80
0D80
1860
1860
0000
0000
0000
0000
0000
0000
0000
0000
0000
0000
0000
0000
0000
0000
0000
0000
ENDCHAR
STARTCHAR char711
ENCODING 711
SWIDTH 500 0
DWIDTH 12 0
BBX 12 24 0 -6
BITMAP
0000
0000
0000
1860
1DE0
0D80
0300
0300
0000
0000
0000
0000
0000
0000
0000
0000
0000
0000
0000
0000
0000
0000
0000
0000
ENDCHAR
STARTCHAR char712
ENCODING 712
SWIDTH 500 0
DWIDTH 12 0
BBX 12 24 0 -6
BITMAP
0000
0000
0000
0300
0300
0300
0300
0300
0000
0000
0000
0000
0000
0000
0000
0000
0000
0000
0000
0000
0000
0000
0000
0000
ENDCHAR
STARTCHAR char713
ENCODING 713
SWIDTH 500 0
DWIDTH 12 0
BBX 12 24 0 -6
BITMAP
0000
0000
0000
1FE0
1FE0
0000
0000
0000
0000
0000
0000
0000
0000
0000
0000
0000
0000
0000
0000
0000
0000
0000
0000
0000
ENDCHAR
STARTCHAR char714
ENCODING 714
SWIDTH 500 0
DWIDTH 12 0
BBX 12 24 0 -6
BITMAP
0000
0180
0180
0300
0F00
0C00
0000
0000
0000
0000
0000
0000
0000
0000
0000
0000
0000
0000
0000
0000
0000
0000
0000
0000
ENDCHAR
STARTCHAR char715
ENCODING 715
SWIDTH 500 0
DWIDTH 12 0
BBX 12 24 0 -6
BITMAP
0000
0C00
0C00
0300
0380
0180
0000
0000
0000
0000
0000
0000
0000
0000
0000
0000
0000
0000
0000
0000
0000
0000
0000
0000
ENDCHAR
STARTCHAR char716
ENCODING 716
SWIDTH 500 0
DWIDTH 12 0
BBX 12 24 0 -6
BITMAP
0000
0000
0000
0000
0000
0000
0000
0000
0000
0000
0000
0000
0000
0000
0000
0000
0300
0300
0300
0300
0300
0000
0000
0000
ENDCHAR
STARTCHAR char717
ENCODING 717
SWIDTH 500 0
DWIDTH 12 0
BBX 12 24 0 -6
BITMAP
0000
0000
0000
0000
0000
0000
0000
0000
0000
0000
0000
0000
0000
0000
0000
0000
0000
0000
0000
1FE0
1FE0
0000
0000
0000
ENDCHAR
STARTCHAR char718
ENCODING 718
SWIDTH 500 0
DWIDTH 12 0
BBX 12 24 0 -6
BITMAP
0000
0000
0000
0000
0000
0000
0000
0000
0000
0000
0000
0000
0000
0000
0000
0000
0000
0000
0C00
0F00
0300
0180
0180
0000
ENDCHAR
STARTCHAR char719
ENCODING 719
SWIDTH 500 0
DWIDTH 12 0
BBX 12 24 0 -6
BITMAP
0000
0000
0000
0000
0000
0000
0000
0000
0000
0000
0000
0000
0000
0000
0000
0000
0000
0000
0180
0380
0300
0C00
0C00
0000
ENDCHAR
STARTCHAR char720
ENCODING 720
SWIDTH 500 0
DWIDTH 12 0
BBX 12 24 0 -6
BITMAP
0000
0000
0000
0000
0000
0000
0000
0F80
0F80
0300
0300
0000
0000
0000
0000
0300
0F80
0F80
0000
0000
0000
0000
0000
0000
ENDCHAR
STARTCHAR char721
ENCODING 721
SWIDTH 500 0
DWIDTH 12 0
BBX 12 24 0 -6
BITMAP
0000
0000
0000
0000
0000
0000
0000
0F80
0F80
0300
0300
0000
0000
0000
0000
0000
0000
0000
0000
0000
0000
0000
0000
0000
ENDCHAR
STARTCHAR char722
ENCODING 722
SWIDTH 500 0
DWIDTH 12 0
BBX 12 24 0 -6
BITMAP
0000
0000
0000
0000
0000
0000
0000
0000
0000
0000
0F00
0F00
0180
0180
0180
0F00
0F00
0000
0000
0000
0000
0000
0000
0000
ENDCHAR
STARTCHAR char723
ENCODING 723
SWIDTH 500 0
DWIDTH 12 0
BBX 12 24 0 -6
BITMAP
0000
0000
0000
0000
0000
0000
0000
0000
0000
0000
0380
0380
0C00
0C00
0C00
0380
0380
0000
0000
0000
0000
0000
0000
0000
ENDCHAR
STARTCHAR char724
ENCODING 724
SWIDTH 500 0
DWIDTH 12 0
BBX 12 24 0 -6
BITMAP
0000
0000
0000
0000
0000
0000
0000
0300
0300
0300
1FE0
1FE0
0000
0000
0000
0000
0000
0000
0000
0000
0000
0000
0000
0000
ENDCHAR
STARTCHAR char725
ENCODING 725
SWIDTH 500 0
DWIDTH 12 0
BBX 12 24 0 -6
BITMAP
0000
0000
0000
0000
0000
0000
0000
0000
0000
0000
1FE0
1FE0
0300
0300
0300
0000
0000
0000
0000
0000
0000
0000
0000
0000
ENDCHAR
STARTCHAR char726
ENCODING 726
SWIDTH 500 0
DWIDTH 12 0
BBX 12 24 0 -6
BITMAP
0000
0000
0000
0000
0000
0000
0000
0300
0300
0300
1FE0
1FE0
0300
0300
0300
0000
0000
0000
0000
0000
0000
0000
0000
0000
ENDCHAR
STARTCHAR char727
ENCODING 727
SWIDTH 500 0
DWIDTH 12 0
BBX 12 24 0 -6
BITMAP
0000
0000
0000
0000
0000
0000
0000
0000
0000
1830
1FF0
1FF0
1830
1830
0000
0000
0000
0000
0000
0000
0000
0000
0000
0000
ENDCHAR
STARTCHAR char728
ENCODING 728
SWIDTH 500 0
DWIDTH 12 0
BBX 12 24 0 -6
BITMAP
0000
1860
1860
0F80
0F80
0000
0000
0000
0000
0000
0000
0000
0000
0000
0000
0000
0000
0000
0000
0000
0000
0000
0000
0000
ENDCHAR
STARTCHAR char729
ENCODING 729
SWIDTH 500 0
DWIDTH 12 0
BBX 12 24 0 -6
BITMAP
0000
0300
0300
0300
0300
0000
0000
0000
0000
0000
0000
0000
0000
0000
0000
0000
0000
0000
0000
0000
0000
0000
0000
0000
ENDCHAR
STARTCHAR char730
ENCODING 730
SWIDTH 500 0
DWIDTH 12 0
BBX 12 24 0 -6
BITMAP
0000
0F00
0F00
1980
1F80
0F00
0000
0000
0000
0000
0000
0000
0000
0000
0000
0000
0000
0000
0000
0000
0000
0000
0000
0000
ENDCHAR
STARTCHAR char731
ENCODING 731
SWIDTH 500 0
DWIDTH 12 0
BBX 12 24 0 -6
BITMAP
0000
0000
0000
0000
0000
0000
0000
0000
0000
0000
0000
0000
0000
0000
0000
0000
0000
0000
0C00
1C00
1800
0F80
0F80
0000
ENDCHAR
STARTCHAR char732
ENCODING 732
SWIDTH 500 0
DWIDTH 12 0
BBX 12 24 0 -6
BITMAP
0000
1F30
1F30
63E0
63E0
0000
0000
0000
0000
0000
0000
0000
0000
0000
0000
0000
0000
0000
0000
0000
0000
0000
0000
0000
ENDCHAR
STARTCHAR char733
ENCODING 733
SWIDTH 500 0
DWIDTH 12 0
BBX 12 24 0 -6
BITMAP
0000
0C30
0C30
1860
79E0
6180
0000
0000
0000
0000
0000
0000
0000
0000
0000
0000
0000
0000
0000
0000
0000
0000
0000
0000
ENDCHAR
STARTCHAR char734
ENCODING 734
SWIDTH 500 0
DWIDTH 12 0
BBX 12 24 0 -6
BITMAP
0000
0000
0000
0000
0000
0000
0000
0C00
0C00
1C60
7C60
6C60
0380
0380
0000
0000
0000
0000
0000
0000
0000
0000
0000
0000
ENDCHAR
STARTCHAR char735
ENCODING 735
SWIDTH 500 0
DWIDTH 12 0
BBX 12 24 0 -6
BITMAP
0000
0D80
0D80
0300
0F80
0D80
0000
0000
0000
0000
0000
0000
0000
0000
0000
0000
0000
0000
0000
0000
0000
0000
0000
0000
ENDCHAR
STARTCHAR char736
ENCODING 736
SWIDTH 500 0
DWIDTH 12 0
BBX 12 24 0 -6
BITMAP
0000
0000
0000
0000
6300
6300
6300
7F00
1C00
1C00
7F00
6300
1C00
1C00
0000
0000
0000
0000
0000
0000
0000
0000
0000
0000
ENDCHAR
STARTCHAR char737
ENCODING 737
SWIDTH 500 0
DWIDTH 12 0
BBX 12 24 0 -6
BITMAP
0000
0000
0000
1C00
1C00
0C00
0C00
0C00
0C00
0C00
1F00
1F00
0000
0000
0000
0000
0000
0000
0000
0000
0000
0000
0000
0000
ENDCHAR
STARTCHAR char738
ENCODING 738
SWIDTH 500 0
DWIDTH 12 0
BBX 12 24 0 -6
BITMAP
0000
0000
0000
0000
1F00
1F00
6000
7C00
1C00
0300
7F00
7C00
0000
0000
0000
0000
0000
0000
0000
0000
0000
0000
0000
0000
ENDCHAR
STARTCHAR char739
ENCODING 739
SWIDTH 500 0
DWIDTH 12 0
BBX 12 24 0 -6
BITMAP
0000
0000
0000
0000
6300
6300
6300
7F00
1C00
6300
6300
6300
0000
0000
0000
0000
0000
0000
0000
0000
0000
0000
0000
0000
ENDCHAR
STARTCHAR char740
ENCODING 740
SWIDTH 500 0
DWIDTH 12 0
BBX 12 24 0 -6
BITMAP
0000
1F00
1F00
6180
6180
6000
1C00
1C00
0C00
0C00
0C00
0C00
0000
0000
0000
0000
0000
0000
0000
0000
0000
0000
0000
0000
ENDCHAR
STARTCHAR char741
ENCODING 741
SWIDTH 500 0
DWIDTH 12 0
BBX 12 24 0 -6
BITMAP
0000
1F80
1F80
0180
0180
0180
0180
0180
0180
0180
0180
0180
0180
0180
0180
0180
0180
0180
0180
0180
0180
0000
0000
0000
ENDCHAR
STARTCHAR char742
ENCODING 742
SWIDTH 500 0
DWIDTH 12 0
BBX 12 24 0 -6
BITMAP
0000
0180
0180
0180
0180
0180
1F80
1F80
0180
0180
0180
0180
0180
0180
0180
0180
0180
0180
0180
0180
0180
0000
0000
0000
ENDCHAR
STARTCHAR char743
ENCODING 743
SWIDTH 500 0
DWIDTH 12 0
BBX 12 24 0 -6
BITMAP
0000
0180
0180
0180
0180
0180
0180
0180
0180
0180
1F80
1F80
0180
0180
0180
0180
0180
0180
0180
0180
0180
0000
0000
0000
ENDCHAR
STARTCHAR char744
ENCODING 744
SWIDTH 500 0
DWIDTH 12 0
BBX 12 24 0 -6
BITMAP
0000
0180
0180
0180
0180
0180
0180
0180
0180
0180
0180
0180
0180
0180
0180
1F80
1F80
0180
0180
0180
0180
0000
0000
0000
ENDCHAR
STARTCHAR char745
ENCODING 745
SWIDTH 500 0
DWIDTH 12 0
BBX 12 24 0 -6
BITMAP
0000
0180
0180
0180
0180
0180
0180
0180
0180
0180
0180
0180
0180
0180
0180
0180
0180
0180
0180
1F80
1F80
0000
0000
0000
ENDCHAR
STARTCHAR char746
ENCODING 746
SWIDTH 500 0
DWIDTH 12 0
BBX 12 24 0 -6
BITMAP
0000
0000
0000
0000
0000
0000
0000
0000
0000
0000
0000
0000
0000
0000
0000
1F80
1F80
0180
0180
0180
0180
0000
0000
0000
ENDCHAR
STARTCHAR char747
ENCODING 747
SWIDTH 500 0
DWIDTH 12 0
BBX 12 24 0 -6
BITMAP
0000
0000
0000
0000
0000
0000
0000
0000
0000
0000
0C00
0C00
0C00
0C00
0C00
0FE0
0FE0
0C00
0C00
0C00
0C00
0000
0000
0000
ENDCHAR
STARTCHAR char748
ENCODING 748
SWIDTH 500 0
DWIDTH 12 0
BBX 12 24 0 -6
BITMAP
0000
0000
0000
0000
0000
0000
0000
0000
0000
0000
0000
0000
0000
0000
0000
0000
1860
1860
0D80
0F80
0300
0000
0000
0000
ENDCHAR
STARTCHAR char749
ENCODING 749
SWIDTH 500 0
DWIDTH 12 0
BBX 12 24 0 -6
BITMAP
0000
0000
0000
0000
0000
0000
0000
0000
0000
1F80
1F80
0000
1F80
1F80
0000
0000
0000
0000
0000
0000
0000
0000
0000
0000
ENDCHAR
STARTCHAR char750
ENCODING 750
SWIDTH 500 0
DWIDTH 12 0
BBX 12 24 0 -6
BITMAP
0000
0000
0000
1DE0
1DE0
1DE0
0C60
1DE0
1980
0000
0000
0000
0000
0000
0000
0000
0000
0000
0000
0000
0000
0000
0000
0000
ENDCHAR
STARTCHAR char768
ENCODING 768
SWIDTH 500 0
DWIDTH 12 0
BBX 12 24 0 -6
BITMAP
1800
1C00
0C00
0300
0300
0000
0000
0000
0000
0000
0000
0000
0000
0000
0000
0000
0000
0000
0000
0000
0000
0000
0000
0000
ENDCHAR
STARTCHAR char769
ENCODING 769
SWIDTH 500 0
DWIDTH 12 0
BBX 12 24 0 -6
BITMAP
0060
01E0
0180
0300
0300
0000
0000
0000
0000
0000
0000
0000
0000
0000
0000
0000
0000
0000
0000
0000
0000
0000
0000
0000
ENDCHAR
STARTCHAR char770
ENCODING 770
SWIDTH 500 0
DWIDTH 12 0
BBX 12 24 0 -6
BITMAP
0300
0F80
0D80
1860
1860
0000
0000
0000
0000
0000
0000
0000
0000
0000
0000
0000
0000
0000
0000
0000
0000
0000
0000
0000
ENDCHAR
STARTCHAR char771
ENCODING 771
SWIDTH 500 0
DWIDTH 12 0
BBX 12 24 0 -6
BITMAP
0000
1E10
3F30
63F0
61E0
0000
0000
0000
0000
0000
0000
0000
0000
0000
0000
0000
0000
0000
0000
0000
0000
0000
0000
0000
ENDCHAR
STARTCHAR char772
ENCODING 772
SWIDTH 500 0
DWIDTH 12 0
BBX 12 24 0 -6
BITMAP
0000
0000
0000
7FE0
7FE0
0000
0000
0000
0000
0000
0000
0000
0000
0000
0000
0000
0000
0000
0000
0000
0000
0000
0000
0000
ENDCHAR
STARTCHAR char773
ENCODING 773
SWIDTH 500 0
DWIDTH 12 0
BBX 12 24 0 -6
BITMAP
0000
FFF0
FFF0
0000
0000
0000
0000
0000
0000
0000
0000
0000
0000
0000
0000
0000
0000
0000
0000
0000
0000
0000
0000
0000
ENDCHAR
STARTCHAR char774
ENCODING 774
SWIDTH 500 0
DWIDTH 12 0
BBX 12 24 0 -6
BITMAP
0000
1860
1860
0F80
0F80
0000
0000
0000
0000
0000
0000
0000
0000
0000
0000
0000
0000
0000
0000
0000
0000
0000
0000
0000
ENDCHAR
STARTCHAR char775
ENCODING 775
SWIDTH 500 0
DWIDTH 12 0
BBX 12 24 0 -6
BITMAP
0000
0300
0300
0300
0300
0000
0000
0000
0000
0000
0000
0000
0000
0000
0000
0000
0000
0000
0000
0000
0000
0000
0000
0000
ENDCHAR
STARTCHAR char776
ENCODING 776
SWIDTH 500 0
DWIDTH 12 0
BBX 12 24 0 -6
BITMAP
0000
1860
1860
1860
1860
0000
0000
0000
0000
0000
0000
0000
0000
0000
0000
0000
0000
0000
0000
0000
0000
0000
0000
0000
ENDCHAR
STARTCHAR char777
ENCODING 777
SWIDTH 500 0
DWIDTH 12 0
BBX 12 24 0 -6
BITMAP
0000
0F00
0F00
0180
0380
0300
0000
0000
0000
0000
0000
0000
0000
0000
0000
0000
0000
0000
0000
0000
0000
0000
0000
0000
ENDCHAR
STARTCHAR char778
ENCODING 778
SWIDTH 500 0
DWIDTH 12 0
BBX 12 24 0 -6
BITMAP
0380
0FE0
0C60
0380
0380
0000
0000
0000
0000
0000
0000
0000
0000
0000
0000
0000
0000
0000
0000
0000
0000
0000
0000
0000
ENDCHAR
STARTCHAR char779
ENCODING 779
SWIDTH 500 0
DWIDTH 12 0
BBX 12 24 0 -6
BITMAP
0000
0C60
0C60
1980
1980
0000
0000
0000
0000
0000
0000
0000
0000
0000
0000
0000
0000
0000
0000
0000
0000
0000
0000
0000
ENDCHAR
STARTCHAR char780
ENCODING 780
SWIDTH 500 0
DWIDTH 12 0
BBX 12 24 0 -6
BITMAP
1860
1DE0
0D80
0300
0300
0000
0000
0000
0000
0000
0000
0000
0000
0000
0000
0000
0000
0000
0000
0000
0000
0000
0000
0000
ENDCHAR
STARTCHAR char781
ENCODING 781
SWIDTH 500 0
DWIDTH 12 0
BBX 12 24 0 -6
BITMAP
0300
0300
0300
0300
0300
0000
0000
0000
0000
0000
0000
0000
0000
0000
0000
0000
0000
0000
0000
0000
0000
0000
0000
0000
ENDCHAR
STARTCHAR char782
ENCODING 782
SWIDTH 500 0
DWIDTH 12 0
BBX 12 24 0 -6
BITMAP
1860
1860
1860
1860
1860
0000
0000
0000
0000
0000
0000
0000
0000
0000
0000
0000
0000
0000
0000
0000
0000
0000
0000
0000
ENDCHAR
STARTCHAR char783
ENCODING 783
SWIDTH 500 0
DWIDTH 12 0
BBX 12 24 0 -6
BITMAP
0000
1980
1980
0C60
0C60
0000
0000
0000
0000
0000
0000
0000
0000
0000
0000
0000
0000
0000
0000
0000
0000
0000
0000
0000
ENDCHAR
STARTCHAR char784
ENCODING 784
SWIDTH 500 0
DWIDTH 12 0
BBX 12 24 0 -6
BITMAP
0300
1B60
1860
0F80
0F80
0000
0000
0000
0000
0000
0000
0000
0000
0000
0000
0000
0000
0000
0000
0000
0000
0000
0000
0000
ENDCHAR
STARTCHAR char785
ENCODING 785
SWIDTH 500 0
DWIDTH 12 0
BBX 12 24 0 -6
BITMAP
0000
0F80
0F80
1860
1860
0000
0000
0000
0000
0000
0000
0000
0000
0000
0000
0000
0000
0000
0000
0000
0000
0000
0000
0000
ENDCHAR
STARTCHAR char786
ENCODING 786
SWIDTH 500 0
DWIDTH 12 0
BBX 12 24 0 -6
BITMAP
0300
0F00
0C00
0F00
0F00
0F00
0000
0000
0000
0000
0000
0000
0000
0000
0000
0000
0000
0000
0000
0000
0000
0000
0000
0000
ENDCHAR
STARTCHAR char787
ENCODING 787
SWIDTH 500 0
DWIDTH 12 0
BBX 12 24 0 -6
BITMAP
0380
0380
0380
0180
0380
0300
0000
0000
0000
0000
0000
0000
0000
0000
0000
0000
0000
0000
0000
0000
0000
0000
0000
0000
ENDCHAR
STARTCHAR char788
ENCODING 788
SWIDTH 500 0
DWIDTH 12 0
BBX 12 24 0 -6
BITMAP
0380
0380
0380
0300
0380
0180
0000
0000
0000
0000
0000
0000
0000
0000
0000
0000
0000
0000
0000
0000
0000
0000
0000
0000
ENDCHAR
STARTCHAR char789
ENCODING 789
SWIDTH 500 0
DWIDTH 12 0
BBX 12 24 0 -6
BITMAP
0070
0070
0070
0030
0070
0060
0000
0000
0000
0000
0000
0000
0000
0000
0000
0000
0000
0000
0000
0000
0000
0000
0000
0000
ENDCHAR
STARTCHAR char790
ENCODING 790
SWIDTH 500 0
DWIDTH 12 0
BBX 12 24 0 -6
BITMAP
0000
0000
0000
0000
0000
0000
0000
0000
0000
0000
0000
0000
0000
0000
0000
0000
0000
0000
0000
0300
0300
0180
0180
0000
ENDCHAR
STARTCHAR char791
ENCODING 791
SWIDTH 500 0
DWIDTH 12 0
BBX 12 24 0 -6
BITMAP
0000
0000
0000
0000
0000
0000
0000
0000
0000
0000
0000
0000
0000
0000
0000
0000
0000
0000
0000
0300
0300
0C00
0C00
0000
ENDCHAR
STARTCHAR char792
ENCODING 792
SWIDTH 500 0
DWIDTH 12 0
BBX 12 24 0 -6
BITMAP
0000
0000
0000
0000
0000
0000
0000
0000
0000
0000
0000
0000
0000
0000
0000
0000
0000
0000
0060
0FE0
0FE0
0060
0060
0000
ENDCHAR
STARTCHAR char793
ENCODING 793
SWIDTH 500 0
DWIDTH 12 0
BBX 12 24 0 -6
BITMAP
0000
0000
0000
0000
0000
0000
0000
0000
0000
0000
0000
0000
0000
0000
0000
0000
0000
0000
1800
1F80
1F80
1800
1800
0000
ENDCHAR
STARTCHAR char794
ENCODING 794
SWIDTH 500 0
DWIDTH 12 0
BBX 12 24 0 -6
BITMAP
0000
0070
0070
0000
0000
0000
0000
0000
0000
0000
0000
0000
0000
0000
0000
0000
0000
0000
0000
0000
0000
0000
0000
0000
ENDCHAR
STARTCHAR char795
ENCODING 795
SWIDTH 500 0
DWIDTH 12 0
BBX 12 24 0 -6
BITMAP
0000
0000
0000
0000
0000
0000
0030
0030
0000
0000
0000
0000
0000
0000
0000
0000
0000
0000
0000
0000
0000
0000
0000
0000
ENDCHAR
STARTCHAR char796
ENCODING 796
SWIDTH 500 0
DWIDTH 12 0
BBX 12 24 0 -6
BITMAP
0000
0000
0000
0000
0000
0000
0000
0000
0000
0000
0000
0000
0000
0000
0000
0000
0000
0000
0300
0F00
0C00
0300
0300
0000
ENDCHAR
STARTCHAR char797
ENCODING 797
SWIDTH 500 0
DWIDTH 12 0
BBX 12 24 0 -6
BITMAP
0000
0000
0000
0000
0000
0000
0000
0000
0000
0000
0000
0000
0000
0000
0000
0000
0000
0000
0300
0300
0300
0F80
0F80
0000
ENDCHAR
STARTCHAR char798
ENCODING 798
SWIDTH 500 0
DWIDTH 12 0
BBX 12 24 0 -6
BITMAP
0000
0000
0000
0000
0000
0000
0000
0000
0000
0000
0000
0000
0000
0000
0000
0000
0000
0000
0F80
0F80
0300
0300
0300
0000
ENDCHAR
STARTCHAR char799
ENCODING 799
SWIDTH 500 0
DWIDTH 12 0
BBX 12 24 0 -6
BITMAP
0000
0000
0000
0000
0000
0000
0000
0000
0000
0000
0000
0000
0000
0000
0000
0000
0000
0000
0300
0F80
0F80
0300
0300
0000
ENDCHAR
STARTCHAR char800
ENCODING 800
SWIDTH 500 0
DWIDTH 12 0
BBX 12 24 0 -6
BITMAP
0000
0000
0000
0000
0000
0000
0000
0000
0000
0000
0000
0000
0000
0000
0000
0000
0000
0000
0000
7FF0
7FF0
0000
0000
0000
ENDCHAR
STARTCHAR char801
ENCODING 801
SWIDTH 500 0
DWIDTH 12 0
BBX 12 24 0 -6
BITMAP
0000
0000
0000
0000
0000
0000
0000
0000
0000
0000
0000
0000
0000
0000
0000
0000
0000
0000
0030
0330
0330
01E0
01E0
0000
ENDCHAR
STARTCHAR char802
ENCODING 802
SWIDTH 500 0
DWIDTH 12 0
BBX 12 24 0 -6
BITMAP
0000
0000
0000
0000
0000
0000
0000
0000
0000
0000
0000
0000
0000
0000
0000
0000
0000
0000
0030
0030
0030
0000
0000
0000
ENDCHAR
STARTCHAR char803
ENCODING 803
SWIDTH 500 0
DWIDTH 12 0
BBX 12 24 0 -6
BITMAP
0000
0000
0000
0000
0000
0000
0000
0000
0000
0000
0000
0000
0000
0000
0000
0000
0000
0000
0000
0300
0300
0300
0300
0000
ENDCHAR
STARTCHAR char804
ENCODING 804
SWIDTH 500 0
DWIDTH 12 0
BBX 12 24 0 -6
BITMAP
0000
0000
0000
0000
0000
0000
0000
0000
0000
0000
0000
0000
0000
0000
0000
0000
0000
0000
0000
1860
1860
1860
1860
0000
ENDCHAR
STARTCHAR char805
ENCODING 805
SWIDTH 500 0
DWIDTH 12 0
BBX 12 24 0 -6
BITMAP
0000
0000
0000
0000
0000
0000
0000
0000
0000
0000
0000
0000
0000
0000
0000
0000
0000
0000
0380
0FE0
0C60
0380
0380
0000
ENDCHAR
STARTCHAR char806
ENCODING 806
SWIDTH 500 0
DWIDTH 12 0
BBX 12 24 0 -6
BITMAP
0000
0000
0000
0000
0000
0000
0000
0000
0000
0000
0000
0000
0000
0000
0000
0000
0000
0000
0380
0380
0180
0300
0300
0000
ENDCHAR
STARTCHAR char807
ENCODING 807
SWIDTH 500 0
DWIDTH 12 0
BBX 12 24 0 -6
BITMAP
0000
0000
0000
0000
0000
0000
0000
0000
0000
0000
0000
0000
0000
0000
0000
0000
0000
0000
0380
1B80
1980
0F00
0F00
0000
ENDCHAR
STARTCHAR char808
ENCODING 808
SWIDTH 500 0
DWIDTH 12 0
BBX 12 24 0 -6
BITMAP
0000
0000
0000
0000
0000
0000
0000
0000
0000
0000
0000
0000
0000
0000
0000
0000
0000
0000
0C00
0F00
0F00
0000
0000
0000
ENDCHAR
STARTCHAR char809
ENCODING 809
SWIDTH 500 0
DWIDTH 12 0
BBX 12 24 0 -6
BITMAP
0000
0000
0000
0000
0000
0000
0000
0000
0000
0000
0000
0000
0000
0000
0000
0000
0000
0000
0300
0300
0300
0300
0300
0000
ENDCHAR
STARTCHAR char810
ENCODING 810
SWIDTH 500 0
DWIDTH 12 0
BBX 12 24 0 -6
BITMAP
0000
0000
0000
0000
0000
0000
0000
0000
0000
0000
0000
0000
0000
0000
0000
0000
0000
0000
0000
1FE0
1FE0
1860
1860
0000
ENDCHAR
STARTCHAR char811
ENCODING 811
SWIDTH 500 0
DWIDTH 12 0
BBX 12 24 0 -6
BITMAP
0000
0000
0000
0000
0000
0000
0000
0000
0000
0000
0000
0000
0000
0000
0000
0000
0000
0000
1B60
1B60
1B60
0D80
0D80
0000
ENDCHAR
STARTCHAR char812
ENCODING 812
SWIDTH 500 0
DWIDTH 12 0
BBX 12 24 0 -6
BITMAP
0000
0000
0000
0000
0000
0000
0000
0000
0000
0000
0000
0000
0000
0000
0000
0000
0000
0000
1860
1DE0
0D80
0300
0300
0000
ENDCHAR
STARTCHAR char813
ENCODING 813
SWIDTH 500 0
DWIDTH 12 0
BBX 12 24 0 -6
BITMAP
0000
0000
0000
0000
0000
0000
0000
0000
0000
0000
0000
0000
0000
0000
0000
0000
0000
0000
0300
0F80
0D80
1860
1860
0000
ENDCHAR
STARTCHAR char814
ENCODING 814
SWIDTH 500 0
DWIDTH 12 0
BBX 12 24 0 -6
BITMAP
0000
0000
0000
0000
0000
0000
0000
0000
0000
0000
0000
0000
0000
0000
0000
0000
0000
0000
0000
1860
1860
0F80
0F80
0000
ENDCHAR
STARTCHAR char815
ENCODING 815
SWIDTH 500 0
DWIDTH 12 0
BBX 12 24 0 -6
BITMAP
0000
0000
0000
0000
0000
0000
0000
0000
0000
0000
0000
0000
0000
0000
0000
0000
0000
0000
0000
0F80
0F80
1860
1860
0000
ENDCHAR
STARTCHAR char816
ENCODING 816
SWIDTH 500 0
DWIDTH 12 0
BBX 12 24 0 -6
BITMAP
0000
0000
0000
0000
0000
0000
0000
0000
0000
0000
0000
0000
0000
0000
0000
0000
0000
0000
0000
1F30
1F30
63E0
63E0
0000
ENDCHAR
STARTCHAR char817
ENCODING 817
SWIDTH 500 0
DWIDTH 12 0
BBX 12 24 0 -6
BITMAP
0000
0000
0000
0000
0000
0000
0000
0000
0000
0000
0000
0000
0000
0000
0000
0000
0000
0000
0000
7FF0
7FF0
0000
0000
0000
ENDCHAR
STARTCHAR char818
ENCODING 818
SWIDTH 500 0
DWIDTH 12 0
BBX 12 24 0 -6
BITMAP
0000
0000
0000
0000
0000
0000
0000
0000
0000
0000
0000
0000
0000
0000
0000
0000
0000
0000
0000
FFF0
FFF0
0000
0000
0000
ENDCHAR
STARTCHAR char819
ENCODING 819
SWIDTH 500 0
DWIDTH 12 0
BBX 12 24 0 -6
BITMAP
0000
0000
0000
0000
0000
0000
0000
0000
0000
0000
0000
0000
0000
0000
0000
0000
0000
0000
FFF0
FFF0
0000
FFF0
FFF0
0000
ENDCHAR
STARTCHAR char820
ENCODING 820
SWIDTH 500 0
DWIDTH 12 0
BBX 12 24 0 -6
BITMAP
0000
0000
0000
0000
0000
0000
0000
0000
0000
0000
0F60
0F60
1B80
1B80
0000
0000
0000
0000
0000
0000
0000
0000
0000
0000
ENDCHAR
STARTCHAR char821
ENCODING 821
SWIDTH 500 0
DWIDTH 12 0
BBX 12 24 0 -6
BITMAP
0000
0000
0000
0000
0000
0000
0000
0000
0000
0000
1FE0
1FE0
0000
0000
0000
0000
0000
0000
0000
0000
0000
0000
0000
0000
ENDCHAR
STARTCHAR char822
ENCODING 822
SWIDTH 500 0
DWIDTH 12 0
BBX 12 24 0 -6
BITMAP
0000
0000
0000
0000
0000
0000
0000
0000
0000
0000
7FF0
7FF0
0000
0000
0000
0000
0000
0000
0000
0000
0000
0000
0000
0000
ENDCHAR
STARTCHAR char823
ENCODING 823
SWIDTH 500 0
DWIDTH 12 0
BBX 12 24 0 -6
BITMAP
0000
0000
0000
0000
0000
0000
0030
0070
0060
0180
0380
0300
0C00
1C00
1800
6000
6000
0000
0000
0000
0000
0000
0000
0000
ENDCHAR
STARTCHAR char824
ENCODING 824
SWIDTH 500 0
DWIDTH 12 0
BBX 12 24 0 -6
BITMAP
0000
0030
0030
0030
0070
0060
0060
01E0
0180
0180
0380
0300
0C00
0C00
0C00
1800
1800
1800
6000
6000
6000
0000
0000
0000
ENDCHAR
STARTCHAR char825
ENCODING 825
SWIDTH 500 0
DWIDTH 12 0
BBX 12 24 0 -6
BITMAP
0000
0000
0000
0000
0000
0000
0000
0000
0000
0000
0000
0000
0000
0000
0000
0000
0000
0000
0300
0380
0180
0300
0300
0000
ENDCHAR
STARTCHAR char826
ENCODING 826
SWIDTH 500 0
DWIDTH 12 0
BBX 12 24 0 -6
BITMAP
0000
0000
0000
0000
0000
0000
0000
0000
0000
0000
0000
0000
0000
0000
0000
0000
0000
0000
0000
1860
1860
1FE0
1FE0
0000
ENDCHAR
STARTCHAR char827
ENCODING 827
SWIDTH 500 0
DWIDTH 12 0
BBX 12 24 0 -6
BITMAP
0000
0000
0000
0000
0000
0000
0000
0000
0000
0000
0000
0000
0000
0000
0000
0000
0000
0000
0F80
0F80
0D80
0F80
0F80
0000
ENDCHAR
STARTCHAR char828
ENCODING 828
SWIDTH 500 0
DWIDTH 12 0
BBX 12 24 0 -6
BITMAP
0000
0000
0000
0000
0000
0000
0000
0000
0000
0000
0000
0000
0000
0000
0000
0000
0000
0000
0000
1DE0
1DE0
6330
6330
0000
ENDCHAR
STARTCHAR char829
ENCODING 829
SWIDTH 500 0
DWIDTH 12 0
BBX 12 24 0 -6
BITMAP
1DE0
1FE0
0300
1DE0
1DE0
0000
0000
0000
0000
0000
0000
0000
0000
0000
0000
0000
0000
0000
0000
0000
0000
0000
0000
0000
ENDCHAR
STARTCHAR char830
ENCODING 830
SWIDTH 500 0
DWIDTH 12 0
BBX 12 24 0 -6
BITMAP
0300
0F00
0C00
0300
0F00
0C00
0000
0000
0000
0000
0000
0000
0000
0000
0000
0000
0000
0000
0000
0000
0000
0000
0000
0000
ENDCHAR
STARTCHAR char831
ENCODING 831
SWIDTH 500 0
DWIDTH 12 0
BBX 12 24 0 -6
BITMAP
FFF0
FFF0
0000
FFF0
FFF0
0000
0000
0000
0000
0000
0000
0000
0000
0000
0000
0000
0000
0000
0000
0000
0000
0000
0000
0000
ENDCHAR
STARTCHAR char832
ENCODING 832
SWIDTH 500 0
DWIDTH 12 0
BBX 12 24 0 -6
BITMAP
6000
7800
1800
0000
0000
0000
0000
0000
0000
0000
0000
0000
0000
0000
0000
0000
0000
0000
0000
0000
0000
0000
0000
0000
ENDCHAR
STARTCHAR char833
ENCODING 833
SWIDTH 500 0
DWIDTH 12 0
BBX 12 24 0 -6
BITMAP
0030
0070
0060
0000
0000
0000
0000
0000
0000
0000
0000
0000
0000
0000
0000
0000
0000
0000
0000
0000
0000
0000
0000
0000
ENDCHAR
STARTCHAR char834
ENCODING 834
SWIDTH 500 0
DWIDTH 12 0
BBX 12 24 0 -6
BITMAP
0000
0F60
0F60
1B80
1B80
0000
0000
0000
0000
0000
0000
0000
0000
0000
0000
0000
0000
0000
0000
0000
0000
0000
0000
0000
ENDCHAR
STARTCHAR char835
ENCODING 835
SWIDTH 500 0
DWIDTH 12 0
BBX 12 24 0 -6
BITMAP
0000
0380
0380
0180
0380
0300
0000
0000
0000
0000
0000
0000
0000
0000
0000
0000
0000
0000
0000
0000
0000
0000
0000
0000
ENDCHAR
STARTCHAR char836
ENCODING 836
SWIDTH 500 0
DWIDTH 12 0
BBX 12 24 0 -6
BITMAP
0000
0180
0180
6330
6F30
6C30
0000
0000
0000
0000
0000
0000
0000
0000
0000
0000
0000
0000
0000
0000
0000
0000
0000
0000
ENDCHAR
STARTCHAR char837
ENCODING 837
SWIDTH 500 0
DWIDTH 12 0
BBX 12 24 0 -6
BITMAP
0000
0000
0000
0000
0000
0000
0000
0000
0000
0000
0000
0000
0000
0000
0000
0000
0000
0000
0000
0300
0300
0380
0380
0000
ENDCHAR
STARTCHAR char838
ENCODING 838
SWIDTH 500 0
DWIDTH 12 0
BBX 12 24 0 -6
BITMAP
1FE0
1FE0
1860
0000
0000
0000
0000
0000
0000
0000
0000
0000
0000
0000
0000
0000
0000
0000
0000
0000
0000
0000
0000
0000
ENDCHAR
STARTCHAR char839
ENCODING 839
SWIDTH 500 0
DWIDTH 12 0
BBX 12 24 0 -6
BITMAP
0000
0000
0000
0000
0000
0000
0000
0000
0000
0000
0000
0000
0000
0000
0000
0000
0000
0000
1FE0
1FE0
0000
1FE0
1FE0
0000
ENDCHAR
STARTCHAR char840
ENCODING 840
SWIDTH 500 0
DWIDTH 12 0
BBX 12 24 0 -6
BITMAP
0000
0000
0000
0000
0000
0000
0000
0000
0000
0000
0000
0000
0000
0000
0000
0000
0000
0000
0D80
0D80
0D80
0D80
0D80
0000
ENDCHAR
STARTCHAR char841
ENCODING 841
SWIDTH 500 0
DWIDTH 12 0
BBX 12 24 0 -6
BITMAP
0000
0000
0000
0000
0000
0000
0000
0000
0000
0000
0000
0000
0000
0000
0000
0000
0000
0000
0F80
0F80
0180
0180
0180
0000
ENDCHAR
STARTCHAR char842
ENCODING 842
SWIDTH 500 0
DWIDTH 12 0
BBX 12 24 0 -6
BITMAP
0180
1FB0
1F30
63E0
6FE0
0C00
0000
0000
0000
0000
0000
0000
0000
0000
0000
0000
0000
0000
0000
0000
0000
0000
0000
0000
ENDCHAR
STARTCHAR char843
ENCODING 843
SWIDTH 500 0
DWIDTH 12 0
BBX 12 24 0 -6
BITMAP
0180
7DB0
7C30
C3E0
DBE0
1800
0000
0000
0000
0000
0000
0000
0000
0000
0000
0000
0000
0000
0000
0000
0000
0000
0000
0000
ENDCHAR
STARTCHAR char844
ENCODING 844
SWIDTH 500 0
DWIDTH 12 0
BBX 12 24 0 -6
BITMAP
1F30
7FF0
63E0
0000
1F30
1F30
63E0
63E0
0000
0000
0000
0000
0000
0000
0000
0000
0000
0000
0000
0000
0000
0000
0000
0000
ENDCHAR
STARTCHAR char845
ENCODING 845
SWIDTH 500 0
DWIDTH 12 0
BBX 12 24 0 -6
BITMAP
0000
0000
0000
0000
0000
0000
0000
0000
0000
0000
0000
0000
0000
0000
0000
0000
0000
0000
1860
7FF0
7FF0
1860
1860
0000
ENDCHAR
STARTCHAR char846
ENCODING 846
SWIDTH 500 0
DWIDTH 12 0
BBX 12 24 0 -6
BITMAP
0000
0000
0000
0000
0000
0000
0000
0000
0000
0000
0000
0000
0000
0000
0000
0000
0300
0300
0F80
0F80
0300
0300
0300
0000
ENDCHAR
STARTCHAR char847
ENCODING 847
SWIDTH 500 0
DWIDTH 12 0
BBX 12 24 0 -6
BITMAP
0000
0000
0000
0000
0000
0000
0000
0000
0000
0000
0000
0000
0000
0000
0000
0000
0000
0000
0000
0000
0000
0000
0000
0000
ENDCHAR
STARTCHAR char864
ENCODING 864
SWIDTH 500 0
DWIDTH 12 0
BBX 12 24 0 -6
BITMAP
0F80
1FF0
19F0
0000
0000
0000
0000
0000
0000
0000
0000
0000
0000
0000
0000
0000
0000
0000
0000
0000
0000
0000
0000
0000
ENDCHAR
STARTCHAR char865
ENCODING 865
SWIDTH 500 0
DWIDTH 12 0
BBX 12 24 0 -6
BITMAP
0FF0
1FF0
1800
0000
0000
0000
0000
0000
0000
0000
0000
0000
0000
0000
0000
0000
0000
0000
0000
0000
0000
0000
0000
0000
ENDCHAR
STARTCHAR char866
ENCODING 866
SWIDTH 500 0
DWIDTH 12 0
BBX 12 24 0 -6
BITMAP
0000
0000
0000
0000
0000
0000
0000
0000
0000
0000
0000
0000
0000
0000
0000
0000
0000
0000
0030
0FF0
0FF0
0030
0030
0000
ENDCHAR
STARTCHAR char867
ENCODING 867
SWIDTH 500 0
DWIDTH 12 0
BBX 12 24 0 -6
BITMAP
0F00
0F80
0180
0F80
1F80
1980
0F80
0F80
0000
0000
0000
0000
0000
0000
0000
0000
0000
0000
0000
0000
0000
0000
0000
0000
ENDCHAR
STARTCHAR char868
ENCODING 868
SWIDTH 500 0
DWIDTH 12 0
BBX 12 24 0 -6
BITMAP
0F00
1F80
1980
1F80
1F80
1800
0F00
0F00
0000
0000
0000
0000
0000
0000
0000
0000
0000
0000
0000
0000
0000
0000
0000
0000
ENDCHAR
STARTCHAR char869
ENCODING 869
SWIDTH 500 0
DWIDTH 12 0
BBX 12 24 0 -6
BITMAP
0300
0300
0000
0300
0300
0300
0000
0000
0000
0000
0000
0000
0000
0000
0000
0000
0000
0000
0000
0000
0000
0000
0000
0000
ENDCHAR
STARTCHAR char870
ENCODING 870
SWIDTH 500 0
DWIDTH 12 0
BBX 12 24 0 -6
BITMAP
0F00
1F80
1980
1980
1F80
0F00
0000
0000
0000
0000
0000
0000
0000
0000
0000
0000
0000
0000
0000
0000
0000
0000
0000
0000
ENDCHAR
STARTCHAR char871
ENCODING 871
SWIDTH 500 0
DWIDTH 12 0
BBX 12 24 0 -6
BITMAP
1980
1980
1980
1980
1F80
0F80
0000
0000
0000
0000
0000
0000
0000
0000
0000
0000
0000
0000
0000
0000
0000
0000
0000
0000
ENDCHAR
STARTCHAR char872
ENCODING 872
SWIDTH 500 0
DWIDTH 12 0
BBX 12 24 0 -6
BITMAP
0F80
1F80
1800
1800
1F80
0F80
0000
0000
0000
0000
0000
0000
0000
0000
0000
0000
0000
0000
0000
0000
0000
0000
0000
0000
ENDCHAR
STARTCHAR char873
ENCODING 873
SWIDTH 500 0
DWIDTH 12 0
BBX 12 24 0 -6
BITMAP
0180
0F80
0F80
1980
1F80
0F80
0000
0000
0000
0000
0000
0000
0000
0000
0000
0000
0000
0000
0000
0000
0000
0000
0000
0000
ENDCHAR
STARTCHAR char874
ENCODING 874
SWIDTH 500 0
DWIDTH 12 0
BBX 12 24 0 -6
BITMAP
1800
1F00
1F00
1980
1980
1980
0000
0000
0000
0000
0000
0000
0000
0000
0000
0000
0000
0000
0000
0000
0000
0000
0000
0000
ENDCHAR
STARTCHAR char875
ENCODING 875
SWIDTH 500 0
DWIDTH 12 0
BBX 12 24 0 -6
BITMAP
1D80
1FE0
1B60
1B60
1B60
1B60
0000
0000
0000
0000
0000
0000
0000
0000
0000
0000
0000
0000
0000
0000
0000
0000
0000
0000
ENDCHAR
STARTCHAR char876
ENCODING 876
SWIDTH 500 0
DWIDTH 12 0
BBX 12 24 0 -6
BITMAP
0D80
0F80
0F00
0C00
0C00
0C00
0000
0000
0000
0000
0000
0000
0000
0000
0000
0000
0000
0000
0000
0000
0000
0000
0000
0000
ENDCHAR
STARTCHAR char877
ENCODING 877
SWIDTH 500 0
DWIDTH 12 0
BBX 12 24 0 -6
BITMAP
0C00
1F00
1F00
0C00
0F80
0380
0000
0000
0000
0000
0000
0000
0000
0000
0000
0000
0000
0000
0000
0000
0000
0000
0000
0000
ENDCHAR
STARTCHAR char878
ENCODING 878
SWIDTH 500 0
DWIDTH 12 0
BBX 12 24 0 -6
BITMAP
0D80
0D80
0D80
0300
0300
0300
0000
0000
0000
0000
0000
0000
0000
0000
0000
0000
0000
0000
0000
0000
0000
0000
0000
0000
ENDCHAR
STARTCHAR char879
ENCODING 879
SWIDTH 500 0
DWIDTH 12 0
BBX 12 24 0 -6
BITMAP
0D80
0F80
0300
0300
0F80
0D80
0000
0000
0000
0000
0000
0000
0000
0000
0000
0000
0000
0000
0000
0000
0000
0000
0000
0000
ENDCHAR
STARTCHAR char884
ENCODING 884
SWIDTH 500 0
DWIDTH 12 0
BBX 12 24 0 -6
BITMAP
0000
0180
0180
0300
0F00
0C00
0000
0000
0000
0000
0000
0000
0000
0000
0000
0000
0000
0000
0000
0000
0000
0000
0000
0000
ENDCHAR
STARTCHAR char885
ENCODING 885
SWIDTH 500 0
DWIDTH 12 0
BBX 12 24 0 -6
BITMAP
0000
0000
0000
0000
0000
0000
0000
0000
0000
0000
0000
0000
0000
0000
0000
0000
0000
0000
0180
0380
0300
0C00
0C00
0000
ENDCHAR
STARTCHAR char890
ENCODING 890
SWIDTH 500 0
DWIDTH 12 0
BBX 12 24 0 -6
BITMAP
0000
0000
0000
0000
0000
0000
0000
0000
0000
0000
0000
0000
0000
0000
0000
0000
0000
0000
0000
0300
0300
0380
0380
0000
ENDCHAR
STARTCHAR char894
ENCODING 894
SWIDTH 500 0
DWIDTH 12 0
BBX 12 24 0 -6
BITMAP
0000
0000
0000
0000
0000
0000
0000
0380
0380
0380
0380
0000
0000
0000
0000
0380
0380
0380
0180
0180
0180
0300
0300
0000
ENDCHAR
STARTCHAR char900
ENCODING 900
SWIDTH 500 0
DWIDTH 12 0
BBX 12 24 0 -6
BITMAP
0000
0180
0180
0300
0F00
0C00
0000
0000
0000
0000
0000
0000
0000
0000
0000
0000
0000
0000
0000
0000
0000
0000
0000
0000
ENDCHAR
STARTCHAR char901
ENCODING 901
SWIDTH 500 0
DWIDTH 12 0
BBX 12 24 0 -6
BITMAP
0000
0180
0180
6330
6F30
6C30
0000
0000
0000
0000
0000
0000
0000
0000
0000
0000
0000
0000
0000
0000
0000
0000
0000
0000
ENDCHAR
STARTCHAR char902
ENCODING 902
SWIDTH 500 0
DWIDTH 12 0
BBX 12 24 0 -6
BITMAP
0000
0000
0000
1980
7BE0
6360
CC30
CC30
0C30
0C30
0C30
0C30
0FF0
0FF0
0C30
0C30
0C30
0C30
0000
0000
0000
0000
0000
0000
ENDCHAR
STARTCHAR char903
ENCODING 903
SWIDTH 500 0
DWIDTH 12 0
BBX 12 24 0 -6
BITMAP
0000
0000
0000
0000
0000
0000
0000
0F00
0F00
0F00
0F00
0000
0000
0000
0000
0000
0000
0000
0000
0000
0000
0000
0000
0000
ENDCHAR
STARTCHAR char904
ENCODING 904
SWIDTH 500 0
DWIDTH 12 0
BBX 12 24 0 -6
BITMAP
0000
0000
0000
1FF0
7FF0
6C00
CC00
CC00
0C00
0F80
0F80
0C00
0C00
0C00
0C00
0C00
0FF0
0FF0
0000
0000
0000
0000
0000
0000
ENDCHAR
STARTCHAR char905
ENCODING 905
SWIDTH 500 0
DWIDTH 12 0
BBX 12 24 0 -6
BITMAP
0000
0000
0000
1C30
7C30
6C30
CC30
CC30
0C30
0FF0
0FF0
0C30
0C30
0C30
0C30
0C30
0C30
0C30
0000
0000
0000
0000
0000
0000
ENDCHAR
STARTCHAR char906
ENCODING 906
SWIDTH 500 0
DWIDTH 12 0
BBX 12 24 0 -6
BITMAP
0000
0000
0000
1FF0
7FF0
6180
C180
C180
0180
0180
0180
0180
0180
0180
0180
0180
0FF0
0FF0
0000
0000
0000
0000
0000
0000
ENDCHAR
STARTCHAR char908
ENCODING 908
SWIDTH 500 0
DWIDTH 12 0
BBX 12 24 0 -6
BITMAP
0000
0000
0000
1BE0
7FF0
6C30
CC30
CC30
0C30
0C30
0C30
0C30
0C30
0C30
0C30
0C30
0FF0
03E0
0000
0000
0000
0000
0000
0000
ENDCHAR
STARTCHAR char910
ENCODING 910
SWIDTH 500 0
DWIDTH 12 0
BBX 12 24 0 -6
BITMAP
0000
0000
0000
1C30
7C30
6C30
C360
C360
0360
0180
0180
0180
0180
0180
0180
0180
0180
0180
0000
0000
0000
0000
0000
0000
ENDCHAR
STARTCHAR char911
ENCODING 911
SWIDTH 500 0
DWIDTH 12 0
BBX 12 24 0 -6
BITMAP
0000
0000
0000
1BE0
7FF0
6C30
CC30
CC30
0C30
0C30
0C30
0C30
0C30
0F70
0360
0360
0F70
0F70
0000
0000
0000
0000
0000
0000
ENDCHAR
STARTCHAR char912
ENCODING 912
SWIDTH 500 0
DWIDTH 12 0
BBX 12 24 0 -6
BITMAP
0000
0180
0180
6330
6F30
6C30
0000
0C00
0C00
0C00
0C00
0C00
0C00
0C00
0C00
0C60
0FE0
0380
0000
0000
0000
0000
0000
0000
ENDCHAR
STARTCHAR char913
ENCODING 913
SWIDTH 500 0
DWIDTH 12 0
BBX 12 24 0 -6
BITMAP
0000
0000
0000
0300
0F80
0D80
1860
7870
6030
6030
6030
6030
7FF0
7FF0
6030
6030
6030
6030
0000
0000
0000
0000
0000
0000
ENDCHAR
STARTCHAR char914
ENCODING 914
SWIDTH 500 0
DWIDTH 12 0
BBX 12 24 0 -6
BITMAP
0000
0000
0000
7FE0
7FF0
6030
6030
6030
6030
7FE0
7FF0
6030
6030
6030
6030
6030
7FF0
7FE0
0000
0000
0000
0000
0000
0000
ENDCHAR
STARTCHAR char915
ENCODING 915
SWIDTH 500 0
DWIDTH 12 0
BBX 12 24 0 -6
BITMAP
0000
0000
0000
7FF0
7FF0
6000
6000
6000
6000
6000
6000
6000
6000
6000
6000
6000
6000
6000
0000
0000
0000
0000
0000
0000
ENDCHAR
STARTCHAR char916
ENCODING 916
SWIDTH 500 0
DWIDTH 12 0
BBX 12 24 0 -6
BITMAP
0000
0000
0000
0300
0F80
0D80
0D80
0D80
0D80
1860
1860
1860
1860
7870
6030
6030
7FF0
7FF0
0000
0000
0000
0000
0000
0000
ENDCHAR
STARTCHAR char917
ENCODING 917
SWIDTH 500 0
DWIDTH 12 0
BBX 12 24 0 -6
BITMAP
0000
0000
0000
7FF0
7FF0
6000
6000
6000
6000
7F80
7F80
6000
6000
6000
6000
6000
7FF0
7FF0
0000
0000
0000
0000
0000
0000
ENDCHAR
STARTCHAR char918
ENCODING 918
SWIDTH 500 0
DWIDTH 12 0
BBX 12 24 0 -6
BITMAP
0000
0000
0000
7FF0
7FF0
0030
0060
01E0
0180
0300
0F00
0C00
1800
7800
6000
6000
7FF0
7FF0
0000
0000
0000
0000
0000
0000
ENDCHAR
STARTCHAR char919
ENCODING 919
SWIDTH 500 0
DWIDTH 12 0
BBX 12 24 0 -6
BITMAP
0000
0000
0000
6030
6030
6030
6030
6030
6030
7FF0
7FF0
6030
6030
6030
6030
6030
6030
6030
0000
0000
0000
0000
0000
0000
ENDCHAR
STARTCHAR char920
ENCODING 920
SWIDTH 500 0
DWIDTH 12 0
BBX 12 24 0 -6
BITMAP
0000
0000
0000
1FE0
7FF0
6030
6030
6030
6030
7FF0
7FF0
6030
6030
6030
6030
6030
7FF0
1FE0
0000
0000
0000
0000
0000
0000
ENDCHAR
STARTCHAR char921
ENCODING 921
SWIDTH 500 0
DWIDTH 12 0
BBX 12 24 0 -6
BITMAP
0000
0000
0000
1FE0
1FE0
0300
0300
0300
0300
0300
0300
0300
0300
0300
0300
0300
1FE0
1FE0
0000
0000
0000
0000
0000
0000
ENDCHAR
STARTCHAR char922
ENCODING 922
SWIDTH 500 0
DWIDTH 12 0
BBX 12 24 0 -6
BITMAP
0000
0000
0000
6030
6070
6060
6180
6380
6300
7C00
7C00
6C00
6300
6380
6180
6060
6070
6030
0000
0000
0000
0000
0000
0000
ENDCHAR
STARTCHAR char923
ENCODING 923
SWIDTH 500 0
DWIDTH 12 0
BBX 12 24 0 -6
BITMAP
0000
0000
0000
0300
0F80
0D80
0D80
0D80
0D80
1860
1860
1860
1860
7870
6030
6030
6030
6030
0000
0000
0000
0000
0000
0000
ENDCHAR
STARTCHAR char924
ENCODING 924
SWIDTH 500 0
DWIDTH 12 0
BBX 12 24 0 -6
BITMAP
0000
0000
0000
6030
6030
6030
7870
7DF0
6DB0
6DB0
6FB0
6330
6330
6330
6030
6030
6030
6030
0000
0000
0000
0000
0000
0000
ENDCHAR
STARTCHAR char925
ENCODING 925
SWIDTH 500 0
DWIDTH 12 0
BBX 12 24 0 -6
BITMAP
0000
0000
0000
6030
6030
6030
7830
7C30
6C30
6330
63B0
61B0
6070
6070
6030
6030
6030
6030
0000
0000
0000
0000
0000
0000
ENDCHAR
STARTCHAR char926
ENCODING 926
SWIDTH 500 0
DWIDTH 12 0
BBX 12 24 0 -6
BITMAP
0000
0000
0000
7FF0
7FF0
0000
0000
0000
0000
1FE0
1FE0
0000
0000
0000
0000
0000
7FF0
7FF0
0000
0000
0000
0000
0000
0000
ENDCHAR
STARTCHAR char927
ENCODING 927
SWIDTH 500 0
DWIDTH 12 0
BBX 12 24 0 -6
BITMAP
0000
0000
0000
1FE0
7FF0
6030
6030
6030
6030
6030
6030
6030
6030
6030
6030
6030
7FF0
1FE0
0000
0000
0000
0000
0000
0000
ENDCHAR
STARTCHAR char928
ENCODING 928
SWIDTH 500 0
DWIDTH 12 0
BBX 12 24 0 -6
BITMAP
0000
0000
0000
7FF0
7FF0
1860
1860
1860
1860
1860
1860
1860
1860
1860
1860
1860
1860
1860
0000
0000
0000
0000
0000
0000
ENDCHAR
STARTCHAR char929
ENCODING 929
SWIDTH 500 0
DWIDTH 12 0
BBX 12 24 0 -6
BITMAP
0000
0000
0000
7FE0
7FF0
6030
6030
6030
6030
7FE0
7FE0
6000
6000
6000
6000
6000
6000
6000
0000
0000
0000
0000
0000
0000
ENDCHAR
STARTCHAR char931
ENCODING 931
SWIDTH 500 0
DWIDTH 12 0
BBX 12 24 0 -6
BITMAP
0000
0000
0000
7FF0
7FF0
6000
1800
1C00
0C00
0300
0300
0300
0C00
1C00
1800
6000
7FF0
7FF0
0000
0000
0000
0000
0000
0000
ENDCHAR
STARTCHAR char932
ENCODING 932
SWIDTH 500 0
DWIDTH 12 0
BBX 12 24 0 -6
BITMAP
0000
0000
0000
7FF0
7FF0
0300
0300
0300
0300
0300
0300
0300
0300
0300
0300
0300
0300
0300
0000
0000
0000
0000
0000
0000
ENDCHAR
STARTCHAR char933
ENCODING 933
SWIDTH 500 0
DWIDTH 12 0
BBX 12 24 0 -6
BITMAP
0000
0000
0000
6030
6030
6030
1860
1DE0
0D80
0300
0300
0300
0300
0300
0300
0300
0300
0300
0000
0000
0000
0000
0000
0000
ENDCHAR
STARTCHAR char934
ENCODING 934
SWIDTH 500 0
DWIDTH 12 0
BBX 12 24 0 -6
BITMAP
0000
0000
0000
0300
1FE0
1FE0
6330
6330
6330
6330
6330
6330
6330
6330
6330
1FE0
1FE0
0300
0000
0000
0000
0000
0000
0000
ENDCHAR
STARTCHAR char935
ENCODING 935
SWIDTH 500 0
DWIDTH 12 0
BBX 12 24 0 -6
BITMAP
0000
0000
0000
6030
6030
6030
1860
1DE0
0D80
0300
0300
0300
0D80
1DE0
1860
6030
6030
6030
0000
0000
0000
0000
0000
0000
ENDCHAR
STARTCHAR char936
ENCODING 936
SWIDTH 500 0
DWIDTH 12 0
BBX 12 24 0 -6
BITMAP
0000
0000
0000
6330
6330
6330
6330
6330
6330
6330
6330
6330
1FE0
1FE0
0300
0300
0300
0300
0000
0000
0000
0000
0000
0000
ENDCHAR
STARTCHAR char937
ENCODING 937
SWIDTH 500 0
DWIDTH 12 0
BBX 12 24 0 -6
BITMAP
0000
0000
0000
1FE0
7FF0
6030
6030
6030
6030
6030
6030
6030
6030
7DF0
1DE0
0D80
7DF0
7DF0
0000
0000
0000
0000
0000
0000
ENDCHAR
STARTCHAR char938
ENCODING 938
SWIDTH 500 0
DWIDTH 12 0
BBX 12 24 0 -6
BITMAP
0000
1860
1860
1860
1860
0000
1FE0
1FE0
0300
0300
0300
0300
0300
0300
0300
0300
1FE0
1FE0
0000
0000
0000
0000
0000
0000
ENDCHAR
STARTCHAR char939
ENCODING 939
SWIDTH 500 0
DWIDTH 12 0
BBX 12 24 0 -6
BITMAP
0000
6030
6030
6030
6030
0000
6030
6030
6030
1860
1DE0
0D80
0300
0300
0300
0300
0300
0300
0000
0000
0000
0000
0000
0000
ENDCHAR
STARTCHAR char940
ENCODING 940
SWIDTH 500 0
DWIDTH 12 0
BBX 12 24 0 -6
BITMAP
0000
0060
0060
0180
0380
0300
0000
1FB0
1FB0
6070
6070
6030
6030
6070
6070
61B0
7FB0
1F30
0000
0000
0000
0000
0000
0000
ENDCHAR
STARTCHAR char941
ENCODING 941
SWIDTH 500 0
DWIDTH 12 0
BBX 12 24 0 -6
BITMAP
0000
0060
0060
0180
0380
0300
0000
1FE0
1FE0
6030
6030
6000
1F80
7F80
6000
6030
7FF0
1FE0
0000
0000
0000
0000
0000
0000
ENDCHAR
STARTCHAR char942
ENCODING 942
SWIDTH 500 0
DWIDTH 12 0
BBX 12 24 0 -6
BITMAP
0000
0060
0060
0180
0380
0300
0000
6FE0
6FE0
7830
7830
6030
6030
6030
6030
6030
6030
6030
0030
0030
0030
0030
0030
0000
ENDCHAR
STARTCHAR char943
ENCODING 943
SWIDTH 500 0
DWIDTH 12 0
BBX 12 24 0 -6
BITMAP
0000
0180
0180
0300
0F00
0C00
0000
0C00
0C00
0C00
0C00
0C00
0C00
0C00
0C00
0C60
0FE0
0380
0000
0000
0000
0000
0000
0000
ENDCHAR
STARTCHAR char944
ENCODING 944
SWIDTH 500 0
DWIDTH 12 0
BBX 12 24 0 -6
BITMAP
0000
0180
0180
6330
6F30
6C30
0000
6030
6030
6030
6030
6030
6030
6030
6030
6030
7FF0
1FE0
0000
0000
0000
0000
0000
0000
ENDCHAR
STARTCHAR char945
ENCODING 945
SWIDTH 500 0
DWIDTH 12 0
BBX 12 24 0 -6
BITMAP
0000
0000
0000
0000
0000
0000
0000
1FB0
1FB0
6070
6070
6030
6030
6070
6070
61B0
7FB0
1F30
0000
0000
0000
0000
0000
0000
ENDCHAR
STARTCHAR char946
ENCODING 946
SWIDTH 500 0
DWIDTH 12 0
BBX 12 24 0 -6
BITMAP
0000
0000
0000
1F00
7F80
6180
6180
6180
6180
7FE0
7FF0
6030
6030
6030
6030
7830
7FF0
6FE0
6000
6000
6000
6000
6000
0000
ENDCHAR
STARTCHAR char947
ENCODING 947
SWIDTH 500 0
DWIDTH 12 0
BBX 12 24 0 -6
BITMAP
0000
0000
0000
0000
0000
0000
0000
6030
6030
6030
7870
1860
1860
1DE0
0D80
0D80
0F80
0300
0300
0300
0300
0300
0300
0000
ENDCHAR
STARTCHAR char948
ENCODING 948
SWIDTH 500 0
DWIDTH 12 0
BBX 12 24 0 -6
BITMAP
0000
0000
0000
1FE0
7FF0
6030
1800
1FE0
1FE0
6030
6030
6030
6030
6030
6030
6030
7FF0
1FE0
0000
0000
0000
0000
0000
0000
ENDCHAR
STARTCHAR char949
ENCODING 949
SWIDTH 500 0
DWIDTH 12 0
BBX 12 24 0 -6
BITMAP
0000
0000
0000
0000
0000
0000
0000
1FE0
1FE0
6030
6030
6000
1F80
7F80
6000
6030
7FF0
1FE0
0000
0000
0000
0000
0000
0000
ENDCHAR
STARTCHAR char950
ENCODING 950
SWIDTH 500 0
DWIDTH 12 0
BBX 12 24 0 -6
BITMAP
0000
0000
0000
7FF0
7FF0
0300
0C00
1C00
1800
6000
6000
6000
6000
6000
6000
6000
7FE0
1FE0
0030
0030
0030
01E0
01E0
0000
ENDCHAR
STARTCHAR char951
ENCODING 951
SWIDTH 500 0
DWIDTH 12 0
BBX 12 24 0 -6
BITMAP
0000
0000
0000
0000
0000
0000
0000
6FE0
6FE0
7830
7830
6030
6030
6030
6030
6030
6030
6030
0030
0030
0030
0030
0030
0000
ENDCHAR
STARTCHAR char952
ENCODING 952
SWIDTH 500 0
DWIDTH 12 0
BBX 12 24 0 -6
BITMAP
0000
0000
0000
1F80
7FE0
6060
6060
6060
6060
7FE0
7FE0
6060
6060
6060
6060
6060
7FE0
1F80
0000
0000
0000
0000
0000
0000
ENDCHAR
STARTCHAR char953
ENCODING 953
SWIDTH 500 0
DWIDTH 12 0
BBX 12 24 0 -6
BITMAP
0000
0000
0000
0000
0000
0000
0000
0C00
0C00
0C00
0C00
0C00
0C00
0C00
0C00
0C60
0FE0
0380
0000
0000
0000
0000
0000
0000
ENDCHAR
STARTCHAR char954
ENCODING 954
SWIDTH 500 0
DWIDTH 12 0
BBX 12 24 0 -6
BITMAP
0000
0000
0000
0000
0000
0000
0000
6060
6060
6180
6380
6300
6C00
7F00
7B00
6180
61E0
6060
0000
0000
0000
0000
0000
0000
ENDCHAR
STARTCHAR char955
ENCODING 955
SWIDTH 500 0
DWIDTH 12 0
BBX 12 24 0 -6
BITMAP
0000
0000
0000
1F80
7FE0
6060
0060
1F60
1F60
61E0
61E0
6060
6060
6060
6060
6060
6060
6060
0000
0000
0000
0000
0000
0000
ENDCHAR
STARTCHAR char956
ENCODING 956
SWIDTH 500 0
DWIDTH 12 0
BBX 12 24 0 -6
BITMAP
0000
0000
0000
0000
0000
0000
0000
6030
6030
6030
6030
6030
6030
6030
6030
7870
7FF0
6FB0
6000
6000
6000
6000
6000
0000
ENDCHAR
STARTCHAR char957
ENCODING 957
SWIDTH 500 0
DWIDTH 12 0
BBX 12 24 0 -6
BITMAP
0000
0000
0000
0000
0000
0000
0000
6030
6030
6030
7870
1860
1860
1DE0
0D80
0D80
0F80
0300
0000
0000
0000
0000
0000
0000
ENDCHAR
STARTCHAR char958
ENCODING 958
SWIDTH 500 0
DWIDTH 12 0
BBX 12 24 0 -6
BITMAP
0000
0000
0000
7FF0
7FF0
0C00
1800
1800
1800
0F80
1F80
1800
6000
6000
6000
6000
7FE0
1FE0
0030
0030
0030
01E0
01E0
0000
ENDCHAR
STARTCHAR char959
ENCODING 959
SWIDTH 500 0
DWIDTH 12 0
BBX 12 24 0 -6
BITMAP
0000
0000
0000
0000
0000
0000
0000
1FE0
1FE0
6030
6030
6030
6030
6030
6030
6030
7FF0
1FE0
0000
0000
0000
0000
0000
0000
ENDCHAR
STARTCHAR char960
ENCODING 960
SWIDTH 500 0
DWIDTH 12 0
BBX 12 24 0 -6
BITMAP
0000
0000
0000
0000
0000
0000
0000
7FF0
7FF0
1860
1860
1860
1860
1860
1860
1860
1860
1860
0000
0000
0000
0000
0000
0000
ENDCHAR
STARTCHAR char961
ENCODING 961
SWIDTH 500 0
DWIDTH 12 0
BBX 12 24 0 -6
BITMAP
0000
0000
0000
0000
0000
0000
0000
1FE0
1FE0
6030
6030
6030
6030
6030
6030
7830
7FF0
6FE0
6000
6000
6000
6000
6000
0000
ENDCHAR
STARTCHAR char962
ENCODING 962
SWIDTH 500 0
DWIDTH 12 0
BBX 12 24 0 -6
BITMAP
0000
0000
0000
0000
0000
0000
0000
1FE0
1FE0
6030
6030
6000
6000
6000
6000
6000
7FE0
1FE0
0030
0030
0030
03E0
03E0
0000
ENDCHAR
STARTCHAR char963
ENCODING 963
SWIDTH 500 0
DWIDTH 12 0
BBX 12 24 0 -6
BITMAP
0000
0000
0000
0000
0000
0000
0000
1FF0
1FF0
6180
61E0
6060
6030
6030
6030
6030
7FF0
1FE0
0000
0000
0000
0000
0000
0000
ENDCHAR
STARTCHAR char964
ENCODING 964
SWIDTH 500 0
DWIDTH 12 0
BBX 12 24 0 -6
BITMAP
0000
0000
0000
0000
0000
0000
0000
7FF0
7FF0
0300
0300
0300
0300
0300
0300
0330
03F0
01E0
0000
0000
0000
0000
0000
0000
ENDCHAR
STARTCHAR char965
ENCODING 965
SWIDTH 500 0
DWIDTH 12 0
BBX 12 24 0 -6
BITMAP
0000
0000
0000
0000
0000
0000
0000
6030
6030
6030
6030
6030
6030
6030
6030
6030
7FF0
1FE0
0000
0000
0000
0000
0000
0000
ENDCHAR
STARTCHAR char966
ENCODING 966
SWIDTH 500 0
DWIDTH 12 0
BBX 12 24 0 -6
BITMAP
0000
0000
0000
0000
0000
0000
0000
19E0
19E0
6330
6330
6330
6330
6330
6330
6330
7FF0
1FE0
0300
0300
0300
0300
0300
0000
ENDCHAR
STARTCHAR char967
ENCODING 967
SWIDTH 500 0
DWIDTH 12 0
BBX 12 24 0 -6
BITMAP
0000
0000
0000
0000
0000
0000
0000
6030
6030
6030
7870
1860
0D80
0F80
0300
0300
0F80
0D80
1860
7870
6030
6030
6030
0000
ENDCHAR
STARTCHAR char968
ENCODING 968
SWIDTH 500 0
DWIDTH 12 0
BBX 12 24 0 -6
BITMAP
0000
0000
0000
0000
0000
0000
0000
6330
6330
6330
6330
6330
6330
6330
6330
6330
7FF0
1FE0
0300
0300
0300
0300
0300
0000
ENDCHAR
STARTCHAR char969
ENCODING 969
SWIDTH 500 0
DWIDTH 12 0
BBX 12 24 0 -6
BITMAP
0000
0000
0000
0000
0000
0000
0000
6030
6030
6330
6330
6330
6330
6330
6330
6330
7FF0
1DE0
0000
0000
0000
0000
0000
0000
ENDCHAR
STARTCHAR char970
ENCODING 970
SWIDTH 500 0
DWIDTH 12 0
BBX 12 24 0 -6
BITMAP
0000
0000
0000
6030
6030
6030
0000
0300
0300
0300
0300
0300
0300
0300
0300
0330
03F0
01E0
0000
0000
0000
0000
0000
0000
ENDCHAR
STARTCHAR char971
ENCODING 971
SWIDTH 500 0
DWIDTH 12 0
BBX 12 24 0 -6
BITMAP
0000
0000
0000
6030
6030
6030
0000
6030
6030
6030
6030
6030
6030
6030
6030
6030
7FF0
1FE0
0000
0000
0000
0000
0000
0000
ENDCHAR
STARTCHAR char972
ENCODING 972
SWIDTH 500 0
DWIDTH 12 0
BBX 12 24 0 -6
BITMAP
0000
0060
0060
0180
0380
0300
0000
1FE0
1FE0
6030
6030
6030
6030
6030
6030
6030
7FF0
1FE0
0000
0000
0000
0000
0000
0000
ENDCHAR
STARTCHAR char973
ENCODING 973
SWIDTH 500 0
DWIDTH 12 0
BBX 12 24 0 -6
BITMAP
0000
0060
0060
0180
0380
0300
0000
6030
6030
6030
6030
6030
6030
6030
6030
6030
7FF0
1FE0
0000
0000
0000
0000
0000
0000
ENDCHAR
STARTCHAR char974
ENCODING 974
SWIDTH 500 0
DWIDTH 12 0
BBX 12 24 0 -6
BITMAP
0000
0060
0060
0180
0380
0300
0000
6030
6030
6330
6330
6330
6330
6330
6330
6330
7FF0
1DE0
0000
0000
0000
0000
0000
0000
ENDCHAR
STARTCHAR char976
ENCODING 976
SWIDTH 500 0
DWIDTH 12 0
BBX 12 24 0 -6
BITMAP
0000
0000
0000
0F80
1FE0
1860
6060
61E0
6180
6FE0
7FF0
7830
6030
6030
6030
1860
1FE0
0F80
0000
0000
0000
0000
0000
0000
ENDCHAR
STARTCHAR char977
ENCODING 977
SWIDTH 500 0
DWIDTH 12 0
BBX 12 24 0 -6
BITMAP
0000
0000
0000
0F80
1FE0
1860
1860
1FF0
0FF0
0060
7860
7860
1860
1860
1860
1860
1FE0
0F80
0000
0000
0000
0000
0000
0000
ENDCHAR
STARTCHAR char978
ENCODING 978
SWIDTH 500 0
DWIDTH 12 0
BBX 12 24 0 -6
BITMAP
0000
0000
0000
1860
7DF0
6DB0
0D80
0D80
0D80
0300
0300
0300
0300
0300
0300
0300
0300
0300
0000
0000
0000
0000
0000
0000
ENDCHAR
STARTCHAR char979
ENCODING 979
SWIDTH 500 0
DWIDTH 12 0
BBX 12 24 0 -6
BITMAP
0000
0000
0000
6360
6FF0
6DB0
C180
C180
0180
0180
0180
0180
0180
0180
0180
0180
0180
0180
0000
0000
0000
0000
0000
0000
ENDCHAR
STARTCHAR char980
ENCODING 980
SWIDTH 500 0
DWIDTH 12 0
BBX 12 24 0 -6
BITMAP
0000
6030
6030
6030
6030
0000
1860
7DF0
6DB0
0D80
0F80
0300
0300
0300
0300
0300
0300
0300
0000
0000
0000
0000
0000
0000
ENDCHAR
STARTCHAR char981
ENCODING 981
SWIDTH 500 0
DWIDTH 12 0
BBX 12 24 0 -6
BITMAP
0000
0000
0000
0300
0300
0300
0300
1FE0
1FE0
6330
6330
6330
6330
6330
6330
6330
7FF0
1FE0
0300
0300
0300
0300
0300
0000
ENDCHAR
STARTCHAR char982
ENCODING 982
SWIDTH 500 0
DWIDTH 12 0
BBX 12 24 0 -6
BITMAP
0000
0000
0000
0000
0000
0000
0000
7FF0
7FF0
1860
7B70
6330
6330
6330
6330
6330
7FF0
1DE0
0000
0000
0000
0000
0000
0000
ENDCHAR
STARTCHAR char983
ENCODING 983
SWIDTH 500 0
DWIDTH 12 0
BBX 12 24 0 -6
BITMAP
0000
1800
1800
0C00
0F00
0300
0000
7830
7830
0C60
0DE0
0D80
0F00
0F80
0D80
19B0
79F0
6070
0030
0070
0060
1F80
1F80
0000
ENDCHAR
STARTCHAR char984
ENCODING 984
SWIDTH 500 0
DWIDTH 12 0
BBX 12 24 0 -6
BITMAP
0000
0000
0000
1FE0
7FF0
6030
6030
6030
6030
6030
6030
6030
6030
6030
6030
6030
7FF0
1FE0
0300
0300
0300
0300
0300
0000
ENDCHAR
STARTCHAR char985
ENCODING 985
SWIDTH 500 0
DWIDTH 12 0
BBX 12 24 0 -6
BITMAP
0000
0000
0000
0000
0000
0000
0000
1FE0
1FE0
6030
6030
6030
6030
6030
6030
6030
7FF0
1FE0
0300
0300
0300
0300
0300
0000
ENDCHAR
STARTCHAR char986
ENCODING 986
SWIDTH 500 0
DWIDTH 12 0
BBX 12 24 0 -6
BITMAP
0000
0000
0000
0FE0
1FF0
1830
6000
6000
6000
6000
6000
6000
6000
6000
6000
1FE0
1FF0
0030
0030
01F0
01E0
0000
0000
0000
ENDCHAR
STARTCHAR char987
ENCODING 987
SWIDTH 500 0
DWIDTH 12 0
BBX 12 24 0 -6
BITMAP
0000
0000
0000
0000
0000
0000
0030
1FF0
1FE0
6000
6000
6000
6000
6000
6000
6000
7FE0
1FE0
0030
0030
0030
01E0
01E0
0000
ENDCHAR
STARTCHAR char988
ENCODING 988
SWIDTH 500 0
DWIDTH 12 0
BBX 12 24 0 -6
BITMAP
0000
0000
0000
7FF0
7FF0
6000
6000
6000
6000
7F80
7F80
6000
6000
6000
6000
6000
6000
6000
0000
0000
0000
0000
0000
0000
ENDCHAR
STARTCHAR char989
ENCODING 989
SWIDTH 500 0
DWIDTH 12 0
BBX 12 24 0 -6
BITMAP
0000
0000
0000
0000
0000
0000
0000
1FE0
1FE0
1800
1800
1800
1800
1F80
1F80
1800
1800
1800
1800
1800
1800
1800
1800
0000
ENDCHAR
STARTCHAR char990
ENCODING 990
SWIDTH 500 0
DWIDTH 12 0
BBX 12 24 0 -6
BITMAP
0000
0000
0000
C000
E000
6000
6060
61E0
61E0
6360
6F60
6C60
7860
7860
6060
0060
0070
0030
0000
0000
0000
0000
0000
0000
ENDCHAR
STARTCHAR char991
ENCODING 991
SWIDTH 500 0
DWIDTH 12 0
BBX 12 24 0 -6
BITMAP
0000
0000
0000
0C00
0C00
0C00
1800
1800
1800
1800
7800
6000
7FE0
7FE0
0060
0180
0180
0180
0180
0380
0300
0300
0300
0000
ENDCHAR
STARTCHAR char992
ENCODING 992
SWIDTH 500 0
DWIDTH 12 0
BBX 12 24 0 -6
BITMAP
0000
0000
0000
0300
0F80
0D80
0D80
0D80
0D80
1860
19E0
19E0
19E0
7BF0
6330
6330
6330
6330
0000
0000
0000
0000
0000
0000
ENDCHAR
STARTCHAR char993
ENCODING 993
SWIDTH 500 0
DWIDTH 12 0
BBX 12 24 0 -6
BITMAP
0000
0000
0000
7800
7F00
0F00
0180
0180
0180
0360
0F60
0C60
19B0
1BB0
0330
0C30
0C30
0030
0030
0030
0030
0030
0030
0000
ENDCHAR
STARTCHAR char994
ENCODING 994
SWIDTH 500 0
DWIDTH 12 0
BBX 12 24 0 -6
BITMAP
0000
0000
0000
6330
6330
6330
6330
6330
6330
6330
6330
6330
6330
7FF0
1DF0
0030
1FF0
1FE0
0000
0000
0000
0000
0000
0000
ENDCHAR
STARTCHAR char995
ENCODING 995
SWIDTH 500 0
DWIDTH 12 0
BBX 12 24 0 -6
BITMAP
0000
0000
0000
0000
0000
0000
0000
6330
6330
6330
6330
6330
6330
6330
6330
6330
7FF0
1DF0
0030
1FF0
1FE0
0000
0000
0000
ENDCHAR
STARTCHAR char996
ENCODING 996
SWIDTH 500 0
DWIDTH 12 0
BBX 12 24 0 -6
BITMAP
0000
0000
0000
1C30
7F30
6330
6030
6030
6030
6030
6030
6030
1FF0
1FF0
0030
0030
0030
0030
0000
0000
0000
0000
0000
0000
ENDCHAR
STARTCHAR char997
ENCODING 997
SWIDTH 500 0
DWIDTH 12 0
BBX 12 24 0 -6
BITMAP
0000
0000
0000
0D80
1D80
1980
1980
1980
1980
1980
1F80
0F80
0180
0180
0180
0180
0180
0180
0000
0000
0000
0000
0000
0000
ENDCHAR
STARTCHAR char998
ENCODING 998
SWIDTH 500 0
DWIDTH 12 0
BBX 12 24 0 -6
BITMAP
0000
0000
0000
7C00
7C00
1800
1800
1800
1800
1F80
1FE0
1860
1830
1830
1830
1830
7C30
7C30
0060
0FE0
0F80
0000
0000
0000
ENDCHAR
STARTCHAR char999
ENCODING 999
SWIDTH 500 0
DWIDTH 12 0
BBX 12 24 0 -6
BITMAP
0000
0000
0000
0000
0000
0000
0C00
0C00
0C00
1FE0
7FF0
6C30
1830
1830
0030
6030
7FF0
1FE0
0000
0000
0000
0000
0000
0000
ENDCHAR
STARTCHAR char1000
ENCODING 1000
SWIDTH 500 0
DWIDTH 12 0
BBX 12 24 0 -6
BITMAP
0000
0000
0000
1FE0
7FF0
6030
6030
7830
1830
0060
0FE0
0F80
1800
7830
6030
6030
7FF0
1FE0
0000
0000
0000
0000
0000
0000
ENDCHAR
STARTCHAR char1001
ENCODING 1001
SWIDTH 500 0
DWIDTH 12 0
BBX 12 24 0 -6
BITMAP
0000
0000
0000
1F80
7FE0
6060
6060
6060
6060
1980
1F80
0F00
1C00
7C00
6000
6000
7FE0
1FE0
0000
0000
0000
0000
0000
0000
ENDCHAR
STARTCHAR char1002
ENCODING 1002
SWIDTH 500 0
DWIDTH 12 0
BBX 12 24 0 -6
BITMAP
0000
0000
0000
7870
7DF0
0D80
0300
0300
0300
0D80
0D80
0D80
1860
1860
1860
6030
7FF0
7FF0
0000
0000
0000
0000
0000
0000
ENDCHAR
STARTCHAR char1003
ENCODING 1003
SWIDTH 500 0
DWIDTH 12 0
BBX 12 24 0 -6
BITMAP
0000
0000
0000
0000
0000
0000
7870
7DF0
0D80
0300
0300
0300
0D80
0D80
0D80
1860
1FE0
1FE0
0000
0000
0000
0000
0000
0000
ENDCHAR
STARTCHAR char1004
ENCODING 1004
SWIDTH 500 0
DWIDTH 12 0
BBX 12 24 0 -6
BITMAP
0000
0000
0000
1FE0
7FE0
6000
6FE0
7FF0
7830
6030
6030
6030
6030
6030
6030
1830
1FF0
0FE0
0000
0000
0000
0000
0000
0000
ENDCHAR
STARTCHAR char1005
ENCODING 1005
SWIDTH 500 0
DWIDTH 12 0
BBX 12 24 0 -6
BITMAP
0000
0000
0000
0000
0000
0000
0000
1FF0
1FF0
6000
6FE0
6FE0
6030
6030
6030
6030
7FF0
1FE0
0000
0000
0000
0000
0000
0000
ENDCHAR
STARTCHAR char1006
ENCODING 1006
SWIDTH 500 0
DWIDTH 12 0
BBX 12 24 0 -6
BITMAP
0000
0000
0000
0F80
0F80
0300
7FF0
7FF0
6330
0300
0300
0300
0300
0300
0300
0300
0300
0300
0000
0000
0000
0000
0000
0000
ENDCHAR
STARTCHAR char1007
ENCODING 1007
SWIDTH 500 0
DWIDTH 12 0
BBX 12 24 0 -6
BITMAP
0000
0000
0000
0000
0000
0000
0300
0330
0330
7FF0
7FF0
6300
0300
0300
0300
0300
0300
0300
0000
0000
0000
0000
0000
0000
ENDCHAR
STARTCHAR char1008
ENCODING 1008
SWIDTH 500 0
DWIDTH 12 0
BBX 12 24 0 -6
BITMAP
0000
0000
0000
0000
0000
0000
0000
7830
7830
0C60
0DE0
0D80
0F00
0F80
0D80
1980
79F0
6070
0000
0000
0000
0000
0000
0000
ENDCHAR
STARTCHAR char1009
ENCODING 1009
SWIDTH 500 0
DWIDTH 12 0
BBX 12 24 0 -6
BITMAP
0000
0000
0000
0000
0000
0000
0000
1FE0
1FE0
6030
6030
6030
6030
6030
6030
7830
7FF0
6FE0
6000
7800
1800
0FE0
0FE0
0000
ENDCHAR
STARTCHAR char1010
ENCODING 1010
SWIDTH 500 0
DWIDTH 12 0
BBX 12 24 0 -6
BITMAP
0000
0000
0000
0000
0000
0000
0000
1FE0
1FE0
6030
6030
6000
6000
6000
6000
6030
7FF0
1FE0
0000
0000
0000
0000
0000
0000
ENDCHAR
STARTCHAR char1011
ENCODING 1011
SWIDTH 500 0
DWIDTH 12 0
BBX 12 24 0 -6
BITMAP
0000
0000
0000
01E0
01E0
0000
0000
03E0
03E0
0060
0060
0060
0060
0060
0060
0060
6060
6060
6060
6060
6060
1F80
1F80
0000
ENDCHAR
STARTCHAR char1012
ENCODING 1012
SWIDTH 500 0
DWIDTH 12 0
BBX 12 24 0 -6
BITMAP
0000
0000
0000
1FE0
7FF0
6030
6030
6030
6030
7FF0
7FF0
6030
6030
6030
6030
6030
7FF0
1FE0
0000
0000
0000
0000
0000
0000
ENDCHAR
STARTCHAR char1013
ENCODING 1013
SWIDTH 500 0
DWIDTH 12 0
BBX 12 24 0 -6
BITMAP
0000
0000
0000
0000
0000
0000
0000
1FE0
1FE0
6000
6000
6000
7F80
7F80
6000
6000
7FE0
1FE0
0000
0000
0000
0000
0000
0000
ENDCHAR
STARTCHAR char1014
ENCODING 1014
SWIDTH 500 0
DWIDTH 12 0
BBX 12 24 0 -6
BITMAP
0000
0000
0000
0000
0000
0000
0000
7F80
7F80
0060
0060
0060
1FE0
1FE0
0060
0060
7FE0
7F80
0000
0000
0000
0000
0000
0000
ENDCHAR
STARTCHAR char1024
ENCODING 1024
SWIDTH 500 0
DWIDTH 12 0
BBX 12 24 0 -6
BITMAP
0C00
0F00
0300
0180
0180
0000
7FF0
7FF0
6000
6000
7F80
7F80
6000
6000
6000
6000
7FF0
7FF0
0000
0000
0000
0000
0000
0000
ENDCHAR
STARTCHAR char1025
ENCODING 1025
SWIDTH 500 0
DWIDTH 12 0
BBX 12 24 0 -6
BITMAP
0000
1860
1860
1860
1860
0000
7FF0
7FF0
6000
6000
7F80
7F80
6000
6000
6000
6000
7FF0
7FF0
0000
0000
0000
0000
0000
0000
ENDCHAR
STARTCHAR char1026
ENCODING 1026
SWIDTH 500 0
DWIDTH 12 0
BBX 12 24 0 -6
BITMAP
0000
0000
0000
7FE0
7FE0
0C00
0C00
0C00
0C00
0FE0
0FF0
0C30
0C30
0C30
0C30
0C30
0C30
0C30
0030
01F0
01E0
0000
0000
0000
ENDCHAR
STARTCHAR char1027
ENCODING 1027
SWIDTH 500 0
DWIDTH 12 0
BBX 12 24 0 -6
BITMAP
0060
01E0
0180
0300
0300
0000
7FF0
7FF0
6000
6000
6000
6000
6000
6000
6000
6000
6000
6000
0000
0000
0000
0000
0000
0000
ENDCHAR
STARTCHAR char1028
ENCODING 1028
SWIDTH 500 0
DWIDTH 12 0
BBX 12 24 0 -6
BITMAP
0000
0000
0000
0000
0FE0
0FE0
1830
7830
6000
6000
7F00
7F00
6000
6000
6000
1830
1FF0
0FE0
0000
0000
0000
0000
0000
0000
ENDCHAR
STARTCHAR char1029
ENCODING 1029
SWIDTH 500 0
DWIDTH 12 0
BBX 12 24 0 -6
BITMAP
0000
0000
0000
1FE0
7FF0
6030
6030
6030
6000
1F00
1FE0
01E0
0030
6030
6030
6030
7FF0
1FE0
0000
0000
0000
0000
0000
0000
ENDCHAR
STARTCHAR char1030
ENCODING 1030
SWIDTH 500 0
DWIDTH 12 0
BBX 12 24 0 -6
BITMAP
0000
0000
0000
1FE0
1FE0
0300
0300
0300
0300
0300
0300
0300
0300
0300
0300
0300
1FE0
1FE0
0000
0000
0000
0000
0000
0000
ENDCHAR
STARTCHAR char1031
ENCODING 1031
SWIDTH 500 0
DWIDTH 12 0
BBX 12 24 0 -6
BITMAP
0000
1860
1860
1860
1860
0000
1FE0
1FE0
0300
0300
0300
0300
0300
0300
0300
0300
1FE0
1FE0
0000
0000
0000
0000
0000
0000
ENDCHAR
STARTCHAR char1032
ENCODING 1032
SWIDTH 500 0
DWIDTH 12 0
BBX 12 24 0 -6
BITMAP
0000
0000
0000
03F0
03F0
0060
0060
0060
0060
0060
0060
0060
0060
0060
0060
6060
7FE0
1F80
0000
0000
0000
0000
0000
0000
ENDCHAR
STARTCHAR char1033
ENCODING 1033
SWIDTH 500 0
DWIDTH 12 0
BBX 12 24 0 -6
BITMAP
0000
0000
0000
FF00
FF00
6300
6300
6300
6300
63E0
E3F0
C330
C330
C330
C330
C330
C3F0
C3E0
0000
0000
0000
0000
0000
0000
ENDCHAR
STARTCHAR char1034
ENCODING 1034
SWIDTH 500 0
DWIDTH 12 0
BBX 12 24 0 -6
BITMAP
0000
0000
0000
C300
C300
C300
C300
C300
C300
FFE0
FFF0
C330
C330
C330
C330
C330
C3F0
C3E0
0000
0000
0000
0000
0000
0000
ENDCHAR
STARTCHAR char1035
ENCODING 1035
SWIDTH 500 0
DWIDTH 12 0
BBX 12 24 0 -6
BITMAP
0000
0000
0000
7FE0
7FE0
0C00
0C00
0C00
0C00
0FE0
0FF0
0C30
0C30
0C30
0C30
0C30
0C30
0C30
0000
0000
0000
0000
0000
0000
ENDCHAR
STARTCHAR char1036
ENCODING 1036
SWIDTH 500 0
DWIDTH 12 0
BBX 12 24 0 -6
BITMAP
0180
0380
0300
0C00
0C00
0000
6060
61E0
6180
6300
7F00
7C00
6C00
6F00
6300
6180
61E0
6060
0000
0000
0000
0000
0000
0000
ENDCHAR
STARTCHAR char1037
ENCODING 1037
SWIDTH 500 0
DWIDTH 12 0
BBX 12 24 0 -6
BITMAP
0000
1800
1800
0C00
0F00
0300
6030
6070
6070
61B0
63B0
6330
6C30
7C30
7830
6030
6030
6030
0000
0000
0000
0000
0000
0000
ENDCHAR
STARTCHAR char1038
ENCODING 1038
SWIDTH 500 0
DWIDTH 12 0
BBX 12 24 0 -6
BITMAP
0000
1860
1860
0F80
0F80
0000
6030
6030
6030
6030
6070
6070
1FB0
1FB0
0030
6030
7FF0
1FE0
0000
0000
0000
0000
0000
0000
ENDCHAR
STARTCHAR char1039
ENCODING 1039
SWIDTH 500 0
DWIDTH 12 0
BBX 12 24 0 -6
BITMAP
0000
0000
0000
6030
6030
6030
6030
6030
6030
6030
6030
6030
6030
6030
6030
6030
7FF0
7FF0
0300
0300
0300
0000
0000
0000
ENDCHAR
STARTCHAR char1040
ENCODING 1040
SWIDTH 500 0
DWIDTH 12 0
BBX 12 24 0 -6
BITMAP
0000
0000
0000
0300
0F80
0D80
1860
7870
6030
6030
6030
6030
7FF0
7FF0
6030
6030
6030
6030
0000
0000
0000
0000
0000
0000
ENDCHAR
STARTCHAR char1041
ENCODING 1041
SWIDTH 500 0
DWIDTH 12 0
BBX 12 24 0 -6
BITMAP
0000
0000
0000
7FE0
7FE0
6000
6000
6000
6000
7FE0
7FF0
6030
6030
6030
6030
6030
7FF0
7FE0
0000
0000
0000
0000
0000
0000
ENDCHAR
STARTCHAR char1042
ENCODING 1042
SWIDTH 500 0
DWIDTH 12 0
BBX 12 24 0 -6
BITMAP
0000
0000
0000
7F80
7FE0
6060
6030
6070
6060
7F80
7FE0
6060
6030
6030
6030
6060
7FE0
7F80
0000
0000
0000
0000
0000
0000
ENDCHAR
STARTCHAR char1043
ENCODING 1043
SWIDTH 500 0
DWIDTH 12 0
BBX 12 24 0 -6
BITMAP
0000
0000
0000
7FF0
7FF0
6000
6000
6000
6000
6000
6000
6000
6000
6000
6000
6000
6000
6000
0000
0000
0000
0000
0000
0000
ENDCHAR
STARTCHAR char1044
ENCODING 1044
SWIDTH 500 0
DWIDTH 12 0
BBX 12 24 0 -6
BITMAP
0000
0000
0000
0FE0
0FE0
0C60
0C60
0C60
0C60
0C60
1C60
1860
1860
1860
1860
1860
7FF0
7FF0
6030
6030
0000
0000
0000
0000
ENDCHAR
STARTCHAR char1045
ENCODING 1045
SWIDTH 500 0
DWIDTH 12 0
BBX 12 24 0 -6
BITMAP
0000
0000
0000
7FF0
7FF0
6000
6000
6000
6000
7F80
7F80
6000
6000
6000
6000
6000
7FF0
7FF0
0000
0000
0000
0000
0000
0000
ENDCHAR
STARTCHAR char1046
ENCODING 1046
SWIDTH 500 0
DWIDTH 12 0
BBX 12 24 0 -6
BITMAP
0000
0000
0000
6330
6330
6330
1B60
1B60
1B60
0F80
1FE0
1B60
1B60
7B70
6330
6330
6330
6330
0000
0000
0000
0000
0000
0000
ENDCHAR
STARTCHAR char1047
ENCODING 1047
SWIDTH 500 0
DWIDTH 12 0
BBX 12 24 0 -6
BITMAP
0000
0000
0000
1FE0
7FF0
6030
0030
0030
0030
03E0
03F0
0030
0030
0030
0030
6030
7FF0
1FE0
0000
0000
0000
0000
0000
0000
ENDCHAR
STARTCHAR char1048
ENCODING 1048
SWIDTH 500 0
DWIDTH 12 0
BBX 12 24 0 -6
BITMAP
0000
0000
0000
6030
6030
6030
6070
61F0
61B0
6330
6F30
6C30
7830
7830
6030
6030
6030
6030
0000
0000
0000
0000
0000
0000
ENDCHAR
STARTCHAR char1049
ENCODING 1049
SWIDTH 500 0
DWIDTH 12 0
BBX 12 24 0 -6
BITMAP
0000
1860
1860
0F80
0F80
0000
6030
6070
6070
61B0
63B0
6330
6C30
7C30
7830
6030
6030
6030
0000
0000
0000
0000
0000
0000
ENDCHAR
STARTCHAR char1050
ENCODING 1050
SWIDTH 500 0
DWIDTH 12 0
BBX 12 24 0 -6
BITMAP
0000
0000
0000
6030
6070
6060
6180
6380
6300
7C00
7C00
6C00
6300
6380
6180
6060
6070
6030
0000
0000
0000
0000
0000
0000
ENDCHAR
STARTCHAR char1051
ENCODING 1051
SWIDTH 500 0
DWIDTH 12 0
BBX 12 24 0 -6
BITMAP
0000
0000
0000
1FF0
1FF0
1830
1830
1830
1830
1830
1830
1830
1830
1830
1830
1830
7830
6030
0000
0000
0000
0000
0000
0000
ENDCHAR
STARTCHAR char1052
ENCODING 1052
SWIDTH 500 0
DWIDTH 12 0
BBX 12 24 0 -6
BITMAP
0000
0000
0000
6030
6030
6030
7870
7DF0
6DB0
6DB0
6FB0
6330
6330
6330
6030
6030
6030
6030
0000
0000
0000
0000
0000
0000
ENDCHAR
STARTCHAR char1053
ENCODING 1053
SWIDTH 500 0
DWIDTH 12 0
BBX 12 24 0 -6
BITMAP
0000
0000
0000
6030
6030
6030
6030
6030
6030
7FF0
7FF0
6030
6030
6030
6030
6030
6030
6030
0000
0000
0000
0000
0000
0000
ENDCHAR
STARTCHAR char1054
ENCODING 1054
SWIDTH 500 0
DWIDTH 12 0
BBX 12 24 0 -6
BITMAP
0000
0000
0000
1FE0
7FF0
6030
6030
6030
6030
6030
6030
6030
6030
6030
6030
6030
7FF0
1FE0
0000
0000
0000
0000
0000
0000
ENDCHAR
STARTCHAR char1055
ENCODING 1055
SWIDTH 500 0
DWIDTH 12 0
BBX 12 24 0 -6
BITMAP
0000
0000
0000
7FF0
7FF0
6030
6030
6030
6030
6030
6030
6030
6030
6030
6030
6030
6030
6030
0000
0000
0000
0000
0000
0000
ENDCHAR
STARTCHAR char1056
ENCODING 1056
SWIDTH 500 0
DWIDTH 12 0
BBX 12 24 0 -6
BITMAP
0000
0000
0000
7FE0
7FF0
6030
6030
6030
6030
7FE0
7FE0
6000
6000
6000
6000
6000
6000
6000
0000
0000
0000
0000
0000
0000
ENDCHAR
STARTCHAR char1057
ENCODING 1057
SWIDTH 500 0
DWIDTH 12 0
BBX 12 24 0 -6
BITMAP
0000
0000
0000
1FE0
7FF0
6030
6000
6000
6000
6000
6000
6000
6000
6000
6000
6030
7FF0
1FE0
0000
0000
0000
0000
0000
0000
ENDCHAR
STARTCHAR char1058
ENCODING 1058
SWIDTH 500 0
DWIDTH 12 0
BBX 12 24 0 -6
BITMAP
0000
0000
0000
7FF0
7FF0
0300
0300
0300
0300
0300
0300
0300
0300
0300
0300
0300
0300
0300
0000
0000
0000
0000
0000
0000
ENDCHAR
STARTCHAR char1059
ENCODING 1059
SWIDTH 500 0
DWIDTH 12 0
BBX 12 24 0 -6
BITMAP
0000
0000
0000
6030
6030
6030
6030
6030
6030
6030
6070
6070
1FB0
1FB0
0030
6030
7FF0
1FE0
0000
0000
0000
0000
0000
0000
ENDCHAR
STARTCHAR char1060
ENCODING 1060
SWIDTH 500 0
DWIDTH 12 0
BBX 12 24 0 -6
BITMAP
0000
0000
0000
0300
1FE0
1FE0
6330
6330
6330
6330
6330
6330
6330
6330
6330
1FE0
1FE0
0300
0000
0000
0000
0000
0000
0000
ENDCHAR
STARTCHAR char1061
ENCODING 1061
SWIDTH 500 0
DWIDTH 12 0
BBX 12 24 0 -6
BITMAP
0000
0000
0000
6030
6030
6030
1860
1DE0
0D80
0300
0300
0300
0D80
1DE0
1860
6030
6030
6030
0000
0000
0000
0000
0000
0000
ENDCHAR
STARTCHAR char1062
ENCODING 1062
SWIDTH 500 0
DWIDTH 12 0
BBX 12 24 0 -6
BITMAP
0000
0000
0000
6060
6060
6060
6060
6060
6060
6060
6060
6060
6060
6060
6060
6060
7FF0
7FF0
0030
0030
0030
0000
0000
0000
ENDCHAR
STARTCHAR char1063
ENCODING 1063
SWIDTH 500 0
DWIDTH 12 0
BBX 12 24 0 -6
BITMAP
0000
0000
0000
6030
6030
6030
6030
6030
6030
6030
7FF0
1FF0
0030
0030
0030
0030
0030
0030
0000
0000
0000
0000
0000
0000
ENDCHAR
STARTCHAR char1064
ENCODING 1064
SWIDTH 500 0
DWIDTH 12 0
BBX 12 24 0 -6
BITMAP
0000
0000
0000
6330
6330
6330
6330
6330
6330
6330
6330
6330
6330
6330
6330
6330
7FF0
7FF0
0000
0000
0000
0000
0000
0000
ENDCHAR
STARTCHAR char1065
ENCODING 1065
SWIDTH 500 0
DWIDTH 12 0
BBX 12 24 0 -6
BITMAP
0000
0000
0000
6330
6330
6330
6330
6330
6330
6330
6330
6330
6330
6330
6330
6330
7FF0
7FF0
0030
0030
0030
0000
0000
0000
ENDCHAR
STARTCHAR char1066
ENCODING 1066
SWIDTH 500 0
DWIDTH 12 0
BBX 12 24 0 -6
BITMAP
0000
0000
0000
7C00
7C00
0C00
0C00
0C00
0C00
0FE0
0FF0
0C30
0C30
0C30
0C30
0C30
0FF0
0FE0
0000
0000
0000
0000
0000
0000
ENDCHAR
STARTCHAR char1067
ENCODING 1067
SWIDTH 500 0
DWIDTH 12 0
BBX 12 24 0 -6
BITMAP
0000
0000
0000
6030
6030
6030
6030
6030
6030
7F30
7FB0
61B0
61B0
61B0
61B0
61B0
7FB0
7F30
0000
0000
0000
0000
0000
0000
ENDCHAR
STARTCHAR char1068
ENCODING 1068
SWIDTH 500 0
DWIDTH 12 0
BBX 12 24 0 -6
BITMAP
0000
0000
0000
6000
6000
6000
6000
6000
6000
7FE0
7FF0
6030
6030
6030
6030
6030
7FF0
7FE0
0000
0000
0000
0000
0000
0000
ENDCHAR
STARTCHAR char1069
ENCODING 1069
SWIDTH 500 0
DWIDTH 12 0
BBX 12 24 0 -6
BITMAP
0000
0000
0000
0000
1F80
1F80
6060
6070
0030
0030
03F0
03F0
0030
0030
0030
6060
7FE0
1F80
0000
0000
0000
0000
0000
0000
ENDCHAR
STARTCHAR char1070
ENCODING 1070
SWIDTH 500 0
DWIDTH 12 0
BBX 12 24 0 -6
BITMAP
0000
0000
0000
63E0
6FF0
6C30
6C30
6C30
6C30
7C30
7C30
6C30
6C30
6C30
6C30
6C30
6FF0
63E0
0000
0000
0000
0000
0000
0000
ENDCHAR
STARTCHAR char1071
ENCODING 1071
SWIDTH 500 0
DWIDTH 12 0
BBX 12 24 0 -6
BITMAP
0000
0000
0000
1FF0
7FF0
6030
6030
6030
6030
1FF0
1FF0
0330
0C30
1C30
1830
6030
6030
6030
0000
0000
0000
0000
0000
0000
ENDCHAR
STARTCHAR char1072
ENCODING 1072
SWIDTH 500 0
DWIDTH 12 0
BBX 12 24 0 -6
BITMAP
0000
0000
0000
0000
0000
0000
0000
1FE0
1FE0
0030
0030
0030
1FF0
7FF0
6030
6070
7FF0
1FB0
0000
0000
0000
0000
0000
0000
ENDCHAR
STARTCHAR char1073
ENCODING 1073
SWIDTH 500 0
DWIDTH 12 0
BBX 12 24 0 -6
BITMAP
0000
0000
0000
0030
1FF0
1FE0
6000
6FE0
6FE0
7830
7830
6030
6030
6030
6030
6030
7FF0
1FE0
0000
0000
0000
0000
0000
0000
ENDCHAR
STARTCHAR char1074
ENCODING 1074
SWIDTH 500 0
DWIDTH 12 0
BBX 12 24 0 -6
BITMAP
0000
0000
0000
0000
0000
0000
0000
7FE0
7FE0
6030
6030
6030
7FE0
7FF0
6030
6030
7FF0
7FE0
0000
0000
0000
0000
0000
0000
ENDCHAR
STARTCHAR char1075
ENCODING 1075
SWIDTH 500 0
DWIDTH 12 0
BBX 12 24 0 -6
BITMAP
0000
0000
0000
0000
0000
0000
0000
7FF0
7FF0
6000
6000
6000
6000
6000
6000
6000
6000
6000
0000
0000
0000
0000
0000
0000
ENDCHAR
STARTCHAR char1076
ENCODING 1076
SWIDTH 500 0
DWIDTH 12 0
BBX 12 24 0 -6
BITMAP
0000
0000
0000
0000
0000
0000
0000
0FE0
0FE0
0C60
0C60
0C60
0C60
1C60
1860
1860
7FF0
7FF0
6030
6030
0000
0000
0000
0000
ENDCHAR
STARTCHAR char1077
ENCODING 1077
SWIDTH 500 0
DWIDTH 12 0
BBX 12 24 0 -6
BITMAP
0000
0000
0000
0000
0000
0000
0000
1FE0
1FE0
6030
6030
6030
7FF0
7FF0
6000
6000
7FE0
1FE0
0000
0000
0000
0000
0000
0000
ENDCHAR
STARTCHAR char1078
ENCODING 1078
SWIDTH 500 0
DWIDTH 12 0
BBX 12 24 0 -6
BITMAP
0000
0000
0000
0000
0000
0000
0000
6330
6330
6330
7B70
1B60
0F80
1FE0
1B60
6330
6330
6330
0000
0000
0000
0000
0000
0000
ENDCHAR
STARTCHAR char1079
ENCODING 1079
SWIDTH 500 0
DWIDTH 12 0
BBX 12 24 0 -6
BITMAP
0000
0000
0000
0000
0000
0000
0000
1FE0
1FE0
6030
6030
0030
03E0
03F0
0030
6030
7FF0
1FE0
0000
0000
0000
0000
0000
0000
ENDCHAR
STARTCHAR char1080
ENCODING 1080
SWIDTH 500 0
DWIDTH 12 0
BBX 12 24 0 -6
BITMAP
0000
0000
0000
0000
0000
0000
0000
6030
6030
6070
61F0
61B0
6330
6F30
6C30
7830
7830
6030
0000
0000
0000
0000
0000
0000
ENDCHAR
STARTCHAR char1081
ENCODING 1081
SWIDTH 500 0
DWIDTH 12 0
BBX 12 24 0 -6
BITMAP
0000
0000
0000
1860
1FE0
0F80
0000
6030
6030
6070
61F0
61B0
6330
6F30
6C30
7830
7830
6030
0000
0000
0000
0000
0000
0000
ENDCHAR
STARTCHAR char1082
ENCODING 1082
SWIDTH 500 0
DWIDTH 12 0
BBX 12 24 0 -6
BITMAP
0000
0000
0000
0000
0000
0000
0000
6030
6030
6060
61E0
6180
7F00
7F80
6180
6060
6070
6030
0000
0000
0000
0000
0000
0000
ENDCHAR
STARTCHAR char1083
ENCODING 1083
SWIDTH 500 0
DWIDTH 12 0
BBX 12 24 0 -6
BITMAP
0000
0000
0000
0000
0000
0000
0000
0FF0
0FF0
0C30
0C30
0C30
0C30
0C30
0C30
0C30
7C30
7830
0000
0000
0000
0000
0000
0000
ENDCHAR
STARTCHAR char1084
ENCODING 1084
SWIDTH 500 0
DWIDTH 12 0
BBX 12 24 0 -6
BITMAP
0000
0000
0000
0000
0000
0000
0000
6030
6030
7870
7DF0
6DB0
6330
6330
6030
6030
6030
6030
0000
0000
0000
0000
0000
0000
ENDCHAR
STARTCHAR char1085
ENCODING 1085
SWIDTH 500 0
DWIDTH 12 0
BBX 12 24 0 -6
BITMAP
0000
0000
0000
0000
0000
0000
0000
6030
6030
6030
6030
6030
7FF0
7FF0
6030
6030
6030
6030
0000
0000
0000
0000
0000
0000
ENDCHAR
STARTCHAR char1086
ENCODING 1086
SWIDTH 500 0
DWIDTH 12 0
BBX 12 24 0 -6
BITMAP
0000
0000
0000
0000
0000
0000
0000
1FE0
1FE0
6030
6030
6030
6030
6030
6030
6030
7FF0
1FE0
0000
0000
0000
0000
0000
0000
ENDCHAR
STARTCHAR char1087
ENCODING 1087
SWIDTH 500 0
DWIDTH 12 0
BBX 12 24 0 -6
BITMAP
0000
0000
0000
0000
0000
0000
0000
7FF0
7FF0
6030
6030
6030
6030
6030
6030
6030
6030
6030
0000
0000
0000
0000
0000
0000
ENDCHAR
STARTCHAR char1088
ENCODING 1088
SWIDTH 500 0
DWIDTH 12 0
BBX 12 24 0 -6
BITMAP
0000
0000
0000
0000
0000
0000
0000
6FE0
6FE0
7830
7830
6030
6030
6030
6030
7830
7FF0
6FE0
6000
6000
6000
6000
6000
0000
ENDCHAR
STARTCHAR char1089
ENCODING 1089
SWIDTH 500 0
DWIDTH 12 0
BBX 12 24 0 -6
BITMAP
0000
0000
0000
0000
0000
0000
0000
1FE0
1FE0
6030
6030
6000
6000
6000
6000
6030
7FF0
1FE0
0000
0000
0000
0000
0000
0000
ENDCHAR
STARTCHAR char1090
ENCODING 1090
SWIDTH 500 0
DWIDTH 12 0
BBX 12 24 0 -6
BITMAP
0000
0000
0000
0000
0000
0000
0000
7FF0
7FF0
0300
0300
0300
0300
0300
0300
0300
0300
0300
0000
0000
0000
0000
0000
0000
ENDCHAR
STARTCHAR char1091
ENCODING 1091
SWIDTH 500 0
DWIDTH 12 0
BBX 12 24 0 -6
BITMAP
0000
0000
0000
0000
0000
0000
0000
6030
6030
6030
6030
6030
6030
6030
6030
6070
7FF0
1FB0
0030
6030
6030
1FE0
1FE0
0000
ENDCHAR
STARTCHAR char1092
ENCODING 1092
SWIDTH 500 0
DWIDTH 12 0
BBX 12 24 0 -6
BITMAP
0000
0000
0000
0300
0300
0300
0300
1FE0
1FE0
6330
6330
6330
6330
6330
6330
6330
7FF0
1FE0
0300
0300
0300
0300
0300
0000
ENDCHAR
STARTCHAR char1093
ENCODING 1093
SWIDTH 500 0
DWIDTH 12 0
BBX 12 24 0 -6
BITMAP
0000
0000
0000
0000
0000
0000
0000
6030
6030
1860
1DE0
0D80
0300
0F80
0D80
1860
7870
6030
0000
0000
0000
0000
0000
0000
ENDCHAR
STARTCHAR char1094
ENCODING 1094
SWIDTH 500 0
DWIDTH 12 0
BBX 12 24 0 -6
BITMAP
0000
0000
0000
0000
0000
0000
0000
6060
6060
6060
6060
6060
6060
6060
6060
6060
7FF0
7FF0
0030
0030
0030
0000
0000
0000
ENDCHAR
STARTCHAR char1095
ENCODING 1095
SWIDTH 500 0
DWIDTH 12 0
BBX 12 24 0 -6
BITMAP
0000
0000
0000
0000
0000
0000
0000
6030
6030
6030
6030
6030
1FF0
1FF0
0030
0030
0030
0030
0000
0000
0000
0000
0000
0000
ENDCHAR
STARTCHAR char1096
ENCODING 1096
SWIDTH 500 0
DWIDTH 12 0
BBX 12 24 0 -6
BITMAP
0000
0000
0000
0000
0000
0000
0000
6330
6330
6330
6330
6330
6330
6330
6330
6330
7FF0
7FF0
0000
0000
0000
0000
0000
0000
ENDCHAR
STARTCHAR char1097
ENCODING 1097
SWIDTH 500 0
DWIDTH 12 0
BBX 12 24 0 -6
BITMAP
0000
0000
0000
0000
0000
0000
0000
6330
6330
6330
6330
6330
6330
6330
6330
6330
7FF0
7FF0
0030
0030
0030
0000
0000
0000
ENDCHAR
STARTCHAR char1098
ENCODING 1098
SWIDTH 500 0
DWIDTH 12 0
BBX 12 24 0 -6
BITMAP
0000
0000
0000
0000
0000
0000
0000
7C00
7C00
0C00
0C00
0C00
0FE0
0FF0
0C30
0C30
0FF0
0FE0
0000
0000
0000
0000
0000
0000
ENDCHAR
STARTCHAR char1099
ENCODING 1099
SWIDTH 500 0
DWIDTH 12 0
BBX 12 24 0 -6
BITMAP
0000
0000
0000
0000
0000
0000
0000
6030
6030
6030
6030
6030
7F30
7FB0
61B0
61B0
7FB0
7F30
0000
0000
0000
0000
0000
0000
ENDCHAR
STARTCHAR char1100
ENCODING 1100
SWIDTH 500 0
DWIDTH 12 0
BBX 12 24 0 -6
BITMAP
0000
0000
0000
0000
0000
0000
0000
6000
6000
6000
6000
6000
7FE0
7FF0
6030
6030
7FF0
7FE0
0000
0000
0000
0000
0000
0000
ENDCHAR
STARTCHAR char1101
ENCODING 1101
SWIDTH 500 0
DWIDTH 12 0
BBX 12 24 0 -6
BITMAP
0000
0000
0000
0000
0000
0000
0000
1FE0
1FE0
6030
6030
0030
03F0
03F0
0030
6030
7FF0
1FE0
0000
0000
0000
0000
0000
0000
ENDCHAR
STARTCHAR char1102
ENCODING 1102
SWIDTH 500 0
DWIDTH 12 0
BBX 12 24 0 -6
BITMAP
0000
0000
0000
0000
0000
0000
0000
63E0
63E0
6C30
6C30
6C30
7C30
7C30
6C30
6C30
6FF0
63E0
0000
0000
0000
0000
0000
0000
ENDCHAR
STARTCHAR char1103
ENCODING 1103
SWIDTH 500 0
DWIDTH 12 0
BBX 12 24 0 -6
BITMAP
0000
0000
0000
0000
0000
0000
0000
1FF0
1FF0
6030
6030
6030
1FF0
1FF0
0C30
1830
7830
6030
0000
0000
0000
0000
0000
0000
ENDCHAR
STARTCHAR char1104
ENCODING 1104
SWIDTH 500 0
DWIDTH 12 0
BBX 12 24 0 -6
BITMAP
0000
1800
1800
0C00
0F00
0300
0000
1FE0
1FE0
6030
6030
6030
7FF0
7FF0
6000
6000
7FE0
1FE0
0000
0000
0000
0000
0000
0000
ENDCHAR
STARTCHAR char1105
ENCODING 1105
SWIDTH 500 0
DWIDTH 12 0
BBX 12 24 0 -6
BITMAP
0000
0000
0000
1860
1860
1860
0000
1FE0
1FE0
6030
6030
6030
7FF0
7FF0
6000
6000
7FE0
1FE0
0000
0000
0000
0000
0000
0000
ENDCHAR
STARTCHAR char1106
ENCODING 1106
SWIDTH 500 0
DWIDTH 12 0
BBX 12 24 0 -6
BITMAP
0000
0000
0000
1800
7F80
7F80
1800
1BE0
1BE0
1C30
1C30
1830
1830
1830
1830
1830
1830
1830
0030
03F0
03E0
0000
0000
0000
ENDCHAR
STARTCHAR char1107
ENCODING 1107
SWIDTH 500 0
DWIDTH 12 0
BBX 12 24 0 -6
BITMAP
0000
0060
0060
0180
0380
0300
0000
7FF0
7FF0
6000
6000
6000
6000
6000
6000
6000
6000
6000
0000
0000
0000
0000
0000
0000
ENDCHAR
STARTCHAR char1108
ENCODING 1108
SWIDTH 500 0
DWIDTH 12 0
BBX 12 24 0 -6
BITMAP
0000
0000
0000
0000
0000
0000
0000
1FE0
1FE0
6030
6030
6000
7F00
7F00
6000
6030
7FF0
1FE0
0000
0000
0000
0000
0000
0000
ENDCHAR
STARTCHAR char1109
ENCODING 1109
SWIDTH 500 0
DWIDTH 12 0
BBX 12 24 0 -6
BITMAP
0000
0000
0000
0000
0000
0000
0000
1FE0
1FE0
6030
6030
6000
1FE0
1FF0
0030
6030
7FF0
1FE0
0000
0000
0000
0000
0000
0000
ENDCHAR
STARTCHAR char1110
ENCODING 1110
SWIDTH 500 0
DWIDTH 12 0
BBX 12 24 0 -6
BITMAP
0000
0000
0000
0000
0F00
0F00
0000
1F00
1F00
0300
0300
0300
0300
0300
0300
0300
1FE0
1FE0
0000
0000
0000
0000
0000
0000
ENDCHAR
STARTCHAR char1111
ENCODING 1111
SWIDTH 500 0
DWIDTH 12 0
BBX 12 24 0 -6
BITMAP
0000
0000
0000
1980
1980
1980
0000
1F00
1F00
0300
0300
0300
0300
0300
0300
0300
1FE0
1FE0
0000
0000
0000
0000
0000
0000
ENDCHAR
STARTCHAR char1112
ENCODING 1112
SWIDTH 500 0
DWIDTH 12 0
BBX 12 24 0 -6
BITMAP
0000
0000
0000
0000
01E0
01E0
0000
03E0
03E0
0060
0060
0060
0060
0060
0060
0060
6060
6060
6060
6060
6060
1F80
1F80
0000
ENDCHAR
STARTCHAR char1113
ENCODING 1113
SWIDTH 500 0
DWIDTH 12 0
BBX 12 24 0 -6
BITMAP
0000
0000
0000
0000
0000
0000
0000
7F00
7F00
6300
6300
6300
63E0
63F0
6330
6330
E3F0
C3E0
0000
0000
0000
0000
0000
0000
ENDCHAR
STARTCHAR char1114
ENCODING 1114
SWIDTH 500 0
DWIDTH 12 0
BBX 12 24 0 -6
BITMAP
0000
0000
0000
0000
0000
0000
0000
6300
6300
6300
6300
6300
7FE0
7FF0
6330
6330
63F0
63E0
0000
0000
0000
0000
0000
0000
ENDCHAR
STARTCHAR char1115
ENCODING 1115
SWIDTH 500 0
DWIDTH 12 0
BBX 12 24 0 -6
BITMAP
0000
0000
0000
1800
7F80
7F80
1800
1BE0
1BE0
1C30
1C30
1830
1830
1830
1830
1830
1830
1830
0000
0000
0000
0000
0000
0000
ENDCHAR
STARTCHAR char1116
ENCODING 1116
SWIDTH 500 0
DWIDTH 12 0
BBX 12 24 0 -6
BITMAP
0000
0000
0000
0060
01E0
0180
0300
6330
6030
6060
61E0
6180
7F00
7F80
6180
6060
6070
6030
0000
0000
0000
0000
0000
0000
ENDCHAR
STARTCHAR char1117
ENCODING 1117
SWIDTH 500 0
DWIDTH 12 0
BBX 12 24 0 -6
BITMAP
0000
0000
0000
1800
1C00
0C00
0300
6330
6030
6070
61F0
61B0
6330
6F30
6C30
7830
7830
6030
0000
0000
0000
0000
0000
0000
ENDCHAR
STARTCHAR char1118
ENCODING 1118
SWIDTH 500 0
DWIDTH 12 0
BBX 12 24 0 -6
BITMAP
0000
0000
0000
1860
1FE0
0F80
0000
6030
6030
6030
6030
6030
6030
6030
6030
6070
7FF0
1FB0
0030
6030
6030
1FE0
1FE0
0000
ENDCHAR
STARTCHAR char1119
ENCODING 1119
SWIDTH 500 0
DWIDTH 12 0
BBX 12 24 0 -6
BITMAP
0000
0000
0000
0000
0000
0000
0000
6030
6030
6030
6030
6030
6030
6030
6030
6030
7FF0
7FF0
0300
0300
0300
0000
0000
0000
ENDCHAR
STARTCHAR char1120
ENCODING 1120
SWIDTH 500 0
DWIDTH 12 0
BBX 12 24 0 -6
BITMAP
0000
0000
0000
1DE0
7DF0
6030
6030
6330
6330
6330
6330
6330
6330
6330
6330
6330
7FF0
1DE0
0000
0000
0000
0000
0000
0000
ENDCHAR
STARTCHAR char1121
ENCODING 1121
SWIDTH 500 0
DWIDTH 12 0
BBX 12 24 0 -6
BITMAP
0000
0000
0000
0000
0000
0000
0000
1DE0
1DE0
6030
6030
6030
6330
6330
6330
6330
7FF0
1DE0
0000
0000
0000
0000
0000
0000
ENDCHAR
STARTCHAR char1122
ENCODING 1122
SWIDTH 500 0
DWIDTH 12 0
BBX 12 24 0 -6
BITMAP
0000
0000
0000
0C00
7F80
7F80
0C00
0C00
0C00
0FE0
0FF0
0C30
0C30
0C30
0C30
0C30
0FF0
0FE0
0000
0000
0000
0000
0000
0000
ENDCHAR
ENDFONT
